999
dxfrw 0.6.3
  0
SECTION
  2
HEADER
  9
$ACADVER
  1
AC1021
  9
$DWGCODEPAGE
  3
ANSI_1252
  9
$INSBASE
 10
0
 20
0
 30
0
  9
$EXTMIN
 10
-2.066591473561158e-15
 20
-141.25
 30
0
  9
$EXTMAX
 10
770
 20
110
 30
0
  9
$LIMMIN
 10
0
 20
0
  9
$LIMMAX
 10
420
 20
297
  9
$ORTHOMODE
 70
    0
  9
$REGENMODE
 70
    1
  9
$FILLMODE
 70
    1
  9
$QTEXTMODE
 70
    0
  9
$MIRRTEXT
 70
    0
  9
$LTSCALE
 40
1
  9
$ATTMODE
 70
    0
  9
$TEXTSIZE
 40
2.5
  9
$TRACEWID
 40
15.68
  9
$TEXTSTYLE
  7
STANDARD
  9
$CLAYER
  8
Cotas
  9
$CELTYPE
  6
BYLAYER
  9
$CECOLOR
 62
  256
  9
$CELTSCALE
 40
1
  9
$DISPSILH
 70
    0
  9
$DIMSCALE
 40
1
  9
$DIMASZ
 40
3
  9
$DIMEXO
 40
0.625
  9
$DIMDLI
 40
3.75
  9
$DIMRND
 40
0
  9
$DIMDLE
 40
0
  9
$DIMEXE
 40
1.25
  9
$DIMTP
 40
0
  9
$DIMTM
 40
0
  9
$DIMTXT
 40
4
  9
$DIMCEN
 40
2.5
  9
$DIMTSZ
 40
0
  9
$DIMTOL
 70
    0
  9
$DIMLIM
 70
    0
  9
$DIMTIH
 70
    0
  9
$DIMTOH
 70
    0
  9
$DIMSE1
 70
    0
  9
$DIMSE2
 70
    0
  9
$DIMTAD
 70
    1
  9
$DIMZIN
 70
    8
  9
$DIMBLK
  1

  9
$DIMASO
 70
    1
  9
$DIMSHO
 70
    1
  9
$DIMPOST
  1

  9
$DIMAPOST
  1

  9
$DIMALT
 70
    0
  9
$DIMALTD
 70
    3
  9
$DIMALTF
 40
0.03937
  9
$DIMLFAC
 40
1
  9
$DIMTOFL
 70
    1
  9
$DIMTVP
 40
0
  9
$DIMTIX
 70
    0
  9
$DIMSOXD
 70
    0
  9
$DIMSAH
 70
    0
  9
$DIMBLK1
  1

  9
$DIMBLK2
  1

  9
$DIMSTYLE
  2
STANDARD
  9
$DIMCLRD
 70
    0
  9
$DIMCLRE
 70
    0
  9
$DIMCLRT
 70
    0
  9
$DIMTFAC
 40
1
  9
$DIMGAP
 40
0.625
  9
$DIMJUST
 70
    0
  9
$DIMSD1
 70
    0
  9
$DIMSD2
 70
    0
  9
$DIMTOLJ
 70
    0
  9
$DIMTZIN
 70
    8
  9
$DIMALTZ
 70
    0
  9
$DIMALTTZ
 70
    0
  9
$DIMUPT
 70
    0
  9
$DIMDEC
 70
    2
  9
$DIMTDEC
 70
    2
  9
$DIMALTU
 70
    2
  9
$DIMALTTD
 70
    3
  9
$DIMTXSTY
  7
standard
  9
$DIMAUNIT
 70
    0
  9
$DIMADEC
 70
    0
  9
$DIMALTRND
 40
0
  9
$DIMAZIN
 70
    0
  9
$DIMDSEP
 70
   44
  9
$DIMATFIT
 70
    3
  9
$DIMFRAC
 70
    0
  9
$DIMLDRBLK
  1
STANDARD
  9
$DIMLUNIT
 70
    2
  9
$DIMLWD
 70
   -2
  9
$DIMLWE
 70
   -2
  9
$DIMTMOVE
 70
    0
  9
$DIMFXL
 40
1
  9
$DIMFXLON
 70
    0
  9
$DIMJOGANG
 40
0.7854
  9
$DIMTFILL
 70
    0
  9
$DIMTFILLCLR
 70
    0
  9
$DIMARCSYM
 70
    0
  9
$DIMLTYPE
  6

  9
$DIMLTEX1
  6

  9
$DIMLTEX2
  6

  9
$LUNITS
 70
    2
  9
$LUPREC
 70
    4
  9
$SKETCHINC
 40
1
  9
$FILLETRAD
 40
0
  9
$AUNITS
 70
    0
  9
$AUPREC
 70
    2
  9
$MENU
  1
.
  9
$ELEVATION
 40
0
  9
$PELEVATION
 40
0
  9
$THICKNESS
 40
0
  9
$LIMCHECK
 70
    0
  9
$CHAMFERA
 40
0
  9
$CHAMFERB
 40
0
  9
$CHAMFERC
 40
0
  9
$CHAMFERD
 40
0
  9
$SKPOLY
 70
    0
  9
$USRTIMER
 70
    1
  9
$ANGBASE
 50
0
  9
$ANGDIR
 70
    0
  9
$PDMODE
 70
   34
  9
$PDSIZE
 40
0
  9
$PLINEWID
 40
0
  9
$SPLFRAME
 70
    0
  9
$SPLINETYPE
 70
    2
  9
$SPLINESEGS
 70
    8
  9
$HANDSEED
  5
20000
  9
$SURFTAB1
 70
    6
  9
$SURFTAB2
 70
    6
  9
$SURFTYPE
 70
    6
  9
$SURFU
 70
    6
  9
$SURFV
 70
    6
  9
$UCSBASE
  2

  9
$UCSNAME
  2

  9
$UCSORG
 10
0
 20
0
 30
0
  9
$UCSXDIR
 10
1
 20
0
 30
0
  9
$UCSYDIR
 10
0
 20
1
 30
0
  9
$UCSORTHOREF
  2

  9
$UCSORTHOVIEW
 70
    0
  9
$UCSORGTOP
 10
0
 20
0
 30
0
  9
$UCSORGBOTTOM
 10
0
 20
0
 30
0
  9
$UCSORGLEFT
 10
0
 20
0
 30
0
  9
$UCSORGRIGHT
 10
0
 20
0
 30
0
  9
$UCSORGFRONT
 10
0
 20
0
 30
0
  9
$UCSORGBACK
 10
0
 20
0
 30
0
  9
$PUCSBASE
  2

  9
$PUCSNAME
  2

  9
$PUCSORG
 10
0
 20
0
 30
0
  9
$PUCSXDIR
 10
1
 20
0
 30
0
  9
$PUCSYDIR
 10
0
 20
1
 30
0
  9
$PUCSORTHOREF
  2

  9
$PUCSORTHOVIEW
 70
    0
  9
$PUCSORGTOP
 10
0
 20
0
 30
0
  9
$PUCSORGBOTTOM
 10
0
 20
0
 30
0
  9
$PUCSORGLEFT
 10
0
 20
0
 30
0
  9
$PUCSORGRIGHT
 10
0
 20
0
 30
0
  9
$PUCSORGFRONT
 10
0
 20
0
 30
0
  9
$PUCSORGBACK
 10
0
 20
0
 30
0
  9
$USERI1
 70
    0
  9
$USERI2
 70
    0
  9
$USERI3
 70
    0
  9
$USERI4
 70
    0
  9
$USERI5
 70
    0
  9
$USERR1
 40
0
  9
$USERR2
 40
0
  9
$USERR3
 40
0
  9
$USERR4
 40
0
  9
$USERR5
 40
0
  9
$WORLDVIEW
 70
    1
  9
$SHADEDGE
 70
    3
  9
$SHADEDIF
 70
   70
  9
$TILEMODE
 70
    1
  9
$MAXACTVP
 70
   64
  9
$PINSBASE
 10
0
 20
0
 30
0
  9
$PLIMCHECK
 70
    0
  9
$PEXTMIN
 10
0
 20
0
 30
0
  9
$PEXTMAX
 10
0
 20
0
 30
0
  9
$GRIDMODE
 70
    1
  9
$SNAPSTYLE
 70
    0
  9
$GRIDUNIT
 10
0
 20
0
  9
$PLIMMIN
 10
0
 20
0
  9
$PLIMMAX
 10
210
 20
297
  9
$UNITMODE
 70
    0
  9
$VISRETAIN
 70
    1
  9
$PLINEGEN
 70
    0
  9
$PSLTSCALE
 70
    1
  9
$TREEDEPTH
 70
 3020
  9
$CMLSTYLE
  2
Standard
  9
$CMLJUST
 70
    0
  9
$CMLSCALE
 40
20
  9
$PROXYGRAPHICS
 70
    1
  9
$MEASUREMENT
 70
    1
  9
$CELWEIGHT
370
   -1
  9
$ENDCAPS
280
    0
  9
$JOINSTYLE
280
    0
  9
$LWDISPLAY
290
    0
  9
$INSUNITS
 70
    4
  9
$HYPERLINKBASE
  1

  9
$STYLESHEET
  1

  9
$XEDIT
290
    1
  9
$CEPSNTYPE
380
    0
  9
$PSTYLEMODE
290
    1
  9
$EXTNAMES
290
    1
  9
$PSVPSCALE
 40
1
  9
$OLESTARTUP
290
    0
  9
$SORTENTS
280
  127
  9
$INDEXCTL
280
    0
  9
$HIDETEXT
280
    1
  9
$XCLIPFRAME
290
    0
  9
$HALOGAP
280
    0
  9
$OBSCOLOR
 70
  257
  9
$OBSLTYPE
280
    0
  9
$INTERSECTIONDISPLAY
280
    0
  9
$INTERSECTIONCOLOR
 70
  257
  9
$DIMASSOC
280
    1
  9
$PROJECTNAME
  1

  9
$CAMERADISPLAY
290
    0
  9
$LENSLENGTH
 40
50
  9
$CAMERAHEIGHT
 40
0
  9
$STEPSPERSEC
 40
2
  9
$STEPSIZE
 40
50
  9
$3DDWFPREC
 40
2
  9
$PSOLWIDTH
 40
5
  9
$PSOLHEIGHT
 40
80
  9
$LOFTANG1
 40
1.570796326794897
  9
$LOFTANG2
 40
1.570796326794897
  9
$LOFTMAG1
 40
0
  9
$LOFTMAG2
 40
0
  9
$LOFTPARAM
 70
    7
  9
$LOFTNORMALS
280
    1
  9
$LATITUDE
 40
1
  9
$LONGITUDE
 40
1
  9
$NORTHDIRECTION
 40
0
  9
$TIMEZONE
 70
-8000
  9
$LIGHTGLYPHDISPLAY
280
    1
  9
$TILEMODELIGHTSYNCH
280
    1
  9
$SOLIDHIST
280
    1
  9
$SHOWHIST
280
    1
  9
$DWFFRAME
280
    2
  9
$DGNFRAME
280
    0
  9
$REALWORLDSCALE
290
    1
  9
$INTERFERECOLOR
 62
    1
  9
$CSHADOW
280
    0
  9
$SHADOWPLANELOCATION
 40
0
  0
ENDSEC
  0
SECTION
  2
CLASSES
  0
ENDSEC
  0
SECTION
  2
TABLES
  0
TABLE
  2
VPORT
  5
8
330
0
100
AcDbSymbolTable
 70
    1
  0
VPORT
  5
31
330
2
100
AcDbSymbolTableRecord
100
AcDbViewportTableRecord
  2
*ACTIVE
 70
    0
 10
0
 20
0
 11
1
 21
1
 12
389.7826086956522
 22
170.7391304347826
 13
0
 23
0
 14
10
 24
10
 15
10
 25
10
 16
0
 26
0
 36
1
 17
0
 27
0
 37
0
 40
713.5652173913044
 41
1.105898123324397
 42
50
 43
0
 44
0
 50
0
 51
0
 71
    0
 72
  100
 73
    1
 74
    3
 75
    0
 76
    1
 77
    0
 78
    0
281
    0
 65
    1
110
0
120
0
130
0
111
1
121
0
131
0
112
0
122
1
132
0
 79
    0
146
0
348
10020
 60
    7
 61
    5
292
1
282
    1
141
0
142
0
 63
  250
421
3358443
  0
ENDTAB
  0
TABLE
  2
LTYPE
  5
5
330
0
100
AcDbSymbolTable
 70
    4
  0
LTYPE
  5
14
330
5
100
AcDbSymbolTableRecord
100
AcDbLinetypeTableRecord
  2
ByBlock
 70
    0
  3

 72
   65
 73
    0
 40
0
  0
LTYPE
  5
15
330
5
100
AcDbSymbolTableRecord
100
AcDbLinetypeTableRecord
  2
ByLayer
 70
    0
  3

 72
   65
 73
    0
 40
0
  0
LTYPE
  5
16
330
5
100
AcDbSymbolTableRecord
100
AcDbLinetypeTableRecord
  2
Continuous
 70
    0
  3
Solid line
 72
   65
 73
    0
 40
0
  0
LTYPE
  5
32
330
5
100
AcDbSymbolTableRecord
100
AcDbLinetypeTableRecord
  2
DOT
 70
    0
  3
Dot . . . . . . . . . . . . . . . . . . . . . .
 72
   65
 73
    2
 40
6.35
 49
0
 74
    0
 49
-6.35
 74
    0
  0
LTYPE
  5
33
330
5
100
AcDbSymbolTableRecord
100
AcDbLinetypeTableRecord
  2
DOTTINY
 70
    0
  3
Dot (.15x) .....................................
 72
   65
 73
    2
 40
0.9525
 49
0
 74
    0
 49
-0.9525
 74
    0
  0
LTYPE
  5
34
330
5
100
AcDbSymbolTableRecord
100
AcDbLinetypeTableRecord
  2
DOT2
 70
    0
  3
Dot (.5x) .....................................
 72
   65
 73
    2
 40
3.175
 49
0
 74
    0
 49
-3.175
 74
    0
  0
LTYPE
  5
35
330
5
100
AcDbSymbolTableRecord
100
AcDbLinetypeTableRecord
  2
DOTX2
 70
    0
  3
Dot (2x) .  .  .  .  .  .  .  .  .  .  .  .  .
 72
   65
 73
    2
 40
12.7
 49
0
 74
    0
 49
-12.7
 74
    0
  0
LTYPE
  5
36
330
5
100
AcDbSymbolTableRecord
100
AcDbLinetypeTableRecord
  2
DASHED
 70
    0
  3
Dashed _ _ _ _ _ _ _ _ _ _ _ _ _ _ _ _ _
 72
   65
 73
    2
 40
19.05
 49
12.7
 74
    0
 49
-6.35
 74
    0
  0
LTYPE
  5
37
330
5
100
AcDbSymbolTableRecord
100
AcDbLinetypeTableRecord
  2
DASHEDTINY
 70
    0
  3
Dashed (.15x) _ _ _ _ _ _ _ _ _ _ _ _ _ _ _ _ _
 72
   65
 73
    2
 40
2.8575
 49
1.905
 74
    0
 49
-0.9525
 74
    0
  0
LTYPE
  5
38
330
5
100
AcDbSymbolTableRecord
100
AcDbLinetypeTableRecord
  2
DASHED2
 70
    0
  3
Dashed (.5x) _ _ _ _ _ _ _ _ _ _ _ _ _ _ _ _ _
 72
   65
 73
    2
 40
9.524999999999999
 49
6.35
 74
    0
 49
-3.175
 74
    0
  0
LTYPE
  5
39
330
5
100
AcDbSymbolTableRecord
100
AcDbLinetypeTableRecord
  2
DASHEDX2
 70
    0
  3
Dashed (2x) ____  ____  ____  ____  ____  ___
 72
   65
 73
    2
 40
38.09999999999999
 49
25.4
 74
    0
 49
-12.7
 74
    0
  0
LTYPE
  5
3A
330
5
100
AcDbSymbolTableRecord
100
AcDbLinetypeTableRecord
  2
DASHDOT
 70
    0
  3
Dash dot __ . __ . __ . __ . __ . __ . __ . __
 72
   65
 73
    4
 40
25.4
 49
12.7
 74
    0
 49
-6.35
 74
    0
 49
0
 74
    0
 49
-6.35
 74
    0
  0
LTYPE
  5
3B
330
5
100
AcDbSymbolTableRecord
100
AcDbLinetypeTableRecord
  2
DASHDOTTINY
 70
    0
  3
Dash dot (.15x) _._._._._._._._._._._._._._._.
 72
   65
 73
    4
 40
3.81
 49
1.905
 74
    0
 49
-0.9525
 74
    0
 49
0
 74
    0
 49
-0.9525
 74
    0
  0
LTYPE
  5
3C
330
5
100
AcDbSymbolTableRecord
100
AcDbLinetypeTableRecord
  2
DASHDOT2
 70
    0
  3
Dash dot (.5x) _._._._._._._._._._._._._._._.
 72
   65
 73
    4
 40
12.7
 49
6.35
 74
    0
 49
-3.175
 74
    0
 49
0
 74
    0
 49
-3.175
 74
    0
  0
LTYPE
  5
3D
330
5
100
AcDbSymbolTableRecord
100
AcDbLinetypeTableRecord
  2
DASHDOTX2
 70
    0
  3
Dash dot (2x) ____  .  ____  .  ____  .  ___
 72
   65
 73
    4
 40
50.8
 49
25.4
 74
    0
 49
-12.7
 74
    0
 49
0
 74
    0
 49
-12.7
 74
    0
  0
LTYPE
  5
3E
330
5
100
AcDbSymbolTableRecord
100
AcDbLinetypeTableRecord
  2
DIVIDE
 70
    0
  3
Divide ____ . . ____ . . ____ . . ____ . . ____
 72
   65
 73
    6
 40
31.75
 49
12.7
 74
    0
 49
-6.35
 74
    0
 49
0
 74
    0
 49
-6.35
 74
    0
 49
0
 74
    0
 49
-6.35
 74
    0
  0
LTYPE
  5
3F
330
5
100
AcDbSymbolTableRecord
100
AcDbLinetypeTableRecord
  2
DIVIDETINY
 70
    0
  3
Divide (.15x) __..__..__..__..__..__..__..__.._
 72
   65
 73
    6
 40
4.7625
 49
1.905
 74
    0
 49
-0.9525
 74
    0
 49
0
 74
    0
 49
-0.9525
 74
    0
 49
0
 74
    0
 49
-0.9525
 74
    0
  0
LTYPE
  5
40
330
5
100
AcDbSymbolTableRecord
100
AcDbLinetypeTableRecord
  2
DIVIDE2
 70
    0
  3
Divide (.5x) __..__..__..__..__..__..__..__.._
 72
   65
 73
    6
 40
15.875
 49
6.35
 74
    0
 49
-3.175
 74
    0
 49
0
 74
    0
 49
-3.175
 74
    0
 49
0
 74
    0
 49
-3.175
 74
    0
  0
LTYPE
  5
41
330
5
100
AcDbSymbolTableRecord
100
AcDbLinetypeTableRecord
  2
DIVIDEX2
 70
    0
  3
Divide (2x) ________  .  .  ________  .  .  _
 72
   65
 73
    6
 40
63.5
 49
25.4
 74
    0
 49
-12.7
 74
    0
 49
0
 74
    0
 49
-12.7
 74
    0
 49
0
 74
    0
 49
-12.7
 74
    0
  0
LTYPE
  5
42
330
5
100
AcDbSymbolTableRecord
100
AcDbLinetypeTableRecord
  2
BORDER
 70
    0
  3
Border __ __ . __ __ . __ __ . __ __ . __ __ .
 72
   65
 73
    6
 40
44.45
 49
12.7
 74
    0
 49
-6.35
 74
    0
 49
12.7
 74
    0
 49
-6.35
 74
    0
 49
0
 74
    0
 49
-6.35
 74
    0
  0
LTYPE
  5
43
330
5
100
AcDbSymbolTableRecord
100
AcDbLinetypeTableRecord
  2
BORDERTINY
 70
    0
  3
Border (.15x) __.__.__.__.__.__.__.__.__.__.__.
 72
   65
 73
    6
 40
6.6675
 49
1.905
 74
    0
 49
-0.9525
 74
    0
 49
1.905
 74
    0
 49
-0.9525
 74
    0
 49
0
 74
    0
 49
-0.9525
 74
    0
  0
LTYPE
  5
44
330
5
100
AcDbSymbolTableRecord
100
AcDbLinetypeTableRecord
  2
BORDER2
 70
    0
  3
Border (.5x) __.__.__.__.__.__.__.__.__.__.__.
 72
   65
 73
    6
 40
22.225
 49
6.35
 74
    0
 49
-3.175
 74
    0
 49
6.35
 74
    0
 49
-3.175
 74
    0
 49
0
 74
    0
 49
-3.175
 74
    0
  0
LTYPE
  5
45
330
5
100
AcDbSymbolTableRecord
100
AcDbLinetypeTableRecord
  2
BORDERX2
 70
    0
  3
Border (2x) ____  ____  .  ____  ____  .  ___
 72
   65
 73
    6
 40
88.89999999999999
 49
25.4
 74
    0
 49
-12.7
 74
    0
 49
25.4
 74
    0
 49
-12.7
 74
    0
 49
0
 74
    0
 49
-12.7
 74
    0
  0
LTYPE
  5
46
330
5
100
AcDbSymbolTableRecord
100
AcDbLinetypeTableRecord
  2
CENTER
 70
    0
  3
Center ____ _ ____ _ ____ _ ____ _ ____ _ ____
 72
   65
 73
    4
 40
50.8
 49
31.75
 74
    0
 49
-6.35
 74
    0
 49
6.35
 74
    0
 49
-6.35
 74
    0
  0
LTYPE
  5
47
330
5
100
AcDbSymbolTableRecord
100
AcDbLinetypeTableRecord
  2
CENTERTINY
 70
    0
  3
Center (.15x) ___ _ ___ _ ___ _ ___ _ ___ _ ___
 72
   65
 73
    4
 40
7.619999999999999
 49
4.7625
 74
    0
 49
-0.9525
 74
    0
 49
0.9525
 74
    0
 49
-0.9525
 74
    0
  0
LTYPE
  5
48
330
5
100
AcDbSymbolTableRecord
100
AcDbLinetypeTableRecord
  2
CENTER2
 70
    0
  3
Center (.5x) ___ _ ___ _ ___ _ ___ _ ___ _ ___
 72
   65
 73
    4
 40
28.575
 49
19.05
 74
    0
 49
-3.175
 74
    0
 49
3.175
 74
    0
 49
-3.175
 74
    0
  0
LTYPE
  5
49
330
5
100
AcDbSymbolTableRecord
100
AcDbLinetypeTableRecord
  2
CENTERX2
 70
    0
  3
Center (2x) ________  __  ________  __  _____
 72
   65
 73
    4
 40
101.6
 49
63.5
 74
    0
 49
-12.7
 74
    0
 49
12.7
 74
    0
 49
-12.7
 74
    0
  0
ENDTAB
  0
TABLE
  2
LAYER
  5
2
330
0
100
AcDbSymbolTable
 70
    1
  0
LAYER
  5
10
330
2
100
AcDbSymbolTableRecord
100
AcDbLayerTableRecord
  2
0
 70
    1
 62
    7
  6
CONTINUOUS
370
    0
390
F
  0
LAYER
  5
4A
330
2
100
AcDbSymbolTableRecord
100
AcDbLayerTableRecord
  2
Cotas
 70
    0
 62
    2
  6
CONTINUOUS
370
   50
390
F
  0
LAYER
  5
4B
330
2
100
AcDbSymbolTableRecord
100
AcDbLayerTableRecord
  2
Dibujo
 70
    0
 62
   96
420
32768
  6
CONTINUOUS
370
  100
390
F
  0
LAYER
  5
4C
330
2
100
AcDbSymbolTableRecord
100
AcDbLayerTableRecord
  2
Texto
 70
    0
 62
    4
  6
CONTINUOUS
370
   35
390
F
  0
ENDTAB
  0
TABLE
  2
STYLE
  5
3
330
0
100
AcDbSymbolTable
 70
    3
  0
STYLE
  5
4D
330
2
100
AcDbSymbolTableRecord
100
AcDbTextStyleTableRecord
  2
STANDARD
 70
    0
 40
0
 41
1
 50
0
 71
    0
 42
1
  3
STANDARD
  4

  0
ENDTAB
  0
TABLE
  2
VIEW
  5
6
330
0
100
AcDbSymbolTable
 70
    0
  0
ENDTAB
  0
TABLE
  2
UCS
  5
7
330
0
100
AcDbSymbolTable
 70
    0
  0
ENDTAB
  0
TABLE
  2
APPID
  5
9
330
0
100
AcDbSymbolTable
 70
    1
  0
APPID
  5
12
330
9
100
AcDbSymbolTableRecord
100
AcDbRegAppTableRecord
  2
ACAD
 70
    0
  0
APPID
  5
4E
330
9
100
AcDbSymbolTableRecord
100
AcDbRegAppTableRecord
  2
LibreCad
 70
    0
  0
ENDTAB
  0
TABLE
  2
DIMSTYLE
  5
A
330
0
100
AcDbSymbolTable
 70
    1
100
AcDbDimStyleTable
 71
    1
  0
DIMSTYLE
105
4F
330
A
100
AcDbSymbolTableRecord
100
AcDbDimStyleTableRecord
  2
Standard
 70
    0
 40
1
 41
3
 42
0.625
 43
0.38
 44
1.25
 45
0
 46
0
 47
0
 48
0
 49
1
140
4
141
0.09
142
0
143
25.4
144
1
145
0
146
1
147
0.625
148
0
 71
    0
 72
    0
 73
    0
 74
    1
 75
    0
 76
    0
 77
    0
 78
    8
 79
    0
170
    0
171
    2
172
    0
173
    0
174
    0
175
    0
176
    0
177
    0
178
    0
179
    0
271
    2
272
    4
273
    2
274
    2
275
    0
276
    0
277
    2
278
   44
279
    0
280
    0
281
    0
282
    0
283
    1
284
    0
285
    0
286
    0
288
    0
289
    3
340
standard
341

371
   -2
372
   -2
  0
ENDTAB
  0
TABLE
  2
BLOCK_RECORD
  5
1
330
0
100
AcDbSymbolTable
 70
    2
  0
BLOCK_RECORD
  5
1F
330
1
100
AcDbSymbolTableRecord
100
AcDbBlockTableRecord
  2
*Model_Space
 70
    0
280
    1
281
    0
  0
BLOCK_RECORD
  5
1E
330
1
100
AcDbSymbolTableRecord
100
AcDbBlockTableRecord
  2
*Paper_Space
 70
    0
280
    1
281
    0
  0
BLOCK_RECORD
  5
50
330
1
100
AcDbSymbolTableRecord
100
AcDbBlockTableRecord
  2
*D20
 70
    0
280
    1
281
    0
  0
BLOCK_RECORD
  5
53
330
1
100
AcDbSymbolTableRecord
100
AcDbBlockTableRecord
  2
*D19
 70
    0
280
    1
281
    0
  0
BLOCK_RECORD
  5
56
330
1
100
AcDbSymbolTableRecord
100
AcDbBlockTableRecord
  2
*D30
 70
    0
280
    1
281
    0
  0
BLOCK_RECORD
  5
59
330
1
100
AcDbSymbolTableRecord
100
AcDbBlockTableRecord
  2
*D49
 70
    0
280
    1
281
    0
  0
BLOCK_RECORD
  5
5C
330
1
100
AcDbSymbolTableRecord
100
AcDbBlockTableRecord
  2
*D1
 70
    0
280
    1
281
    0
  0
BLOCK_RECORD
  5
5F
330
1
100
AcDbSymbolTableRecord
100
AcDbBlockTableRecord
  2
*D16
 70
    0
280
    1
281
    0
  0
BLOCK_RECORD
  5
62
330
1
100
AcDbSymbolTableRecord
100
AcDbBlockTableRecord
  2
*D51
 70
    0
280
    1
281
    0
  0
BLOCK_RECORD
  5
65
330
1
100
AcDbSymbolTableRecord
100
AcDbBlockTableRecord
  2
*D26
 70
    0
280
    1
281
    0
  0
BLOCK_RECORD
  5
68
330
1
100
AcDbSymbolTableRecord
100
AcDbBlockTableRecord
  2
*D4
 70
    0
280
    1
281
    0
  0
BLOCK_RECORD
  5
6B
330
1
100
AcDbSymbolTableRecord
100
AcDbBlockTableRecord
  2
*D39
 70
    0
280
    1
281
    0
  0
BLOCK_RECORD
  5
6E
330
1
100
AcDbSymbolTableRecord
100
AcDbBlockTableRecord
  2
*D43
 70
    0
280
    1
281
    0
  0
BLOCK_RECORD
  5
71
330
1
100
AcDbSymbolTableRecord
100
AcDbBlockTableRecord
  2
*D34
 70
    0
280
    1
281
    0
  0
BLOCK_RECORD
  5
74
330
1
100
AcDbSymbolTableRecord
100
AcDbBlockTableRecord
  2
*D18
 70
    0
280
    1
281
    0
  0
BLOCK_RECORD
  5
77
330
1
100
AcDbSymbolTableRecord
100
AcDbBlockTableRecord
  2
*D25
 70
    0
280
    1
281
    0
  0
BLOCK_RECORD
  5
7A
330
1
100
AcDbSymbolTableRecord
100
AcDbBlockTableRecord
  2
*D47
 70
    0
280
    1
281
    0
  0
BLOCK_RECORD
  5
7D
330
1
100
AcDbSymbolTableRecord
100
AcDbBlockTableRecord
  2
*D54
 70
    0
280
    1
281
    0
  0
BLOCK_RECORD
  5
80
330
1
100
AcDbSymbolTableRecord
100
AcDbBlockTableRecord
  2
*D15
 70
    0
280
    1
281
    0
  0
BLOCK_RECORD
  5
83
330
1
100
AcDbSymbolTableRecord
100
AcDbBlockTableRecord
  2
*D10
 70
    0
280
    1
281
    0
  0
BLOCK_RECORD
  5
86
330
1
100
AcDbSymbolTableRecord
100
AcDbBlockTableRecord
  2
*D21
 70
    0
280
    1
281
    0
  0
BLOCK_RECORD
  5
89
330
1
100
AcDbSymbolTableRecord
100
AcDbBlockTableRecord
  2
*D33
 70
    0
280
    1
281
    0
  0
BLOCK_RECORD
  5
8C
330
1
100
AcDbSymbolTableRecord
100
AcDbBlockTableRecord
  2
*D6
 70
    0
280
    1
281
    0
  0
BLOCK_RECORD
  5
8F
330
1
100
AcDbSymbolTableRecord
100
AcDbBlockTableRecord
  2
*D8
 70
    0
280
    1
281
    0
  0
BLOCK_RECORD
  5
92
330
1
100
AcDbSymbolTableRecord
100
AcDbBlockTableRecord
  2
*D27
 70
    0
280
    1
281
    0
  0
BLOCK_RECORD
  5
95
330
1
100
AcDbSymbolTableRecord
100
AcDbBlockTableRecord
  2
*D32
 70
    0
280
    1
281
    0
  0
BLOCK_RECORD
  5
98
330
1
100
AcDbSymbolTableRecord
100
AcDbBlockTableRecord
  2
*D38
 70
    0
280
    1
281
    0
  0
BLOCK_RECORD
  5
9B
330
1
100
AcDbSymbolTableRecord
100
AcDbBlockTableRecord
  2
*D5
 70
    0
280
    1
281
    0
  0
BLOCK_RECORD
  5
9E
330
1
100
AcDbSymbolTableRecord
100
AcDbBlockTableRecord
  2
*D23
 70
    0
280
    1
281
    0
  0
BLOCK_RECORD
  5
A1
330
1
100
AcDbSymbolTableRecord
100
AcDbBlockTableRecord
  2
*D17
 70
    0
280
    1
281
    0
  0
BLOCK_RECORD
  5
A4
330
1
100
AcDbSymbolTableRecord
100
AcDbBlockTableRecord
  2
*D53
 70
    0
280
    1
281
    0
  0
BLOCK_RECORD
  5
A7
330
1
100
AcDbSymbolTableRecord
100
AcDbBlockTableRecord
  2
*D35
 70
    0
280
    1
281
    0
  0
BLOCK_RECORD
  5
AA
330
1
100
AcDbSymbolTableRecord
100
AcDbBlockTableRecord
  2
*D28
 70
    0
280
    1
281
    0
  0
BLOCK_RECORD
  5
AD
330
1
100
AcDbSymbolTableRecord
100
AcDbBlockTableRecord
  2
*D48
 70
    0
280
    1
281
    0
  0
BLOCK_RECORD
  5
B0
330
1
100
AcDbSymbolTableRecord
100
AcDbBlockTableRecord
  2
*D29
 70
    0
280
    1
281
    0
  0
BLOCK_RECORD
  5
B3
330
1
100
AcDbSymbolTableRecord
100
AcDbBlockTableRecord
  2
*D36
 70
    0
280
    1
281
    0
  0
BLOCK_RECORD
  5
B6
330
1
100
AcDbSymbolTableRecord
100
AcDbBlockTableRecord
  2
*D46
 70
    0
280
    1
281
    0
  0
BLOCK_RECORD
  5
B9
330
1
100
AcDbSymbolTableRecord
100
AcDbBlockTableRecord
  2
*D56
 70
    0
280
    1
281
    0
  0
BLOCK_RECORD
  5
BC
330
1
100
AcDbSymbolTableRecord
100
AcDbBlockTableRecord
  2
*D42
 70
    0
280
    1
281
    0
  0
BLOCK_RECORD
  5
BF
330
1
100
AcDbSymbolTableRecord
100
AcDbBlockTableRecord
  2
*D22
 70
    0
280
    1
281
    0
  0
BLOCK_RECORD
  5
C2
330
1
100
AcDbSymbolTableRecord
100
AcDbBlockTableRecord
  2
*D41
 70
    0
280
    1
281
    0
  0
BLOCK_RECORD
  5
C5
330
1
100
AcDbSymbolTableRecord
100
AcDbBlockTableRecord
  2
*D11
 70
    0
280
    1
281
    0
  0
BLOCK_RECORD
  5
C8
330
1
100
AcDbSymbolTableRecord
100
AcDbBlockTableRecord
  2
*D24
 70
    0
280
    1
281
    0
  0
BLOCK_RECORD
  5
CB
330
1
100
AcDbSymbolTableRecord
100
AcDbBlockTableRecord
  2
*D14
 70
    0
280
    1
281
    0
  0
BLOCK_RECORD
  5
CE
330
1
100
AcDbSymbolTableRecord
100
AcDbBlockTableRecord
  2
*D12
 70
    0
280
    1
281
    0
  0
BLOCK_RECORD
  5
D1
330
1
100
AcDbSymbolTableRecord
100
AcDbBlockTableRecord
  2
*D13
 70
    0
280
    1
281
    0
  0
BLOCK_RECORD
  5
D4
330
1
100
AcDbSymbolTableRecord
100
AcDbBlockTableRecord
  2
*D52
 70
    0
280
    1
281
    0
  0
BLOCK_RECORD
  5
D7
330
1
100
AcDbSymbolTableRecord
100
AcDbBlockTableRecord
  2
*D3
 70
    0
280
    1
281
    0
  0
BLOCK_RECORD
  5
DA
330
1
100
AcDbSymbolTableRecord
100
AcDbBlockTableRecord
  2
*D44
 70
    0
280
    1
281
    0
  0
BLOCK_RECORD
  5
DD
330
1
100
AcDbSymbolTableRecord
100
AcDbBlockTableRecord
  2
*D31
 70
    0
280
    1
281
    0
  0
BLOCK_RECORD
  5
E0
330
1
100
AcDbSymbolTableRecord
100
AcDbBlockTableRecord
  2
*D45
 70
    0
280
    1
281
    0
  0
BLOCK_RECORD
  5
E3
330
1
100
AcDbSymbolTableRecord
100
AcDbBlockTableRecord
  2
*D7
 70
    0
280
    1
281
    0
  0
BLOCK_RECORD
  5
E6
330
1
100
AcDbSymbolTableRecord
100
AcDbBlockTableRecord
  2
*D37
 70
    0
280
    1
281
    0
  0
BLOCK_RECORD
  5
E9
330
1
100
AcDbSymbolTableRecord
100
AcDbBlockTableRecord
  2
*D2
 70
    0
280
    1
281
    0
  0
BLOCK_RECORD
  5
EC
330
1
100
AcDbSymbolTableRecord
100
AcDbBlockTableRecord
  2
*D55
 70
    0
280
    1
281
    0
  0
BLOCK_RECORD
  5
EF
330
1
100
AcDbSymbolTableRecord
100
AcDbBlockTableRecord
  2
*D50
 70
    0
280
    1
281
    0
  0
BLOCK_RECORD
  5
F2
330
1
100
AcDbSymbolTableRecord
100
AcDbBlockTableRecord
  2
*D9
 70
    0
280
    1
281
    0
  0
BLOCK_RECORD
  5
F5
330
1
100
AcDbSymbolTableRecord
100
AcDbBlockTableRecord
  2
*D40
 70
    0
280
    1
281
    0
  0
ENDTAB
  0
ENDSEC
  0
SECTION
  2
BLOCKS
  0
BLOCK
  5
20
330
1F
100
AcDbEntity
  8
0
100
AcDbBlockBegin
  2
*Model_Space
 70
    0
 10
0
 20
0
 30
0
  3
*Model_Space
  1

  0
ENDBLK
  5
21
330
1F
100
AcDbEntity
  8
0
100
AcDbBlockEnd
  0
BLOCK
  5
1C
330
1B
100
AcDbEntity
  8
0
100
AcDbBlockBegin
  2
*Paper_Space
 70
    0
 10
0
 20
0
 30
0
  3
*Paper_Space
  1

  0
ENDBLK
  5
1D
330
1F
100
AcDbEntity
  8
0
100
AcDbBlockEnd
  0
BLOCK
  5
51
330
50
100
AcDbEntity
  8
0
100
AcDbBlockBegin
  2
*D20
 70
    1
 10
0
 20
0
  3
*D20
  1

  0
LINE
  5
F8
100
AcDbEntity
  8
Cotas
  6
ByBlock
 62
    0
370
   -2
100
AcDbLine
 10
140
 20
-60
 11
140
 21
-40
  0
MTEXT
  5
F9
100
AcDbEntity
  8
Cotas
  6
CONTINUOUS
 62
    0
370
   -2
100
AcDbMText
 10
137.375
 20
-50
 30
0
 40
4
 41
4.888888888888888
 71
    5
 72
    1
  1
20
  7
standard
210
0
220
0
230
1
 50
90
 73
    2
 44
1
  0
SOLID
  5
FA
100
AcDbEntity
  8
Cotas
  6
ByBlock
 62
    0
370
   -2
100
AcDbTrace
 10
140
 20
-60
 30
0
 11
139.5004584106726
 21
-57
 31
0
 12
140.4995415893274
 22
-57
 32
0
 13
140.4995415893274
 23
-57
 33
0
  0
SOLID
  5
FB
100
AcDbEntity
  8
Cotas
  6
ByBlock
 62
    0
370
   -2
100
AcDbTrace
 10
140
 20
-40
 30
0
 11
140.4995415893274
 21
-43
 31
0
 12
139.5004584106726
 22
-43
 32
0
 13
139.5004584106726
 23
-43
 33
0
  0
LINE
  5
FC
100
AcDbEntity
  8
Cotas
  6
ByBlock
 62
    0
370
   -2
100
AcDbLine
 10
149.375
 20
-60
 11
138.75
 21
-60
  0
LINE
  5
FD
100
AcDbEntity
  8
Cotas
  6
ByBlock
 62
    0
370
   -2
100
AcDbLine
 10
169.375
 20
-40
 11
138.75
 21
-40
  0
ENDBLK
  5
52
330
50
100
AcDbEntity
  8
0
100
AcDbBlockEnd
  0
BLOCK
  5
54
330
53
100
AcDbEntity
  8
0
100
AcDbBlockBegin
  2
*D19
 70
    1
 10
0
 20
0
  3
*D19
  1

  0
LINE
  5
FE
100
AcDbEntity
  8
Cotas
  6
ByBlock
 62
    0
370
   -2
100
AcDbLine
 10
150
 20
-30
 11
170
 21
-30
  0
MTEXT
  5
FF
100
AcDbEntity
  8
Cotas
  6
CONTINUOUS
 62
    0
370
   -2
100
AcDbMText
 10
160
 20
-27.375
 30
0
 40
4
 41
4.888888888888888
 71
    5
 72
    1
  1
20
  7
standard
210
0
220
0
230
1
 50
0
 73
    2
 44
1
  0
SOLID
  5
100
100
AcDbEntity
  8
Cotas
  6
ByBlock
 62
    0
370
   -2
100
AcDbTrace
 10
150
 20
-30
 30
0
 11
153
 21
-29.50045841067259
 31
0
 12
153
 22
-30.49954158932741
 32
0
 13
153
 23
-30.49954158932741
 33
0
  0
SOLID
  5
101
100
AcDbEntity
  8
Cotas
  6
ByBlock
 62
    0
370
   -2
100
AcDbTrace
 10
170
 20
-30
 30
0
 11
167
 21
-30.49954158932741
 31
0
 12
167
 22
-29.50045841067259
 32
0
 13
167
 23
-29.50045841067259
 33
0
  0
LINE
  5
102
100
AcDbEntity
  8
Cotas
  6
ByBlock
 62
    0
370
   -2
100
AcDbLine
 10
150
 20
-59.375
 11
150
 21
-28.75
  0
LINE
  5
103
100
AcDbEntity
  8
Cotas
  6
ByBlock
 62
    0
370
   -2
100
AcDbLine
 10
170
 20
-39.375
 11
170
 21
-28.75
  0
ENDBLK
  5
55
330
53
100
AcDbEntity
  8
0
100
AcDbBlockEnd
  0
BLOCK
  5
57
330
56
100
AcDbEntity
  8
0
100
AcDbBlockBegin
  2
*D30
 70
    1
 10
0
 20
0
  3
*D30
  1

  0
LINE
  5
104
100
AcDbEntity
  8
Cotas
  6
ByBlock
 62
    0
370
   -2
100
AcDbLine
 10
270
 20
-51
 11
270
 21
-34
  0
MTEXT
  5
105
100
AcDbEntity
  8
Cotas
  6
CONTINUOUS
 62
    0
370
   -2
100
AcDbMText
 10
267.375
 20
-42.5
 30
0
 40
4
 41
1.777777777778026
 71
    5
 72
    1
  1
5
  7
standard
210
0
220
0
230
1
 50
90
 73
    2
 44
1
  0
SOLID
  5
106
100
AcDbEntity
  8
Cotas
  6
ByBlock
 62
    0
370
   -2
100
AcDbTrace
 10
270
 20
-45
 30
0
 11
270.4995415893274
 21
-48
 31
0
 12
269.5004584106726
 22
-48
 32
0
 13
269.5004584106726
 23
-48
 33
0
  0
SOLID
  5
107
100
AcDbEntity
  8
Cotas
  6
ByBlock
 62
    0
370
   -2
100
AcDbTrace
 10
270
 20
-40
 30
0
 11
269.5004584106726
 21
-37
 31
0
 12
270.4995415893274
 22
-37
 32
0
 13
270.4995415893274
 23
-37
 33
0
  0
LINE
  5
108
100
AcDbEntity
  8
Cotas
  6
ByBlock
 62
    0
370
   -2
100
AcDbLine
 10
260.625
 20
-45
 11
271.25
 21
-45
  0
LINE
  5
109
100
AcDbEntity
  8
Cotas
  6
ByBlock
 62
    0
370
   -2
100
AcDbLine
 10
245.625
 20
-40
 11
271.25
 21
-40
  0
ENDBLK
  5
58
330
56
100
AcDbEntity
  8
0
100
AcDbBlockEnd
  0
BLOCK
  5
5A
330
59
100
AcDbEntity
  8
0
100
AcDbBlockBegin
  2
*D49
 70
    1
 10
0
 20
0
  3
*D49
  1

  0
LINE
  5
10A
100
AcDbEntity
  8
Cotas
  6
ByBlock
 62
    0
370
   -2
100
AcDbLine
 10
503
 20
50.16439201416947
 11
503
 21
80.78939201416947
  0
LINE
  5
10B
100
AcDbEntity
  8
Cotas
  6
ByBlock
 62
    0
370
   -2
100
AcDbLine
 10
603
 20
50.16439201416947
 11
603
 21
80.78939201416947
  0
LINE
  5
10C
100
AcDbEntity
  8
Cotas
  6
ByBlock
 62
    0
370
   -2
100
AcDbLine
 10
503
 20
79.53939201416947
 11
603
 21
79.53939201416947
  0
MTEXT
  5
10D
100
AcDbEntity
  8
Cotas
  6
CONTINUOUS
 62
    0
370
   -2
100
AcDbMText
 10
553
 20
82.16439201416947
 30
0
 40
4
 41
7.111111111111111
 71
    5
 72
    1
  1
100
  7
standard
210
0
220
0
230
1
 50
0
 73
    2
 44
1
  0
SOLID
  5
10E
100
AcDbEntity
  8
Cotas
  6
ByBlock
 62
    0
370
   -2
100
AcDbTrace
 10
503
 20
79.53939201416947
 30
0
 11
506
 21
80.03893360349687
 31
0
 12
506
 22
79.03985042484206
 32
0
 13
506
 23
79.03985042484206
 33
0
  0
SOLID
  5
10F
100
AcDbEntity
  8
Cotas
  6
ByBlock
 62
    0
370
   -2
100
AcDbTrace
 10
603
 20
79.53939201416947
 30
0
 11
600
 21
79.03985042484206
 31
0
 12
600
 22
80.03893360349687
 32
0
 13
600
 23
80.03893360349687
 33
0
  0
ENDBLK
  5
5B
330
59
100
AcDbEntity
  8
0
100
AcDbBlockEnd
  0
BLOCK
  5
5D
330
5C
100
AcDbEntity
  8
0
100
AcDbBlockBegin
  2
*D1
 70
    1
 10
0
 20
0
  3
*D1
  1

  0
LINE
  5
110
100
AcDbEntity
  8
Cotas
  6
ByBlock
 62
    0
370
   -2
100
AcDbLine
 10
80.625
 20
0
 11
91.25
 21
0
  0
LINE
  5
111
100
AcDbEntity
  8
Cotas
  6
ByBlock
 62
    0
370
   -2
100
AcDbLine
 10
80.625
 20
60
 11
91.25
 21
60
  0
LINE
  5
112
100
AcDbEntity
  8
Cotas
  6
ByBlock
 62
    0
370
   -2
100
AcDbLine
 10
90
 20
0
 11
90
 21
60
  0
MTEXT
  5
113
100
AcDbEntity
  8
Cotas
  6
CONTINUOUS
 62
    0
370
   -2
100
AcDbMText
 10
87.375
 20
30
 30
0
 40
4
 41
4.888888888889136
 71
    5
 72
    1
  1
60
  7
standard
210
0
220
0
230
1
 50
90
 73
    2
 44
1
  0
SOLID
  5
114
100
AcDbEntity
  8
Cotas
  6
ByBlock
 62
    0
370
   -2
100
AcDbTrace
 10
90
 20
0
 30
0
 11
89.50045841067259
 21
3
 31
0
 12
90.49954158932741
 22
3
 32
0
 13
90.49954158932741
 23
3
 33
0
  0
SOLID
  5
115
100
AcDbEntity
  8
Cotas
  6
ByBlock
 62
    0
370
   -2
100
AcDbTrace
 10
90
 20
60
 30
0
 11
90.49954158932741
 21
57
 31
0
 12
89.50045841067259
 22
57
 32
0
 13
89.50045841067259
 23
57
 33
0
  0
ENDBLK
  5
5E
330
5C
100
AcDbEntity
  8
0
100
AcDbBlockEnd
  0
BLOCK
  5
60
330
5F
100
AcDbEntity
  8
0
100
AcDbBlockBegin
  2
*D16
 70
    1
 10
0
 20
0
  3
*D16
  1

  0
LINE
  5
116
100
AcDbEntity
  8
Cotas
  6
ByBlock
 62
    0
370
   -2
100
AcDbLine
 10
260.625
 20
90
 11
271.25
 21
90
  0
LINE
  5
117
100
AcDbEntity
  8
Cotas
  6
ByBlock
 62
    0
370
   -2
100
AcDbLine
 10
260.625
 20
70
 11
271.25
 21
70
  0
LINE
  5
118
100
AcDbEntity
  8
Cotas
  6
ByBlock
 62
    0
370
   -2
100
AcDbLine
 10
270
 20
90
 11
270
 21
70
  0
MTEXT
  5
119
100
AcDbEntity
  8
Cotas
  6
CONTINUOUS
 62
    0
370
   -2
100
AcDbMText
 10
267.375
 20
80
 30
0
 40
4
 41
4.888888888888888
 71
    5
 72
    1
  1
20
  7
standard
210
0
220
0
230
1
 50
90
 73
    2
 44
1
  0
SOLID
  5
11A
100
AcDbEntity
  8
Cotas
  6
ByBlock
 62
    0
370
   -2
100
AcDbTrace
 10
270
 20
90
 30
0
 11
270.4995415893274
 21
87
 31
0
 12
269.5004584106726
 22
87
 32
0
 13
269.5004584106726
 23
87
 33
0
  0
SOLID
  5
11B
100
AcDbEntity
  8
Cotas
  6
ByBlock
 62
    0
370
   -2
100
AcDbTrace
 10
270
 20
70
 30
0
 11
269.5004584106726
 21
73
 31
0
 12
270.4995415893274
 22
73
 32
0
 13
270.4995415893274
 23
73
 33
0
  0
ENDBLK
  5
61
330
5F
100
AcDbEntity
  8
0
100
AcDbBlockEnd
  0
BLOCK
  5
63
330
62
100
AcDbEntity
  8
0
100
AcDbBlockBegin
  2
*D51
 70
    1
 10
0
 20
0
  3
*D51
  1

  0
LINE
  5
11C
100
AcDbEntity
  8
Cotas
  6
ByBlock
 62
    0
370
   -2
100
AcDbLine
 10
533
 20
38.91439201416946
 11
533
 21
-1.710607985830542
  0
LINE
  5
11D
100
AcDbEntity
  8
Cotas
  6
ByBlock
 62
    0
370
   -2
100
AcDbLine
 10
573
 20
38.91439201416946
 11
573
 21
-1.710607985830542
  0
LINE
  5
11E
100
AcDbEntity
  8
Cotas
  6
ByBlock
 62
    0
370
   -2
100
AcDbLine
 10
533
 20
-0.4606079858305421
 11
573
 21
-0.4606079858305421
  0
MTEXT
  5
11F
100
AcDbEntity
  8
Cotas
  6
CONTINUOUS
 62
    0
370
   -2
100
AcDbMText
 10
553
 20
2.164392014169458
 30
0
 40
4
 41
5.333333333333333
 71
    5
 72
    1
  1
40
  7
standard
210
0
220
0
230
1
 50
0
 73
    2
 44
1
  0
SOLID
  5
120
100
AcDbEntity
  8
Cotas
  6
ByBlock
 62
    0
370
   -2
100
AcDbTrace
 10
533
 20
-0.4606079858305421
 30
0
 11
536
 21
0.0389336034968662
 31
0
 12
536
 22
-0.960149575157951
 32
0
 13
536
 23
-0.960149575157951
 33
0
  0
SOLID
  5
121
100
AcDbEntity
  8
Cotas
  6
ByBlock
 62
    0
370
   -2
100
AcDbTrace
 10
573
 20
-0.4606079858305421
 30
0
 11
570
 21
-0.9601495751579506
 31
0
 12
570
 22
0.03893360349686648
 32
0
 13
570
 23
0.03893360349686648
 33
0
  0
ENDBLK
  5
64
330
62
100
AcDbEntity
  8
0
100
AcDbBlockEnd
  0
BLOCK
  5
66
330
65
100
AcDbEntity
  8
0
100
AcDbBlockBegin
  2
*D26
 70
    1
 10
0
 20
0
  3
*D26
  1

  0
LINE
  5
122
100
AcDbEntity
  8
Cotas
  6
ByBlock
 62
    0
370
   -2
100
AcDbLine
 10
210
 20
-30
 11
240
 21
-30
  0
MTEXT
  5
123
100
AcDbEntity
  8
Cotas
  6
CONTINUOUS
 62
    0
370
   -2
100
AcDbMText
 10
225
 20
-27.375
 30
0
 40
4
 41
4.888888888889136
 71
    5
 72
    1
  1
30
  7
standard
210
0
220
0
230
1
 50
0
 73
    2
 44
1
  0
SOLID
  5
124
100
AcDbEntity
  8
Cotas
  6
ByBlock
 62
    0
370
   -2
100
AcDbTrace
 10
210
 20
-30
 30
0
 11
213
 21
-29.50045841067259
 31
0
 12
213
 22
-30.49954158932741
 32
0
 13
213
 23
-30.49954158932741
 33
0
  0
SOLID
  5
125
100
AcDbEntity
  8
Cotas
  6
ByBlock
 62
    0
370
   -2
100
AcDbTrace
 10
240
 20
-30
 30
0
 11
237
 21
-30.49954158932741
 31
0
 12
237
 22
-29.50045841067259
 32
0
 13
237
 23
-29.50045841067259
 33
0
  0
LINE
  5
126
100
AcDbEntity
  8
Cotas
  6
ByBlock
 62
    0
370
   -2
100
AcDbLine
 10
210
 20
-69.375
 11
210
 21
-28.75
  0
LINE
  5
127
100
AcDbEntity
  8
Cotas
  6
ByBlock
 62
    0
370
   -2
100
AcDbLine
 10
240
 20
-39.375
 11
240
 21
-28.75
  0
ENDBLK
  5
67
330
65
100
AcDbEntity
  8
0
100
AcDbBlockEnd
  0
BLOCK
  5
69
330
68
100
AcDbEntity
  8
0
100
AcDbBlockBegin
  2
*D4
 70
    1
 10
0
 20
0
  3
*D4
  1

  0
LINE
  5
128
100
AcDbEntity
  8
Cotas
  6
ByBlock
 62
    0
370
   -2
100
AcDbLine
 10
150
 20
-0.625
 11
150
 21
-11.25
  0
LINE
  5
129
100
AcDbEntity
  8
Cotas
  6
ByBlock
 62
    0
370
   -2
100
AcDbLine
 10
300
 20
-0.625
 11
300
 21
-11.25
  0
LINE
  5
12A
100
AcDbEntity
  8
Cotas
  6
ByBlock
 62
    0
370
   -2
100
AcDbLine
 10
150
 20
-10
 11
300
 21
-10
  0
MTEXT
  5
12B
100
AcDbEntity
  8
Cotas
  6
CONTINUOUS
 62
    0
370
   -2
100
AcDbMText
 10
225
 20
-7.375
 30
0
 40
4
 41
7.111111111111359
 71
    5
 72
    1
  1
150
  7
standard
210
0
220
0
230
1
 50
0
 73
    2
 44
1
  0
SOLID
  5
12C
100
AcDbEntity
  8
Cotas
  6
ByBlock
 62
    0
370
   -2
100
AcDbTrace
 10
150
 20
-10
 30
0
 11
153
 21
-9.500458410672591
 31
0
 12
153
 22
-10.49954158932741
 32
0
 13
153
 23
-10.49954158932741
 33
0
  0
SOLID
  5
12D
100
AcDbEntity
  8
Cotas
  6
ByBlock
 62
    0
370
   -2
100
AcDbTrace
 10
300
 20
-10
 30
0
 11
297
 21
-10.49954158932741
 31
0
 12
297
 22
-9.500458410672591
 32
0
 13
297
 23
-9.500458410672591
 33
0
  0
ENDBLK
  5
6A
330
68
100
AcDbEntity
  8
0
100
AcDbBlockEnd
  0
BLOCK
  5
6C
330
6B
100
AcDbEntity
  8
0
100
AcDbBlockBegin
  2
*D39
 70
    1
 10
0
 20
0
  3
*D39
  1

  0
SOLID
  5
12E
100
AcDbEntity
  8
Cotas
  6
ByBlock
 62
    0
370
   -2
100
AcDbTrace
 10
234.3933982822018
 20
-85.60660171779821
 30
0
 11
236.1614893804633
 21
-83.13205212894046
 31
0
 12
236.8679478710596
 22
-83.83851061953669
 32
0
 13
236.8679478710596
 23
-83.83851061953669
 33
0
  0
LINE
  5
12F
100
AcDbEntity
  8
Cotas
  6
ByBlock
 62
    0
370
   -2
100
AcDbLine
 10
245
 20
-75
 11
234.3933982822018
 21
-85.60660171779821
  0
MTEXT
  5
130
100
AcDbEntity
  8
Cotas
  6
CONTINUOUS
 62
    0
370
   -2
100
AcDbMText
 10
237.8405438404862
 20
-78.44714555828442
 30
0
 40
4
 41
4.000000000000248
 71
    5
 72
    1
  1
15
  7
standard
210
0
220
0
230
1
 50
45
 73
    2
 44
1
  0
ENDBLK
  5
6D
330
6B
100
AcDbEntity
  8
0
100
AcDbBlockEnd
  0
BLOCK
  5
6F
330
6E
100
AcDbEntity
  8
0
100
AcDbBlockBegin
  2
*D43
 70
    1
 10
0
 20
0
  3
*D43
  1

  0
LINE
  5
131
100
AcDbEntity
  8
Cotas
  6
ByBlock
 62
    0
370
   -2
100
AcDbLine
 10
383
 20
-18.46060798583054
 11
443
 21
-18.46060798583054
  0
MTEXT
  5
132
100
AcDbEntity
  8
Cotas
  6
CONTINUOUS
 62
    0
370
   -2
100
AcDbMText
 10
413
 20
-15.83560798583054
 30
0
 40
4
 41
4.888888888889136
 71
    5
 72
    1
  1
60
  7
standard
210
0
220
0
230
1
 50
0
 73
    2
 44
1
  0
SOLID
  5
133
100
AcDbEntity
  8
Cotas
  6
ByBlock
 62
    0
370
   -2
100
AcDbTrace
 10
383
 20
-18.46060798583054
 30
0
 11
386
 21
-17.96106639650313
 31
0
 12
386
 22
-18.96014957515795
 32
0
 13
386
 23
-18.96014957515795
 33
0
  0
SOLID
  5
134
100
AcDbEntity
  8
Cotas
  6
ByBlock
 62
    0
370
   -2
100
AcDbTrace
 10
443
 20
-18.46060798583054
 30
0
 11
440
 21
-18.96014957515795
 31
0
 12
440
 22
-17.96106639650313
 32
0
 13
440
 23
-17.96106639650313
 33
0
  0
LINE
  5
135
100
AcDbEntity
  8
Cotas
  6
ByBlock
 62
    0
370
   -2
100
AcDbLine
 10
383
 20
10.91439201416946
 11
383
 21
-19.71060798583054
  0
LINE
  5
136
100
AcDbEntity
  8
Cotas
  6
ByBlock
 62
    0
370
   -2
100
AcDbLine
 10
443
 20
10.91439201416946
 11
443
 21
-19.71060798583054
  0
ENDBLK
  5
70
330
6E
100
AcDbEntity
  8
0
100
AcDbBlockEnd
  0
BLOCK
  5
72
330
71
100
AcDbEntity
  8
0
100
AcDbBlockBegin
  2
*D34
 70
    1
 10
0
 20
0
  3
*D34
  1

  0
LINE
  5
137
100
AcDbEntity
  8
Cotas
  6
ByBlock
 62
    0
370
   -2
100
AcDbLine
 10
161
 20
-90
 11
144
 21
-90
  0
MTEXT
  5
138
100
AcDbEntity
  8
Cotas
  6
CONTINUOUS
 62
    0
370
   -2
100
AcDbMText
 10
152.5
 20
-87.375
 30
0
 40
4
 41
1.777777777778026
 71
    5
 72
    1
  1
5
  7
standard
210
0
220
0
230
1
 50
0
 73
    2
 44
1
  0
SOLID
  5
139
100
AcDbEntity
  8
Cotas
  6
ByBlock
 62
    0
370
   -2
100
AcDbTrace
 10
155
 20
-90
 30
0
 11
158
 21
-89.50045841067259
 31
0
 12
158
 22
-90.49954158932741
 32
0
 13
158
 23
-90.49954158932741
 33
0
  0
SOLID
  5
13A
100
AcDbEntity
  8
Cotas
  6
ByBlock
 62
    0
370
   -2
100
AcDbTrace
 10
150
 20
-90
 30
0
 11
147
 21
-90.49954158932741
 31
0
 12
147
 22
-89.50045841067259
 32
0
 13
147
 23
-89.50045841067259
 33
0
  0
LINE
  5
13B
100
AcDbEntity
  8
Cotas
  6
ByBlock
 62
    0
370
   -2
100
AcDbLine
 10
155
 20
-99.375
 11
155
 21
-88.75
  0
LINE
  5
13C
100
AcDbEntity
  8
Cotas
  6
ByBlock
 62
    0
370
   -2
100
AcDbLine
 10
150
 20
-104.375
 11
150
 21
-88.75
  0
ENDBLK
  5
73
330
71
100
AcDbEntity
  8
0
100
AcDbBlockEnd
  0
BLOCK
  5
75
330
74
100
AcDbEntity
  8
0
100
AcDbBlockBegin
  2
*D18
 70
    1
 10
0
 20
0
  3
*D18
  1

  0
LINE
  5
13D
100
AcDbEntity
  8
Cotas
  6
ByBlock
 62
    0
370
   -2
100
AcDbLine
 10
229.375
 20
40
 11
218.75
 21
40
  0
LINE
  5
13E
100
AcDbEntity
  8
Cotas
  6
ByBlock
 62
    0
370
   -2
100
AcDbLine
 10
229.375
 20
70
 11
218.75
 21
70
  0
LINE
  5
13F
100
AcDbEntity
  8
Cotas
  6
ByBlock
 62
    0
370
   -2
100
AcDbLine
 10
220
 20
40
 11
220
 21
70
  0
MTEXT
  5
140
100
AcDbEntity
  8
Cotas
  6
CONTINUOUS
 62
    0
370
   -2
100
AcDbMText
 10
217.375
 20
55
 30
0
 40
4
 41
4.888888888889136
 71
    5
 72
    1
  1
30
  7
standard
210
0
220
0
230
1
 50
90
 73
    2
 44
1
  0
SOLID
  5
141
100
AcDbEntity
  8
Cotas
  6
ByBlock
 62
    0
370
   -2
100
AcDbTrace
 10
220
 20
40
 30
0
 11
219.5004584106726
 21
43
 31
0
 12
220.4995415893274
 22
43
 32
0
 13
220.4995415893274
 23
43
 33
0
  0
SOLID
  5
142
100
AcDbEntity
  8
Cotas
  6
ByBlock
 62
    0
370
   -2
100
AcDbTrace
 10
220
 20
70
 30
0
 11
220.4995415893274
 21
67
 31
0
 12
219.5004584106726
 22
67
 32
0
 13
219.5004584106726
 23
67
 33
0
  0
ENDBLK
  5
76
330
74
100
AcDbEntity
  8
0
100
AcDbBlockEnd
  0
BLOCK
  5
78
330
77
100
AcDbEntity
  8
0
100
AcDbBlockBegin
  2
*D25
 70
    1
 10
0
 20
0
  3
*D25
  1

  0
LINE
  5
143
100
AcDbEntity
  8
Cotas
  6
ByBlock
 62
    0
370
   -2
100
AcDbLine
 10
300
 20
-100
 11
285
 21
-100
  0
MTEXT
  5
144
100
AcDbEntity
  8
Cotas
  6
CONTINUOUS
 62
    0
370
   -2
100
AcDbMText
 10
292.5
 20
-97.375
 30
0
 40
4
 41
4.000000000000248
 71
    5
 72
    1
  1
15
  7
standard
210
0
220
0
230
1
 50
0
 73
    2
 44
1
  0
SOLID
  5
145
100
AcDbEntity
  8
Cotas
  6
ByBlock
 62
    0
370
   -2
100
AcDbTrace
 10
300
 20
-100
 30
0
 11
297
 21
-100.4995415893274
 31
0
 12
297
 22
-99.50045841067259
 32
0
 13
297
 23
-99.50045841067259
 33
0
  0
SOLID
  5
146
100
AcDbEntity
  8
Cotas
  6
ByBlock
 62
    0
370
   -2
100
AcDbTrace
 10
285
 20
-100
 30
0
 11
288
 21
-99.50045841067259
 31
0
 12
288
 22
-100.4995415893274
 32
0
 13
288
 23
-100.4995415893274
 33
0
  0
LINE
  5
147
100
AcDbEntity
  8
Cotas
  6
ByBlock
 62
    0
370
   -2
100
AcDbLine
 10
300
 20
-119.375
 11
300
 21
-98.75
  0
LINE
  5
148
100
AcDbEntity
  8
Cotas
  6
ByBlock
 62
    0
370
   -2
100
AcDbLine
 10
285
 20
-109.375
 11
285
 21
-98.75
  0
ENDBLK
  5
79
330
77
100
AcDbEntity
  8
0
100
AcDbBlockEnd
  0
BLOCK
  5
7B
330
7A
100
AcDbEntity
  8
0
100
AcDbBlockBegin
  2
*D47
 70
    1
 10
0
 20
0
  3
*D47
  1

  0
SOLID
  5
149
100
AcDbEntity
  8
Cotas
  6
ByBlock
 62
    0
370
   -2
100
AcDbTrace
 10
391.8411063979869
 20
9.740314012491856
 30
0
 11
393.825971504308
 21
12.0446256904505
 31
0
 12
394.4655689692501
 22
11.27710873252008
 32
0
 13
394.4655689692501
 23
11.27710873252008
 33
0
  0
LINE
  5
14A
100
AcDbEntity
  8
Cotas
  6
ByBlock
 62
    0
370
   -2
100
AcDbLine
 10
388
 20
6.539392014169458
 11
397.8161607948556
 21
14.7195260098824
  0
MTEXT
  5
14B
100
AcDbEntity
  8
Cotas
  6
CONTINUOUS
 62
    0
370
   -2
100
AcDbMText
 10
393.148149547302
 20
14.24650087013024
 30
0
 40
4
 41
1.777777777778026
 71
    5
 72
    1
  1
5
  7
standard
210
0
220
0
230
1
 50
39.8055710922651
 73
    2
 44
1
  0
ENDBLK
  5
7C
330
7A
100
AcDbEntity
  8
0
100
AcDbBlockEnd
  0
BLOCK
  5
7E
330
7D
100
AcDbEntity
  8
0
100
AcDbBlockBegin
  2
*D54
 70
    1
 10
0
 20
0
  3
*D54
  1

  0
SOLID
  5
14C
100
AcDbEntity
  8
Cotas
  6
ByBlock
 62
    0
370
   -2
100
AcDbTrace
 10
568.7139067635412
 20
32.45370950987036
 30
0
 11
566.878742589755
 21
34.87893408807323
 31
0
 12
567.7636408646717
 22
35.3427468098915
 32
0
 13
567.7636408646717
 23
35.3427468098915
 33
0
  0
LINE
  5
14D
100
AcDbEntity
  8
Cotas
  6
ByBlock
 62
    0
370
   -2
100
AcDbLine
 10
565
 20
39.53939201416946
 11
568.7139067635412
 21
32.45370950987036
  0
MTEXT
  5
14E
100
AcDbEntity
  8
Cotas
  6
CONTINUOUS
 62
    0
370
   -2
100
AcDbMText
 10
569.1819429534936
 20
37.2151764188068
 30
0
 40
4
 41
1.777777777777778
 71
    5
 72
    1
  1
8
  7
standard
210
0
220
0
230
1
 50
297.6609402066678
 73
    2
 44
1
  0
ENDBLK
  5
7F
330
7D
100
AcDbEntity
  8
0
100
AcDbBlockEnd
  0
BLOCK
  5
81
330
80
100
AcDbEntity
  8
0
100
AcDbBlockBegin
  2
*D15
 70
    1
 10
0
 20
0
  3
*D15
  1

  0
LINE
  5
14F
100
AcDbEntity
  8
Cotas
  6
ByBlock
 62
    0
370
   -2
100
AcDbLine
 10
209.375
 20
20
 11
198.75
 21
20
  0
LINE
  5
150
100
AcDbEntity
  8
Cotas
  6
ByBlock
 62
    0
370
   -2
100
AcDbLine
 10
209.375
 20
90
 11
198.75
 21
90
  0
LINE
  5
151
100
AcDbEntity
  8
Cotas
  6
ByBlock
 62
    0
370
   -2
100
AcDbLine
 10
200
 20
20
 11
200
 21
90
  0
MTEXT
  5
152
100
AcDbEntity
  8
Cotas
  6
CONTINUOUS
 62
    0
370
   -2
100
AcDbMText
 10
197.375
 20
55
 30
0
 40
4
 41
4.888888888888888
 71
    5
 72
    1
  1
70
  7
standard
210
0
220
0
230
1
 50
90
 73
    2
 44
1
  0
SOLID
  5
153
100
AcDbEntity
  8
Cotas
  6
ByBlock
 62
    0
370
   -2
100
AcDbTrace
 10
200
 20
20
 30
0
 11
199.5004584106726
 21
23
 31
0
 12
200.4995415893274
 22
23
 32
0
 13
200.4995415893274
 23
23
 33
0
  0
SOLID
  5
154
100
AcDbEntity
  8
Cotas
  6
ByBlock
 62
    0
370
   -2
100
AcDbTrace
 10
200
 20
90
 30
0
 11
200.4995415893274
 21
87
 31
0
 12
199.5004584106726
 22
87
 32
0
 13
199.5004584106726
 23
87
 33
0
  0
ENDBLK
  5
82
330
80
100
AcDbEntity
  8
0
100
AcDbBlockEnd
  0
BLOCK
  5
84
330
83
100
AcDbEntity
  8
0
100
AcDbBlockBegin
  2
*D10
 70
    1
 10
0
 20
0
  3
*D10
  1

  0
LINE
  5
155
100
AcDbEntity
  8
Cotas
  6
ByBlock
 62
    0
370
   -2
100
AcDbLine
 10
210
 20
90.625
 11
210
 21
101.25
  0
LINE
  5
156
100
AcDbEntity
  8
Cotas
  6
ByBlock
 62
    0
370
   -2
100
AcDbLine
 10
260
 20
90.625
 11
260
 21
101.25
  0
LINE
  5
157
100
AcDbEntity
  8
Cotas
  6
ByBlock
 62
    0
370
   -2
100
AcDbLine
 10
210
 20
100
 11
260
 21
100
  0
MTEXT
  5
158
100
AcDbEntity
  8
Cotas
  6
CONTINUOUS
 62
    0
370
   -2
100
AcDbMText
 10
235
 20
102.625
 30
0
 40
4
 41
4.888888888889136
 71
    5
 72
    1
  1
50
  7
standard
210
0
220
0
230
1
 50
0
 73
    2
 44
1
  0
SOLID
  5
159
100
AcDbEntity
  8
Cotas
  6
ByBlock
 62
    0
370
   -2
100
AcDbTrace
 10
210
 20
100
 30
0
 11
213
 21
100.4995415893274
 31
0
 12
213
 22
99.50045841067259
 32
0
 13
213
 23
99.50045841067259
 33
0
  0
SOLID
  5
15A
100
AcDbEntity
  8
Cotas
  6
ByBlock
 62
    0
370
   -2
100
AcDbTrace
 10
260
 20
100
 30
0
 11
257
 21
99.50045841067259
 31
0
 12
257
 22
100.4995415893274
 32
0
 13
257
 23
100.4995415893274
 33
0
  0
ENDBLK
  5
85
330
83
100
AcDbEntity
  8
0
100
AcDbBlockEnd
  0
BLOCK
  5
87
330
86
100
AcDbEntity
  8
0
100
AcDbBlockBegin
  2
*D21
 70
    1
 10
0
 20
0
  3
*D21
  1

  0
LINE
  5
15B
100
AcDbEntity
  8
Cotas
  6
ByBlock
 62
    0
370
   -2
100
AcDbLine
 10
140
 20
-94
 11
140
 21
-111
  0
MTEXT
  5
15C
100
AcDbEntity
  8
Cotas
  6
CONTINUOUS
 62
    0
370
   -2
100
AcDbMText
 10
137.375
 20
-102.5
 30
0
 40
4
 41
1.777777777778026
 71
    5
 72
    1
  1
5
  7
standard
210
0
220
0
230
1
 50
90
 73
    2
 44
1
  0
SOLID
  5
15D
100
AcDbEntity
  8
Cotas
  6
ByBlock
 62
    0
370
   -2
100
AcDbTrace
 10
140
 20
-100
 30
0
 11
139.5004584106726
 21
-97
 31
0
 12
140.4995415893274
 22
-97
 32
0
 13
140.4995415893274
 23
-97
 33
0
  0
SOLID
  5
15E
100
AcDbEntity
  8
Cotas
  6
ByBlock
 62
    0
370
   -2
100
AcDbTrace
 10
140
 20
-105
 30
0
 11
140.4995415893274
 21
-108
 31
0
 12
139.5004584106726
 22
-108
 32
0
 13
139.5004584106726
 23
-108
 33
0
  0
LINE
  5
15F
100
AcDbEntity
  8
Cotas
  6
ByBlock
 62
    0
370
   -2
100
AcDbLine
 10
154.375
 20
-100
 11
138.75
 21
-100
  0
LINE
  5
160
100
AcDbEntity
  8
Cotas
  6
ByBlock
 62
    0
370
   -2
100
AcDbLine
 10
149.375
 20
-105
 11
138.75
 21
-105
  0
ENDBLK
  5
88
330
86
100
AcDbEntity
  8
0
100
AcDbBlockEnd
  0
BLOCK
  5
8A
330
89
100
AcDbEntity
  8
0
100
AcDbBlockBegin
  2
*D33
 70
    1
 10
0
 20
0
  3
*D33
  1

  0
LINE
  5
161
100
AcDbEntity
  8
Cotas
  6
ByBlock
 62
    0
370
   -2
100
AcDbLine
 10
210
 20
-120
 11
230
 21
-120
  0
MTEXT
  5
162
100
AcDbEntity
  8
Cotas
  6
CONTINUOUS
 62
    0
370
   -2
100
AcDbMText
 10
220
 20
-117.375
 30
0
 40
4
 41
4.888888888888888
 71
    5
 72
    1
  1
20
  7
standard
210
0
220
0
230
1
 50
0
 73
    2
 44
1
  0
SOLID
  5
163
100
AcDbEntity
  8
Cotas
  6
ByBlock
 62
    0
370
   -2
100
AcDbTrace
 10
210
 20
-120
 30
0
 11
213
 21
-119.5004584106726
 31
0
 12
213
 22
-120.4995415893274
 32
0
 13
213
 23
-120.4995415893274
 33
0
  0
SOLID
  5
164
100
AcDbEntity
  8
Cotas
  6
ByBlock
 62
    0
370
   -2
100
AcDbTrace
 10
230
 20
-120
 30
0
 11
227
 21
-120.4995415893274
 31
0
 12
227
 22
-119.5004584106726
 32
0
 13
227
 23
-119.5004584106726
 33
0
  0
LINE
  5
165
100
AcDbEntity
  8
Cotas
  6
ByBlock
 62
    0
370
   -2
100
AcDbLine
 10
210
 20
-80.625
 11
210
 21
-121.25
  0
LINE
  5
166
100
AcDbEntity
  8
Cotas
  6
ByBlock
 62
    0
370
   -2
100
AcDbLine
 10
230
 20
-110.625
 11
230
 21
-121.25
  0
ENDBLK
  5
8B
330
89
100
AcDbEntity
  8
0
100
AcDbBlockEnd
  0
BLOCK
  5
8D
330
8C
100
AcDbEntity
  8
0
100
AcDbBlockBegin
  2
*D6
 70
    1
 10
0
 20
0
  3
*D6
  1

  0
LINE
  5
167
100
AcDbEntity
  8
Cotas
  6
ByBlock
 62
    0
370
   -2
100
AcDbLine
 10
149.375
 20
30
 11
138.75
 21
30
  0
LINE
  5
168
100
AcDbEntity
  8
Cotas
  6
ByBlock
 62
    0
370
   -2
100
AcDbLine
 10
149.375
 20
7.654042494670958e-17
 11
138.75
 21
1.377727649040772e-15
  0
LINE
  5
169
100
AcDbEntity
  8
Cotas
  6
ByBlock
 62
    0
370
   -2
100
AcDbLine
 10
140
 20
30
 11
140
 21
1.224646799147353e-15
  0
MTEXT
  5
16A
100
AcDbEntity
  8
Cotas
  6
CONTINUOUS
 62
    0
370
   -2
100
AcDbMText
 10
137.375
 20
15
 30
0
 40
4
 41
4.888888888889136
 71
    5
 72
    1
  1
30
  7
standard
210
0
220
0
230
1
 50
90
 73
    2
 44
1
  0
SOLID
  5
16B
100
AcDbEntity
  8
Cotas
  6
ByBlock
 62
    0
370
   -2
100
AcDbTrace
 10
140
 20
30
 30
0
 11
140.4995415893274
 21
27
 31
0
 12
139.5004584106726
 22
27
 32
0
 13
139.5004584106726
 23
27
 33
0
  0
SOLID
  5
16C
100
AcDbEntity
  8
Cotas
  6
ByBlock
 62
    0
370
   -2
100
AcDbTrace
 10
140
 20
1.224646799147353e-15
 30
0
 11
139.5004584106726
 21
3.000000000000001
 31
0
 12
140.4995415893274
 22
3.000000000000001
 32
0
 13
140.4995415893274
 23
3.000000000000001
 33
0
  0
ENDBLK
  5
8E
330
8C
100
AcDbEntity
  8
0
100
AcDbBlockEnd
  0
BLOCK
  5
90
330
8F
100
AcDbEntity
  8
0
100
AcDbBlockBegin
  2
*D8
 70
    1
 10
0
 20
0
  3
*D8
  1

  0
LINE
  5
16D
100
AcDbEntity
  8
Cotas
  6
ByBlock
 62
    0
370
   -2
100
AcDbLine
 10
150
 20
90.625
 11
150
 21
101.25
  0
LINE
  5
16E
100
AcDbEntity
  8
Cotas
  6
ByBlock
 62
    0
370
   -2
100
AcDbLine
 10
180
 20
90.625
 11
180
 21
101.25
  0
LINE
  5
16F
100
AcDbEntity
  8
Cotas
  6
ByBlock
 62
    0
370
   -2
100
AcDbLine
 10
150
 20
100
 11
180
 21
100
  0
MTEXT
  5
170
100
AcDbEntity
  8
Cotas
  6
CONTINUOUS
 62
    0
370
   -2
100
AcDbMText
 10
165
 20
102.625
 30
0
 40
4
 41
4.888888888889136
 71
    5
 72
    1
  1
30
  7
standard
210
0
220
0
230
1
 50
0
 73
    2
 44
1
  0
SOLID
  5
171
100
AcDbEntity
  8
Cotas
  6
ByBlock
 62
    0
370
   -2
100
AcDbTrace
 10
150
 20
100
 30
0
 11
153
 21
100.4995415893274
 31
0
 12
153
 22
99.50045841067259
 32
0
 13
153
 23
99.50045841067259
 33
0
  0
SOLID
  5
172
100
AcDbEntity
  8
Cotas
  6
ByBlock
 62
    0
370
   -2
100
AcDbTrace
 10
180
 20
100
 30
0
 11
177
 21
99.50045841067259
 31
0
 12
177
 22
100.4995415893274
 32
0
 13
177
 23
100.4995415893274
 33
0
  0
ENDBLK
  5
91
330
8F
100
AcDbEntity
  8
0
100
AcDbBlockEnd
  0
BLOCK
  5
93
330
92
100
AcDbEntity
  8
0
100
AcDbBlockBegin
  2
*D27
 70
    1
 10
0
 20
0
  3
*D27
  1

  0
LINE
  5
173
100
AcDbEntity
  8
Cotas
  6
ByBlock
 62
    0
370
   -2
100
AcDbLine
 10
245
 20
-56
 11
230
 21
-56
  0
MTEXT
  5
174
100
AcDbEntity
  8
Cotas
  6
CONTINUOUS
 62
    0
370
   -2
100
AcDbMText
 10
237.5
 20
-53.375
 30
0
 40
4
 41
4.000000000000248
 71
    5
 72
    1
  1
15
  7
standard
210
0
220
0
230
1
 50
0
 73
    2
 44
1
  0
SOLID
  5
175
100
AcDbEntity
  8
Cotas
  6
ByBlock
 62
    0
370
   -2
100
AcDbTrace
 10
245
 20
-56
 30
0
 11
242
 21
-56.49954158932741
 31
0
 12
242
 22
-55.50045841067259
 32
0
 13
242
 23
-55.50045841067259
 33
0
  0
SOLID
  5
176
100
AcDbEntity
  8
Cotas
  6
ByBlock
 62
    0
370
   -2
100
AcDbTrace
 10
230
 20
-56
 30
0
 11
233
 21
-55.50045841067259
 31
0
 12
233
 22
-56.49954158932741
 32
0
 13
233
 23
-56.49954158932741
 33
0
  0
LINE
  5
177
100
AcDbEntity
  8
Cotas
  6
ByBlock
 62
    0
370
   -2
100
AcDbLine
 10
245
 20
-59.375
 11
245
 21
-54.75
  0
LINE
  5
178
100
AcDbEntity
  8
Cotas
  6
ByBlock
 62
    0
370
   -2
100
AcDbLine
 10
230
 20
-69.375
 11
230
 21
-54.75
  0
ENDBLK
  5
94
330
92
100
AcDbEntity
  8
0
100
AcDbBlockEnd
  0
BLOCK
  5
96
330
95
100
AcDbEntity
  8
0
100
AcDbBlockBegin
  2
*D32
 70
    1
 10
0
 20
0
  3
*D32
  1

  0
LINE
  5
179
100
AcDbEntity
  8
Cotas
  6
ByBlock
 62
    0
370
   -2
100
AcDbLine
 10
310
 20
-110
 11
310
 21
-120
  0
MTEXT
  5
17A
100
AcDbEntity
  8
Cotas
  6
CONTINUOUS
 62
    0
370
   -2
100
AcDbMText
 10
307.375
 20
-115
 30
0
 40
4
 41
4
 71
    5
 72
    1
  1
10
  7
standard
210
0
220
0
230
1
 50
90
 73
    2
 44
1
  0
SOLID
  5
17B
100
AcDbEntity
  8
Cotas
  6
ByBlock
 62
    0
370
   -2
100
AcDbTrace
 10
310
 20
-110
 30
0
 11
310.4995415893274
 21
-113
 31
0
 12
309.5004584106726
 22
-113
 32
0
 13
309.5004584106726
 23
-113
 33
0
  0
SOLID
  5
17C
100
AcDbEntity
  8
Cotas
  6
ByBlock
 62
    0
370
   -2
100
AcDbTrace
 10
310
 20
-120
 30
0
 11
309.5004584106726
 21
-117
 31
0
 12
310.4995415893274
 22
-117
 32
0
 13
310.4995415893274
 23
-117
 33
0
  0
LINE
  5
17D
100
AcDbEntity
  8
Cotas
  6
ByBlock
 62
    0
370
   -2
100
AcDbLine
 10
285.625
 20
-110
 11
311.25
 21
-110
  0
LINE
  5
17E
100
AcDbEntity
  8
Cotas
  6
ByBlock
 62
    0
370
   -2
100
AcDbLine
 10
300.625
 20
-120
 11
311.25
 21
-120
  0
ENDBLK
  5
97
330
95
100
AcDbEntity
  8
0
100
AcDbBlockEnd
  0
BLOCK
  5
99
330
98
100
AcDbEntity
  8
0
100
AcDbBlockBegin
  2
*D38
 70
    1
 10
0
 20
0
  3
*D38
  1

  0
SOLID
  5
17F
100
AcDbEntity
  8
Cotas
  6
ByBlock
 62
    0
370
   -2
100
AcDbTrace
 10
291.2132034355964
 20
-81.21320343559643
 30
0
 11
288.7386538467387
 21
-79.4451123373349
 31
0
 12
289.4451123373349
 22
-78.73865384673867
 32
0
 13
289.4451123373349
 23
-78.73865384673867
 33
0
  0
LINE
  5
180
100
AcDbEntity
  8
Cotas
  6
ByBlock
 62
    0
370
   -2
100
AcDbLine
 10
270
 20
-60
 11
291.2132034355964
 21
-81.21320343559643
  0
MTEXT
  5
181
100
AcDbEntity
  8
Cotas
  6
CONTINUOUS
 62
    0
370
   -2
100
AcDbMText
 10
282.4627570184129
 20
-68.75044641718353
 30
0
 40
4
 41
4.888888888889136
 71
    5
 72
    1
  1
30
  7
standard
210
0
220
0
230
1
 50
315
 73
    2
 44
1
  0
ENDBLK
  5
9A
330
98
100
AcDbEntity
  8
0
100
AcDbBlockEnd
  0
BLOCK
  5
9C
330
9B
100
AcDbEntity
  8
0
100
AcDbBlockBegin
  2
*D5
 70
    1
 10
0
 20
0
  3
*D5
  1

  0
LINE
  5
182
100
AcDbEntity
  8
Cotas
  6
ByBlock
 62
    0
370
   -2
100
AcDbLine
 10
150
 20
30.625
 11
150
 21
41.25
  0
LINE
  5
183
100
AcDbEntity
  8
Cotas
  6
ByBlock
 62
    0
370
   -2
100
AcDbLine
 10
180
 20
30.625
 11
180
 21
41.25
  0
LINE
  5
184
100
AcDbEntity
  8
Cotas
  6
ByBlock
 62
    0
370
   -2
100
AcDbLine
 10
150
 20
40
 11
180
 21
40
  0
MTEXT
  5
185
100
AcDbEntity
  8
Cotas
  6
CONTINUOUS
 62
    0
370
   -2
100
AcDbMText
 10
165
 20
42.625
 30
0
 40
4
 41
4.888888888889136
 71
    5
 72
    1
  1
30
  7
standard
210
0
220
0
230
1
 50
0
 73
    2
 44
1
  0
SOLID
  5
186
100
AcDbEntity
  8
Cotas
  6
ByBlock
 62
    0
370
   -2
100
AcDbTrace
 10
150
 20
40
 30
0
 11
153
 21
40.49954158932741
 31
0
 12
153
 22
39.50045841067259
 32
0
 13
153
 23
39.50045841067259
 33
0
  0
SOLID
  5
187
100
AcDbEntity
  8
Cotas
  6
ByBlock
 62
    0
370
   -2
100
AcDbTrace
 10
180
 20
40
 30
0
 11
177
 21
39.50045841067259
 31
0
 12
177
 22
40.49954158932741
 32
0
 13
177
 23
40.49954158932741
 33
0
  0
ENDBLK
  5
9D
330
9B
100
AcDbEntity
  8
0
100
AcDbBlockEnd
  0
BLOCK
  5
9F
330
9E
100
AcDbEntity
  8
0
100
AcDbBlockBegin
  2
*D23
 70
    1
 10
0
 20
0
  3
*D23
  1

  0
LINE
  5
188
100
AcDbEntity
  8
Cotas
  6
ByBlock
 62
    0
370
   -2
100
AcDbLine
 10
200
 20
-40
 11
200
 21
-70
  0
MTEXT
  5
189
100
AcDbEntity
  8
Cotas
  6
CONTINUOUS
 62
    0
370
   -2
100
AcDbMText
 10
197.375
 20
-55
 30
0
 40
4
 41
4.888888888889136
 71
    5
 72
    1
  1
30
  7
standard
210
0
220
0
230
1
 50
90
 73
    2
 44
1
  0
SOLID
  5
18A
100
AcDbEntity
  8
Cotas
  6
ByBlock
 62
    0
370
   -2
100
AcDbTrace
 10
200
 20
-40
 30
0
 11
200.4995415893274
 21
-43
 31
0
 12
199.5004584106726
 22
-43
 32
0
 13
199.5004584106726
 23
-43
 33
0
  0
SOLID
  5
18B
100
AcDbEntity
  8
Cotas
  6
ByBlock
 62
    0
370
   -2
100
AcDbTrace
 10
200
 20
-70
 30
0
 11
199.5004584106726
 21
-67
 31
0
 12
200.4995415893274
 22
-67
 32
0
 13
200.4995415893274
 23
-67
 33
0
  0
LINE
  5
18C
100
AcDbEntity
  8
Cotas
  6
ByBlock
 62
    0
370
   -2
100
AcDbLine
 10
239.375
 20
-40
 11
198.75
 21
-40
  0
LINE
  5
18D
100
AcDbEntity
  8
Cotas
  6
ByBlock
 62
    0
370
   -2
100
AcDbLine
 10
209.375
 20
-70
 11
198.75
 21
-70
  0
ENDBLK
  5
A0
330
9E
100
AcDbEntity
  8
0
100
AcDbBlockEnd
  0
BLOCK
  5
A2
330
A1
100
AcDbEntity
  8
0
100
AcDbBlockBegin
  2
*D17
 70
    1
 10
0
 20
0
  3
*D17
  1

  0
LINE
  5
18E
100
AcDbEntity
  8
Cotas
  6
ByBlock
 62
    0
370
   -2
100
AcDbLine
 10
230
 20
40.625
 11
230
 21
51.25
  0
LINE
  5
18F
100
AcDbEntity
  8
Cotas
  6
ByBlock
 62
    0
370
   -2
100
AcDbLine
 10
300
 20
40.625
 11
300
 21
51.25
  0
LINE
  5
190
100
AcDbEntity
  8
Cotas
  6
ByBlock
 62
    0
370
   -2
100
AcDbLine
 10
230
 20
50
 11
300
 21
50
  0
MTEXT
  5
191
100
AcDbEntity
  8
Cotas
  6
CONTINUOUS
 62
    0
370
   -2
100
AcDbMText
 10
265
 20
52.625
 30
0
 40
4
 41
4.888888888888888
 71
    5
 72
    1
  1
70
  7
standard
210
0
220
0
230
1
 50
0
 73
    2
 44
1
  0
SOLID
  5
192
100
AcDbEntity
  8
Cotas
  6
ByBlock
 62
    0
370
   -2
100
AcDbTrace
 10
230
 20
50
 30
0
 11
233
 21
50.49954158932741
 31
0
 12
233
 22
49.50045841067259
 32
0
 13
233
 23
49.50045841067259
 33
0
  0
SOLID
  5
193
100
AcDbEntity
  8
Cotas
  6
ByBlock
 62
    0
370
   -2
100
AcDbTrace
 10
300
 20
50
 30
0
 11
297
 21
49.50045841067259
 31
0
 12
297
 22
50.49954158932741
 32
0
 13
297
 23
50.49954158932741
 33
0
  0
ENDBLK
  5
A3
330
A1
100
AcDbEntity
  8
0
100
AcDbBlockEnd
  0
BLOCK
  5
A5
330
A4
100
AcDbEntity
  8
0
100
AcDbBlockBegin
  2
*D53
 70
    1
 10
0
 20
0
  3
*D53
  1

  0
SOLID
  5
194
100
AcDbEntity
  8
Cotas
  6
ByBlock
 62
    0
370
   -2
100
AcDbTrace
 10
545.2286651791062
 20
63.30083883673406
 30
0
 11
546.636018594032
 21
60.6047494159313
 31
0
 12
545.6864321211949
 22
60.29418102012132
 32
0
 13
545.6864321211949
 23
60.29418102012132
 33
0
  0
LINE
  5
195
100
AcDbEntity
  8
Cotas
  6
ByBlock
 62
    0
370
   -2
100
AcDbLine
 10
553
 20
39.53939201416946
 11
545.2286651791062
 21
63.30083883673406
  0
MTEXT
  5
196
100
AcDbEntity
  8
Cotas
  6
CONTINUOUS
 62
    0
370
   -2
100
AcDbMText
 10
551.6092845059223
 20
52.2361055816456
 30
0
 40
4
 41
4.888888888889136
 71
    5
 72
    1
  1
25
  7
standard
210
0
220
0
230
1
 50
288.1106674229703
 73
    2
 44
1
  0
ENDBLK
  5
A6
330
A4
100
AcDbEntity
  8
0
100
AcDbBlockEnd
  0
BLOCK
  5
A8
330
A7
100
AcDbEntity
  8
0
100
AcDbBlockBegin
  2
*D35
 70
    1
 10
0
 20
0
  3
*D35
  1

  0
LINE
  5
197
100
AcDbEntity
  8
Cotas
  6
ByBlock
 62
    0
370
   -2
100
AcDbLine
 10
275
 20
-140
 11
300
 21
-140
  0
MTEXT
  5
198
100
AcDbEntity
  8
Cotas
  6
CONTINUOUS
 62
    0
370
   -2
100
AcDbMText
 10
287.5
 20
-137.375
 30
0
 40
4
 41
4.888888888889136
 71
    5
 72
    1
  1
25
  7
standard
210
0
220
0
230
1
 50
0
 73
    2
 44
1
  0
SOLID
  5
199
100
AcDbEntity
  8
Cotas
  6
ByBlock
 62
    0
370
   -2
100
AcDbTrace
 10
275
 20
-140
 30
0
 11
278
 21
-139.5004584106726
 31
0
 12
278
 22
-140.4995415893274
 32
0
 13
278
 23
-140.4995415893274
 33
0
  0
SOLID
  5
19A
100
AcDbEntity
  8
Cotas
  6
ByBlock
 62
    0
370
   -2
100
AcDbTrace
 10
300
 20
-140
 30
0
 11
297
 21
-140.4995415893274
 31
0
 12
297
 22
-139.5004584106726
 32
0
 13
297
 23
-139.5004584106726
 33
0
  0
LINE
  5
19B
100
AcDbEntity
  8
Cotas
  6
ByBlock
 62
    0
370
   -2
100
AcDbLine
 10
275
 20
-130.625
 11
275
 21
-141.25
  0
LINE
  5
19C
100
AcDbEntity
  8
Cotas
  6
ByBlock
 62
    0
370
   -2
100
AcDbLine
 10
300
 20
-125.625
 11
300
 21
-141.25
  0
ENDBLK
  5
A9
330
A7
100
AcDbEntity
  8
0
100
AcDbBlockEnd
  0
BLOCK
  5
AB
330
AA
100
AcDbEntity
  8
0
100
AcDbBlockBegin
  2
*D28
 70
    1
 10
0
 20
0
  3
*D28
  1

  0
LINE
  5
19D
100
AcDbEntity
  8
Cotas
  6
ByBlock
 62
    0
370
   -2
100
AcDbLine
 10
225
 20
-70
 11
225
 21
-60
  0
MTEXT
  5
19E
100
AcDbEntity
  8
Cotas
  6
CONTINUOUS
 62
    0
370
   -2
100
AcDbMText
 10
222.375
 20
-65
 30
0
 40
4
 41
4
 71
    5
 72
    1
  1
10
  7
standard
210
0
220
0
230
1
 50
90
 73
    2
 44
1
  0
SOLID
  5
19F
100
AcDbEntity
  8
Cotas
  6
ByBlock
 62
    0
370
   -2
100
AcDbTrace
 10
225
 20
-70
 30
0
 11
224.5004584106726
 21
-67
 31
0
 12
225.4995415893274
 22
-67
 32
0
 13
225.4995415893274
 23
-67
 33
0
  0
SOLID
  5
1A0
100
AcDbEntity
  8
Cotas
  6
ByBlock
 62
    0
370
   -2
100
AcDbTrace
 10
225
 20
-60
 30
0
 11
225.4995415893274
 21
-63
 31
0
 12
224.5004584106726
 22
-63
 32
0
 13
224.5004584106726
 23
-63
 33
0
  0
LINE
  5
1A1
100
AcDbEntity
  8
Cotas
  6
ByBlock
 62
    0
370
   -2
100
AcDbLine
 10
229.375
 20
-70
 11
223.75
 21
-70
  0
LINE
  5
1A2
100
AcDbEntity
  8
Cotas
  6
ByBlock
 62
    0
370
   -2
100
AcDbLine
 10
244.375
 20
-60
 11
223.75
 21
-60
  0
ENDBLK
  5
AC
330
AA
100
AcDbEntity
  8
0
100
AcDbBlockEnd
  0
BLOCK
  5
AE
330
AD
100
AcDbEntity
  8
0
100
AcDbBlockBegin
  2
*D48
 70
    1
 10
0
 20
0
  3
*D48
  1

  0
LINE
  5
1A3
100
AcDbEntity
  8
Cotas
  6
ByBlock
 62
    0
370
   -2
100
AcDbLine
 10
413.4134204984316
 20
92.00812273801481
 11
421.3206888778749
 21
100.9732796308077
  0
LINE
  5
1A4
100
AcDbEntity
  8
Cotas
  6
ByBlock
 62
    0
370
   -2
100
AcDbLine
 10
443.4134204984316
 20
65.54812273801483
 11
451.3206888778749
 21
74.51327963080776
  0
LINE
  5
1A5
100
AcDbEntity
  8
Cotas
  6
ByBlock
 62
    0
370
   -2
100
AcDbLine
 10
420.4938478810118
 20
100.0358181831171
 11
450.4938478810118
 21
73.57581818311708
  0
MTEXT
  5
1A6
100
AcDbEntity
  8
Cotas
  6
CONTINUOUS
 62
    0
370
   -2
100
AcDbMText
 10
437.2302139744245
 20
88.7744872232675
 30
0
 40
4
 41
5.333333333333333
 71
    5
 72
    1
  1
40
  7
standard
210
0
220
0
230
1
 50
318.5877063456412
 73
    2
 44
1
  0
SOLID
  5
1A7
100
AcDbEntity
  8
Cotas
  6
ByBlock
 62
    0
370
   -2
100
AcDbTrace
 10
420.4938478810118
 20
100.0358181831171
 30
0
 11
423.0741885280247
 21
98.4260405758555
 31
0
 12
422.4133221829142
 22
97.67675900543537
 32
0
 13
422.4133221829142
 23
97.67675900543537
 33
0
  0
SOLID
  5
1A8
100
AcDbEntity
  8
Cotas
  6
ByBlock
 62
    0
370
   -2
100
AcDbTrace
 10
450.4938478810118
 20
73.57581818311708
 30
0
 11
447.9135072339989
 21
75.18559579037864
 31
0
 12
448.5743735791094
 22
75.93487736079877
 32
0
 13
448.5743735791094
 23
75.93487736079877
 33
0
  0
ENDBLK
  5
AF
330
AD
100
AcDbEntity
  8
0
100
AcDbBlockEnd
  0
BLOCK
  5
B1
330
B0
100
AcDbEntity
  8
0
100
AcDbBlockBegin
  2
*D29
 70
    1
 10
0
 20
0
  3
*D29
  1

  0
LINE
  5
1A9
100
AcDbEntity
  8
Cotas
  6
ByBlock
 62
    0
370
   -2
100
AcDbLine
 10
310
 20
-51
 11
310
 21
-34
  0
MTEXT
  5
1AA
100
AcDbEntity
  8
Cotas
  6
CONTINUOUS
 62
    0
370
   -2
100
AcDbMText
 10
307.375
 20
-42.5
 30
0
 40
4
 41
1.777777777778026
 71
    5
 72
    1
  1
5
  7
standard
210
0
220
0
230
1
 50
90
 73
    2
 44
1
  0
SOLID
  5
1AB
100
AcDbEntity
  8
Cotas
  6
ByBlock
 62
    0
370
   -2
100
AcDbTrace
 10
310
 20
-45
 30
0
 11
310.4995415893274
 21
-48
 31
0
 12
309.5004584106726
 22
-48
 32
0
 13
309.5004584106726
 23
-48
 33
0
  0
SOLID
  5
1AC
100
AcDbEntity
  8
Cotas
  6
ByBlock
 62
    0
370
   -2
100
AcDbTrace
 10
310
 20
-40
 30
0
 11
309.5004584106726
 21
-37
 31
0
 12
310.4995415893274
 22
-37
 32
0
 13
310.4995415893274
 23
-37
 33
0
  0
LINE
  5
1AD
100
AcDbEntity
  8
Cotas
  6
ByBlock
 62
    0
370
   -2
100
AcDbLine
 10
300.625
 20
-45
 11
311.25
 21
-45
  0
LINE
  5
1AE
100
AcDbEntity
  8
Cotas
  6
ByBlock
 62
    0
370
   -2
100
AcDbLine
 10
285.625
 20
-40
 11
311.25
 21
-40
  0
ENDBLK
  5
B2
330
B0
100
AcDbEntity
  8
0
100
AcDbBlockEnd
  0
BLOCK
  5
B4
330
B3
100
AcDbEntity
  8
0
100
AcDbBlockBegin
  2
*D36
 70
    1
 10
0
 20
0
  3
*D36
  1

  0
SOLID
  5
1AF
100
AcDbEntity
  8
Cotas
  6
ByBlock
 62
    0
370
   -2
100
AcDbTrace
 10
154.3933982822018
 20
-125.6066017177982
 30
0
 11
156.1614893804633
 21
-123.1320521289404
 31
0
 12
156.8679478710596
 22
-123.8385106195367
 32
0
 13
156.8679478710596
 23
-123.8385106195367
 33
0
  0
LINE
  5
1B0
100
AcDbEntity
  8
Cotas
  6
ByBlock
 62
    0
370
   -2
100
AcDbLine
 10
165
 20
-115
 11
154.3933982822018
 21
-125.6066017177982
  0
MTEXT
  5
1B1
100
AcDbEntity
  8
Cotas
  6
CONTINUOUS
 62
    0
370
   -2
100
AcDbMText
 10
157.8405438404862
 20
-118.4471455582844
 30
0
 40
4
 41
4.000000000000248
 71
    5
 72
    1
  1
15
  7
standard
210
0
220
0
230
1
 50
44.99999999999995
 73
    2
 44
1
  0
ENDBLK
  5
B5
330
B3
100
AcDbEntity
  8
0
100
AcDbBlockEnd
  0
BLOCK
  5
B7
330
B6
100
AcDbEntity
  8
0
100
AcDbBlockBegin
  2
*D46
 70
    1
 10
0
 20
0
  3
*D46
  1

  0
SOLID
  5
1B2
100
AcDbEntity
  8
Cotas
  6
ByBlock
 62
    0
370
   -2
100
AcDbTrace
 10
397.142135623731
 20
32.3972563904385
 30
0
 11
394.6675860348732
 21
34.16534748870002
 31
0
 12
395.3740445254695
 22
34.87180597929625
 32
0
 13
395.3740445254695
 23
34.87180597929625
 33
0
  0
LINE
  5
1B3
100
AcDbEntity
  8
Cotas
  6
ByBlock
 62
    0
370
   -2
100
AcDbLine
 10
383
 20
46.53939201416946
 11
397.142135623731
 21
32.3972563904385
  0
MTEXT
  5
1B4
100
AcDbEntity
  8
Cotas
  6
CONTINUOUS
 62
    0
370
   -2
100
AcDbMText
 10
391.9272231124801
 20
41.32447950291867
 30
0
 40
4
 41
4.888888888888888
 71
    5
 72
    1
  1
20
  7
standard
210
0
220
0
230
1
 50
315.0000000000001
 73
    2
 44
1
  0
ENDBLK
  5
B8
330
B6
100
AcDbEntity
  8
0
100
AcDbBlockEnd
  0
BLOCK
  5
BA
330
B9
100
AcDbEntity
  8
0
100
AcDbBlockBegin
  2
*D56
 70
    1
 10
0
 20
0
  3
*D56
  1

  0
LINE
  5
1B5
100
AcDbEntity
  8
Cotas
  6
CONTINUOUS
 62
    7
370
    0
100
AcDbLine
 10
507
 20
37
 11
513
 21
32
  0
SOLID
  5
1B6
100
AcDbEntity
  8
Cotas
  6
CONTINUOUS
 62
    7
370
    0
100
AcDbTrace
 10
507
 20
37
 30
0
 11
509.6244625712631
 21
35.46320527997177
 31
0
 12
508.9848651063211
 22
34.69568832204135
 32
0
 13
508.9848651063211
 23
34.69568832204135
 33
0
  0
ENDBLK
  5
BB
330
B9
100
AcDbEntity
  8
0
100
AcDbBlockEnd
  0
BLOCK
  5
BD
330
BC
100
AcDbEntity
  8
0
100
AcDbBlockBegin
  2
*D42
 70
    1
 10
0
 20
0
  3
*D42
  1

  0
LINE
  5
1B7
100
AcDbEntity
  8
Cotas
  6
ByBlock
 62
    0
370
   -2
100
AcDbLine
 10
453
 20
1.539392014169456
 11
453
 21
11.53939201416946
  0
MTEXT
  5
1B8
100
AcDbEntity
  8
Cotas
  6
CONTINUOUS
 62
    0
370
   -2
100
AcDbMText
 10
450.375
 20
6.539392014169459
 30
0
 40
4
 41
4
 71
    5
 72
    1
  1
10
  7
standard
210
0
220
0
230
1
 50
90
 73
    2
 44
1
  0
SOLID
  5
1B9
100
AcDbEntity
  8
Cotas
  6
ByBlock
 62
    0
370
   -2
100
AcDbTrace
 10
453
 20
1.539392014169456
 30
0
 11
452.5004584106726
 21
4.539392014169456
 31
0
 12
453.4995415893274
 22
4.539392014169456
 32
0
 13
453.4995415893274
 23
4.539392014169456
 33
0
  0
SOLID
  5
1BA
100
AcDbEntity
  8
Cotas
  6
ByBlock
 62
    0
370
   -2
100
AcDbTrace
 10
453
 20
11.53939201416946
 30
0
 11
453.4995415893274
 21
8.53939201416946
 31
0
 12
452.5004584106726
 22
8.53939201416946
 32
0
 13
452.5004584106726
 23
8.53939201416946
 33
0
  0
LINE
  5
1BB
100
AcDbEntity
  8
Cotas
  6
ByBlock
 62
    0
370
   -2
100
AcDbLine
 10
433.625
 20
1.539392014169458
 11
454.25
 21
1.539392014169456
  0
LINE
  5
1BC
100
AcDbEntity
  8
Cotas
  6
ByBlock
 62
    0
370
   -2
100
AcDbLine
 10
433.625
 20
11.53939201416946
 11
454.25
 21
11.53939201416946
  0
ENDBLK
  5
BE
330
BC
100
AcDbEntity
  8
0
100
AcDbBlockEnd
  0
BLOCK
  5
C0
330
BF
100
AcDbEntity
  8
0
100
AcDbBlockBegin
  2
*D22
 70
    1
 10
0
 20
0
  3
*D22
  1

  0
LINE
  5
1BD
100
AcDbEntity
  8
Cotas
  6
ByBlock
 62
    0
370
   -2
100
AcDbLine
 10
200
 20
-110
 11
200
 21
-80
  0
MTEXT
  5
1BE
100
AcDbEntity
  8
Cotas
  6
CONTINUOUS
 62
    0
370
   -2
100
AcDbMText
 10
197.375
 20
-95
 30
0
 40
4
 41
4.888888888889136
 71
    5
 72
    1
  1
30
  7
standard
210
0
220
0
230
1
 50
90
 73
    2
 44
1
  0
SOLID
  5
1BF
100
AcDbEntity
  8
Cotas
  6
ByBlock
 62
    0
370
   -2
100
AcDbTrace
 10
200
 20
-110
 30
0
 11
199.5004584106726
 21
-107
 31
0
 12
200.4995415893274
 22
-107
 32
0
 13
200.4995415893274
 23
-107
 33
0
  0
SOLID
  5
1C0
100
AcDbEntity
  8
Cotas
  6
ByBlock
 62
    0
370
   -2
100
AcDbTrace
 10
200
 20
-80
 30
0
 11
200.4995415893274
 21
-83
 31
0
 12
199.5004584106726
 22
-83
 32
0
 13
199.5004584106726
 23
-83
 33
0
  0
LINE
  5
1C1
100
AcDbEntity
  8
Cotas
  6
ByBlock
 62
    0
370
   -2
100
AcDbLine
 10
229.375
 20
-110
 11
198.75
 21
-110
  0
LINE
  5
1C2
100
AcDbEntity
  8
Cotas
  6
ByBlock
 62
    0
370
   -2
100
AcDbLine
 10
209.375
 20
-80
 11
198.75
 21
-80
  0
ENDBLK
  5
C1
330
BF
100
AcDbEntity
  8
0
100
AcDbBlockEnd
  0
BLOCK
  5
C3
330
C2
100
AcDbEntity
  8
0
100
AcDbBlockBegin
  2
*D41
 70
    1
 10
0
 20
0
  3
*D41
  1

  0
LINE
  5
1C3
100
AcDbEntity
  8
Cotas
  6
ByBlock
 62
    0
370
   -2
100
AcDbLine
 10
393
 20
-8.460607985830542
 11
433
 21
-8.460607985830542
  0
MTEXT
  5
1C4
100
AcDbEntity
  8
Cotas
  6
CONTINUOUS
 62
    0
370
   -2
100
AcDbMText
 10
413
 20
-5.835607985830542
 30
0
 40
4
 41
5.333333333333333
 71
    5
 72
    1
  1
40
  7
standard
210
0
220
0
230
1
 50
0
 73
    2
 44
1
  0
SOLID
  5
1C5
100
AcDbEntity
  8
Cotas
  6
ByBlock
 62
    0
370
   -2
100
AcDbTrace
 10
393
 20
-8.460607985830542
 30
0
 11
396
 21
-7.961066396503134
 31
0
 12
396
 22
-8.960149575157951
 32
0
 13
396
 23
-8.960149575157951
 33
0
  0
SOLID
  5
1C6
100
AcDbEntity
  8
Cotas
  6
ByBlock
 62
    0
370
   -2
100
AcDbTrace
 10
433
 20
-8.460607985830542
 30
0
 11
430
 21
-8.960149575157951
 31
0
 12
430
 22
-7.961066396503133
 32
0
 13
430
 23
-7.961066396503133
 33
0
  0
LINE
  5
1C7
100
AcDbEntity
  8
Cotas
  6
ByBlock
 62
    0
370
   -2
100
AcDbLine
 10
393
 20
0.9143920141694579
 11
393
 21
-9.710607985830542
  0
LINE
  5
1C8
100
AcDbEntity
  8
Cotas
  6
ByBlock
 62
    0
370
   -2
100
AcDbLine
 10
433
 20
0.9143920141694579
 11
433
 21
-9.710607985830542
  0
ENDBLK
  5
C4
330
C2
100
AcDbEntity
  8
0
100
AcDbBlockEnd
  0
BLOCK
  5
C6
330
C5
100
AcDbEntity
  8
0
100
AcDbBlockBegin
  2
*D11
 70
    1
 10
0
 20
0
  3
*D11
  1

  0
LINE
  5
1C9
100
AcDbEntity
  8
Cotas
  6
ByBlock
 62
    0
370
   -2
100
AcDbLine
 10
280
 20
90.625
 11
280
 21
101.25
  0
LINE
  5
1CA
100
AcDbEntity
  8
Cotas
  6
ByBlock
 62
    0
370
   -2
100
AcDbLine
 10
300
 20
90.625
 11
300
 21
101.25
  0
LINE
  5
1CB
100
AcDbEntity
  8
Cotas
  6
ByBlock
 62
    0
370
   -2
100
AcDbLine
 10
280
 20
100
 11
300
 21
100
  0
MTEXT
  5
1CC
100
AcDbEntity
  8
Cotas
  6
CONTINUOUS
 62
    0
370
   -2
100
AcDbMText
 10
290
 20
102.625
 30
0
 40
4
 41
4.888888888888888
 71
    5
 72
    1
  1
20
  7
standard
210
0
220
0
230
1
 50
0
 73
    2
 44
1
  0
SOLID
  5
1CD
100
AcDbEntity
  8
Cotas
  6
ByBlock
 62
    0
370
   -2
100
AcDbTrace
 10
280
 20
100
 30
0
 11
283
 21
100.4995415893274
 31
0
 12
283
 22
99.50045841067259
 32
0
 13
283
 23
99.50045841067259
 33
0
  0
SOLID
  5
1CE
100
AcDbEntity
  8
Cotas
  6
ByBlock
 62
    0
370
   -2
100
AcDbTrace
 10
300
 20
100
 30
0
 11
297
 21
99.50045841067259
 31
0
 12
297
 22
100.4995415893274
 32
0
 13
297
 23
100.4995415893274
 33
0
  0
ENDBLK
  5
C7
330
C5
100
AcDbEntity
  8
0
100
AcDbBlockEnd
  0
BLOCK
  5
C9
330
C8
100
AcDbEntity
  8
0
100
AcDbBlockBegin
  2
*D24
 70
    1
 10
0
 20
0
  3
*D24
  1

  0
LINE
  5
1CF
100
AcDbEntity
  8
Cotas
  6
ByBlock
 62
    0
370
   -2
100
AcDbLine
 10
285
 20
-30
 11
300
 21
-30
  0
MTEXT
  5
1D0
100
AcDbEntity
  8
Cotas
  6
CONTINUOUS
 62
    0
370
   -2
100
AcDbMText
 10
292.5
 20
-27.375
 30
0
 40
4
 41
4.000000000000248
 71
    5
 72
    1
  1
15
  7
standard
210
0
220
0
230
1
 50
0
 73
    2
 44
1
  0
SOLID
  5
1D1
100
AcDbEntity
  8
Cotas
  6
ByBlock
 62
    0
370
   -2
100
AcDbTrace
 10
285
 20
-30
 30
0
 11
288
 21
-29.50045841067259
 31
0
 12
288
 22
-30.49954158932741
 32
0
 13
288
 23
-30.49954158932741
 33
0
  0
SOLID
  5
1D2
100
AcDbEntity
  8
Cotas
  6
ByBlock
 62
    0
370
   -2
100
AcDbTrace
 10
300
 20
-30
 30
0
 11
297
 21
-30.49954158932741
 31
0
 12
297
 22
-29.50045841067259
 32
0
 13
297
 23
-29.50045841067259
 33
0
  0
LINE
  5
1D3
100
AcDbEntity
  8
Cotas
  6
ByBlock
 62
    0
370
   -2
100
AcDbLine
 10
285
 20
-39.375
 11
285
 21
-28.75
  0
LINE
  5
1D4
100
AcDbEntity
  8
Cotas
  6
ByBlock
 62
    0
370
   -2
100
AcDbLine
 10
300
 20
-44.375
 11
300
 21
-28.75
  0
ENDBLK
  5
CA
330
C8
100
AcDbEntity
  8
0
100
AcDbBlockEnd
  0
BLOCK
  5
CC
330
CB
100
AcDbEntity
  8
0
100
AcDbBlockBegin
  2
*D14
 70
    1
 10
0
 20
0
  3
*D14
  1

  0
LINE
  5
1D5
100
AcDbEntity
  8
Cotas
  6
ByBlock
 62
    0
370
   -2
100
AcDbLine
 10
300
 20
20.625
 11
300
 21
31.25
  0
LINE
  5
1D6
100
AcDbEntity
  8
Cotas
  6
ByBlock
 62
    0
370
   -2
100
AcDbLine
 10
210
 20
20.625
 11
210
 21
31.25
  0
LINE
  5
1D7
100
AcDbEntity
  8
Cotas
  6
ByBlock
 62
    0
370
   -2
100
AcDbLine
 10
300
 20
30
 11
210
 21
30
  0
MTEXT
  5
1D8
100
AcDbEntity
  8
Cotas
  6
CONTINUOUS
 62
    0
370
   -2
100
AcDbMText
 10
255
 20
32.625
 30
0
 40
4
 41
4.888888888889136
 71
    5
 72
    1
  1
90
  7
standard
210
0
220
0
230
1
 50
0
 73
    2
 44
1
  0
SOLID
  5
1D9
100
AcDbEntity
  8
Cotas
  6
ByBlock
 62
    0
370
   -2
100
AcDbTrace
 10
300
 20
30
 30
0
 11
297
 21
29.50045841067259
 31
0
 12
297
 22
30.49954158932741
 32
0
 13
297
 23
30.49954158932741
 33
0
  0
SOLID
  5
1DA
100
AcDbEntity
  8
Cotas
  6
ByBlock
 62
    0
370
   -2
100
AcDbTrace
 10
210
 20
30
 30
0
 11
213
 21
30.49954158932741
 31
0
 12
213
 22
29.50045841067259
 32
0
 13
213
 23
29.50045841067259
 33
0
  0
ENDBLK
  5
CD
330
CB
100
AcDbEntity
  8
0
100
AcDbBlockEnd
  0
BLOCK
  5
CF
330
CE
100
AcDbEntity
  8
0
100
AcDbBlockBegin
  2
*D12
 70
    1
 10
0
 20
0
  3
*D12
  1

  0
LINE
  5
1DB
100
AcDbEntity
  8
Cotas
  6
ByBlock
 62
    0
370
   -2
100
AcDbLine
 10
300.625
 20
90
 11
311.25
 21
90
  0
LINE
  5
1DC
100
AcDbEntity
  8
Cotas
  6
ByBlock
 62
    0
370
   -2
100
AcDbLine
 10
300.625
 20
40
 11
311.25
 21
40
  0
LINE
  5
1DD
100
AcDbEntity
  8
Cotas
  6
ByBlock
 62
    0
370
   -2
100
AcDbLine
 10
310
 20
90
 11
310
 21
40
  0
MTEXT
  5
1DE
100
AcDbEntity
  8
Cotas
  6
CONTINUOUS
 62
    0
370
   -2
100
AcDbMText
 10
307.375
 20
65
 30
0
 40
4
 41
4.888888888889136
 71
    5
 72
    1
  1
50
  7
standard
210
0
220
0
230
1
 50
90
 73
    2
 44
1
  0
SOLID
  5
1DF
100
AcDbEntity
  8
Cotas
  6
ByBlock
 62
    0
370
   -2
100
AcDbTrace
 10
310
 20
90
 30
0
 11
310.4995415893274
 21
87
 31
0
 12
309.5004584106726
 22
87
 32
0
 13
309.5004584106726
 23
87
 33
0
  0
SOLID
  5
1E0
100
AcDbEntity
  8
Cotas
  6
ByBlock
 62
    0
370
   -2
100
AcDbTrace
 10
310
 20
40
 30
0
 11
309.5004584106726
 21
43
 31
0
 12
310.4995415893274
 22
43
 32
0
 13
310.4995415893274
 23
43
 33
0
  0
ENDBLK
  5
D0
330
CE
100
AcDbEntity
  8
0
100
AcDbBlockEnd
  0
BLOCK
  5
D2
330
D1
100
AcDbEntity
  8
0
100
AcDbBlockBegin
  2
*D13
 70
    1
 10
0
 20
0
  3
*D13
  1

  0
LINE
  5
1E1
100
AcDbEntity
  8
Cotas
  6
ByBlock
 62
    0
370
   -2
100
AcDbLine
 10
300.625
 20
20
 11
311.25
 21
20
  0
LINE
  5
1E2
100
AcDbEntity
  8
Cotas
  6
ByBlock
 62
    0
370
   -2
100
AcDbLine
 10
300.625
 20
0
 11
311.25
 21
0
  0
LINE
  5
1E3
100
AcDbEntity
  8
Cotas
  6
ByBlock
 62
    0
370
   -2
100
AcDbLine
 10
310
 20
20
 11
310
 21
0
  0
MTEXT
  5
1E4
100
AcDbEntity
  8
Cotas
  6
CONTINUOUS
 62
    0
370
   -2
100
AcDbMText
 10
307.375
 20
10
 30
0
 40
4
 41
4.888888888888888
 71
    5
 72
    1
  1
20
  7
standard
210
0
220
0
230
1
 50
90
 73
    2
 44
1
  0
SOLID
  5
1E5
100
AcDbEntity
  8
Cotas
  6
ByBlock
 62
    0
370
   -2
100
AcDbTrace
 10
310
 20
20
 30
0
 11
310.4995415893274
 21
17
 31
0
 12
309.5004584106726
 22
17
 32
0
 13
309.5004584106726
 23
17
 33
0
  0
SOLID
  5
1E6
100
AcDbEntity
  8
Cotas
  6
ByBlock
 62
    0
370
   -2
100
AcDbTrace
 10
310
 20
0
 30
0
 11
309.5004584106726
 21
3
 31
0
 12
310.4995415893274
 22
3
 32
0
 13
310.4995415893274
 23
3
 33
0
  0
ENDBLK
  5
D3
330
D1
100
AcDbEntity
  8
0
100
AcDbBlockEnd
  0
BLOCK
  5
D5
330
D4
100
AcDbEntity
  8
0
100
AcDbBlockBegin
  2
*D52
 70
    1
 10
0
 20
0
  3
*D52
  1

  0
LINE
  5
1E7
100
AcDbEntity
  8
Cotas
  6
ByBlock
 62
    0
370
   -2
100
AcDbLine
 10
595.9289321881345
 20
32.46832420230398
 11
610.0710678118655
 21
46.61045982603493
  0
MTEXT
  5
1E8
100
AcDbEntity
  8
Cotas
  6
CONTINUOUS
 62
    0
370
   -2
100
AcDbMText
 10
601.1438446993853
 20
41.39554731478415
 30
0
 40
4
 41
4.888888888888888
 71
    5
 72
    1
  1
20
  7
standard
210
0
220
0
230
1
 50
44.99999999999977
 73
    2
 44
1
  0
SOLID
  5
1E9
100
AcDbEntity
  8
Cotas
  6
ByBlock
 62
    0
370
   -2
100
AcDbTrace
 10
595.9289321881345
 20
32.46832420230398
 30
0
 11
597.697023286396
 21
34.94287379116173
 31
0
 12
598.4034817769922
 22
34.2364153005655
 32
0
 13
598.4034817769922
 23
34.2364153005655
 33
0
  0
SOLID
  5
1EA
100
AcDbEntity
  8
Cotas
  6
ByBlock
 62
    0
370
   -2
100
AcDbTrace
 10
610.0710678118655
 20
46.61045982603493
 30
0
 11
608.302976713604
 21
44.13591023717719
 31
0
 12
607.5965182230078
 22
44.84236872777342
 32
0
 13
607.5965182230078
 23
44.84236872777342
 33
0
  0
ENDBLK
  5
D6
330
D4
100
AcDbEntity
  8
0
100
AcDbBlockEnd
  0
BLOCK
  5
D8
330
D7
100
AcDbEntity
  8
0
100
AcDbBlockBegin
  2
*D3
 70
    1
 10
0
 20
0
  3
*D3
  1

  0
LINE
  5
1EB
100
AcDbEntity
  8
Cotas
  6
ByBlock
 62
    0
370
   -2
100
AcDbLine
 10
23.02943725152286
 20
13.02943725152286
 11
56.97056274847714
 21
46.97056274847714
  0
MTEXT
  5
1EC
100
AcDbEntity
  8
Cotas
  6
CONTINUOUS
 62
    0
370
   -2
100
AcDbMText
 10
38.14384469938531
 20
31.85615530061469
 30
0
 40
4
 41
9.333333333333332
 71
    5
 72
    1
  1
%%C48
  7
standard
210
0
220
0
230
1
 50
45
 73
    2
 44
1
  0
SOLID
  5
1ED
100
AcDbEntity
  8
Cotas
  6
ByBlock
 62
    0
370
   -2
100
AcDbTrace
 10
23.02943725152286
 20
13.02943725152286
 30
0
 11
24.79752834978439
 21
15.50398684038062
 31
0
 12
25.50398684038062
 22
14.79752834978439
 32
0
 13
25.50398684038062
 23
14.79752834978439
 33
0
  0
SOLID
  5
1EE
100
AcDbEntity
  8
Cotas
  6
ByBlock
 62
    0
370
   -2
100
AcDbTrace
 10
56.97056274847714
 20
46.97056274847714
 30
0
 11
55.20247165021561
 21
44.49601315961938
 31
0
 12
54.49601315961938
 22
45.20247165021561
 32
0
 13
54.49601315961938
 23
45.20247165021561
 33
0
  0
ENDBLK
  5
D9
330
D7
100
AcDbEntity
  8
0
100
AcDbBlockEnd
  0
BLOCK
  5
DB
330
DA
100
AcDbEntity
  8
0
100
AcDbBlockBegin
  2
*D44
 70
    1
 10
0
 20
0
  3
*D44
  1

  0
LINE
  5
1EF
100
AcDbEntity
  8
Cotas
  6
ByBlock
 62
    0
370
   -2
100
AcDbLine
 10
373
 20
1.539392014169458
 11
373
 21
46.53939201416946
  0
MTEXT
  5
1F0
100
AcDbEntity
  8
Cotas
  6
CONTINUOUS
 62
    0
370
   -2
100
AcDbMText
 10
370.375
 20
24.03939201416946
 30
0
 40
4
 41
5.333333333333581
 71
    5
 72
    1
  1
45
  7
standard
210
0
220
0
230
1
 50
90
 73
    2
 44
1
  0
SOLID
  5
1F1
100
AcDbEntity
  8
Cotas
  6
ByBlock
 62
    0
370
   -2
100
AcDbTrace
 10
373
 20
1.539392014169458
 30
0
 11
372.5004584106726
 21
4.539392014169458
 31
0
 12
373.4995415893274
 22
4.539392014169458
 32
0
 13
373.4995415893274
 23
4.539392014169458
 33
0
  0
SOLID
  5
1F2
100
AcDbEntity
  8
Cotas
  6
ByBlock
 62
    0
370
   -2
100
AcDbTrace
 10
373
 20
46.53939201416946
 30
0
 11
373.4995415893274
 21
43.53939201416946
 31
0
 12
372.5004584106726
 22
43.53939201416946
 32
0
 13
372.5004584106726
 23
43.53939201416946
 33
0
  0
LINE
  5
1F3
100
AcDbEntity
  8
Cotas
  6
ByBlock
 62
    0
370
   -2
100
AcDbLine
 10
392.375
 20
1.539392014169458
 11
371.75
 21
1.539392014169458
  0
LINE
  5
1F4
100
AcDbEntity
  8
Cotas
  6
ByBlock
 62
    0
370
   -2
100
AcDbLine
 10
382.375
 20
46.53939201416946
 11
371.75
 21
46.53939201416946
  0
ENDBLK
  5
DC
330
DA
100
AcDbEntity
  8
0
100
AcDbBlockEnd
  0
BLOCK
  5
DE
330
DD
100
AcDbEntity
  8
0
100
AcDbBlockBegin
  2
*D31
 70
    1
 10
0
 20
0
  3
*D31
  1

  0
LINE
  5
1F5
100
AcDbEntity
  8
Cotas
  6
ByBlock
 62
    0
370
   -2
100
AcDbLine
 10
310
 20
-136
 11
310
 21
-119
  0
MTEXT
  5
1F6
100
AcDbEntity
  8
Cotas
  6
CONTINUOUS
 62
    0
370
   -2
100
AcDbMText
 10
307.375
 20
-127.5
 30
0
 40
4
 41
1.777777777778026
 71
    5
 72
    1
  1
5
  7
standard
210
0
220
0
230
1
 50
90
 73
    2
 44
1
  0
SOLID
  5
1F7
100
AcDbEntity
  8
Cotas
  6
ByBlock
 62
    0
370
   -2
100
AcDbTrace
 10
310
 20
-130
 30
0
 11
310.4995415893274
 21
-133
 31
0
 12
309.5004584106726
 22
-133
 32
0
 13
309.5004584106726
 23
-133
 33
0
  0
SOLID
  5
1F8
100
AcDbEntity
  8
Cotas
  6
ByBlock
 62
    0
370
   -2
100
AcDbTrace
 10
310
 20
-125
 30
0
 11
309.5004584106726
 21
-122
 31
0
 12
310.4995415893274
 22
-122
 32
0
 13
310.4995415893274
 23
-122
 33
0
  0
LINE
  5
1F9
100
AcDbEntity
  8
Cotas
  6
ByBlock
 62
    0
370
   -2
100
AcDbLine
 10
275.625
 20
-130
 11
311.25
 21
-130
  0
LINE
  5
1FA
100
AcDbEntity
  8
Cotas
  6
ByBlock
 62
    0
370
   -2
100
AcDbLine
 10
300.625
 20
-125
 11
311.25
 21
-125
  0
ENDBLK
  5
DF
330
DD
100
AcDbEntity
  8
0
100
AcDbBlockEnd
  0
BLOCK
  5
E1
330
E0
100
AcDbEntity
  8
0
100
AcDbBlockBegin
  2
*D45
 70
    1
 10
0
 20
0
  3
*D45
  1

  0
LINE
  5
1FB
100
AcDbEntity
  8
Cotas
  6
ByBlock
 62
    0
370
   -2
100
AcDbLine
 10
363
 20
1.539392014169465
 11
363
 21
91.53939201416947
  0
MTEXT
  5
1FC
100
AcDbEntity
  8
Cotas
  6
CONTINUOUS
 62
    0
370
   -2
100
AcDbMText
 10
360.375
 20
46.53939201416946
 30
0
 40
4
 41
4.888888888889136
 71
    5
 72
    1
  1
90
  7
standard
210
0
220
0
230
1
 50
90
 73
    2
 44
1
  0
SOLID
  5
1FD
100
AcDbEntity
  8
Cotas
  6
ByBlock
 62
    0
370
   -2
100
AcDbTrace
 10
363
 20
1.539392014169465
 30
0
 11
362.5004584106726
 21
4.539392014169465
 31
0
 12
363.4995415893274
 22
4.539392014169465
 32
0
 13
363.4995415893274
 23
4.539392014169465
 33
0
  0
SOLID
  5
1FE
100
AcDbEntity
  8
Cotas
  6
ByBlock
 62
    0
370
   -2
100
AcDbTrace
 10
363
 20
91.53939201416947
 30
0
 11
363.4995415893274
 21
88.53939201416947
 31
0
 12
362.5004584106726
 22
88.53939201416947
 32
0
 13
362.5004584106726
 23
88.53939201416947
 33
0
  0
LINE
  5
1FF
100
AcDbEntity
  8
Cotas
  6
ByBlock
 62
    0
370
   -2
100
AcDbLine
 10
392.375
 20
1.539392014169458
 11
361.75
 21
1.539392014169465
  0
LINE
  5
200
100
AcDbEntity
  8
Cotas
  6
ByBlock
 62
    0
370
   -2
100
AcDbLine
 10
402.375
 20
91.53939201416947
 11
361.75
 21
91.53939201416947
  0
ENDBLK
  5
E2
330
E0
100
AcDbEntity
  8
0
100
AcDbBlockEnd
  0
BLOCK
  5
E4
330
E3
100
AcDbEntity
  8
0
100
AcDbBlockBegin
  2
*D7
 70
    1
 10
0
 20
0
  3
*D7
  1

  0
LINE
  5
201
100
AcDbEntity
  8
Cotas
  6
ByBlock
 62
    0
370
   -2
100
AcDbLine
 10
180.625
 20
30
 11
191.25
 21
30
  0
LINE
  5
202
100
AcDbEntity
  8
Cotas
  6
ByBlock
 62
    0
370
   -2
100
AcDbLine
 10
180.625
 20
90
 11
191.25
 21
90
  0
LINE
  5
203
100
AcDbEntity
  8
Cotas
  6
ByBlock
 62
    0
370
   -2
100
AcDbLine
 10
190
 20
30
 11
190
 21
90
  0
MTEXT
  5
204
100
AcDbEntity
  8
Cotas
  6
CONTINUOUS
 62
    0
370
   -2
100
AcDbMText
 10
187.375
 20
60
 30
0
 40
4
 41
4.888888888889136
 71
    5
 72
    1
  1
60
  7
standard
210
0
220
0
230
1
 50
90
 73
    2
 44
1
  0
SOLID
  5
205
100
AcDbEntity
  8
Cotas
  6
ByBlock
 62
    0
370
   -2
100
AcDbTrace
 10
190
 20
30
 30
0
 11
189.5004584106726
 21
33
 31
0
 12
190.4995415893274
 22
33
 32
0
 13
190.4995415893274
 23
33
 33
0
  0
SOLID
  5
206
100
AcDbEntity
  8
Cotas
  6
ByBlock
 62
    0
370
   -2
100
AcDbTrace
 10
190
 20
90
 30
0
 11
190.4995415893274
 21
87
 31
0
 12
189.5004584106726
 22
87
 32
0
 13
189.5004584106726
 23
87
 33
0
  0
ENDBLK
  5
E5
330
E3
100
AcDbEntity
  8
0
100
AcDbBlockEnd
  0
BLOCK
  5
E7
330
E6
100
AcDbEntity
  8
0
100
AcDbBlockBegin
  2
*D37
 70
    1
 10
0
 20
0
  3
*D37
  1

  0
SOLID
  5
207
100
AcDbEntity
  8
Cotas
  6
ByBlock
 62
    0
370
   -2
100
AcDbTrace
 10
257.0710678118655
 20
-57.07106781186548
 30
0
 11
254.5965182230077
 21
-55.30297671360395
 31
0
 12
255.302976713604
 22
-54.59651822300772
 32
0
 13
255.302976713604
 23
-54.59651822300772
 33
0
  0
LINE
  5
208
100
AcDbEntity
  8
Cotas
  6
ByBlock
 62
    0
370
   -2
100
AcDbLine
 10
250
 20
-50
 11
257.0710678118655
 21
-57.07106781186549
  0
MTEXT
  5
209
100
AcDbEntity
  8
Cotas
  6
CONTINUOUS
 62
    0
370
   -2
100
AcDbMText
 10
255.3916892065474
 20
-51.67937860531805
 30
0
 40
4
 41
4
 71
    5
 72
    1
  1
10
  7
standard
210
0
220
0
230
1
 50
314.9999999999999
 73
    2
 44
1
  0
ENDBLK
  5
E8
330
E6
100
AcDbEntity
  8
0
100
AcDbBlockEnd
  0
BLOCK
  5
EA
330
E9
100
AcDbEntity
  8
0
100
AcDbBlockBegin
  2
*D2
 70
    1
 10
0
 20
0
  3
*D2
  1

  0
LINE
  5
20A
100
AcDbEntity
  8
Cotas
  6
ByBlock
 62
    0
370
   -2
100
AcDbLine
 10
-1.148106374200643e-16
 20
-0.625
 11
-2.066591473561158e-15
 21
-11.25
  0
LINE
  5
20B
100
AcDbEntity
  8
Cotas
  6
ByBlock
 62
    0
370
   -2
100
AcDbLine
 10
80
 20
-0.625
 11
80
 21
-11.25
  0
LINE
  5
20C
100
AcDbEntity
  8
Cotas
  6
ByBlock
 62
    0
370
   -2
100
AcDbLine
 10
-1.83697019872103e-15
 20
-10
 11
80
 21
-10
  0
MTEXT
  5
20D
100
AcDbEntity
  8
Cotas
  6
CONTINUOUS
 62
    0
370
   -2
100
AcDbMText
 10
40
 20
-7.375
 30
0
 40
4
 41
4.888888888888888
 71
    5
 72
    1
  1
80
  7
standard
210
0
220
0
230
1
 50
0
 73
    2
 44
1
  0
SOLID
  5
20E
100
AcDbEntity
  8
Cotas
  6
ByBlock
 62
    0
370
   -2
100
AcDbTrace
 10
-1.83697019872103e-15
 20
-10
 30
0
 11
2.999999999999998
 21
-9.500458410672591
 31
0
 12
2.999999999999998
 22
-10.49954158932741
 32
0
 13
2.999999999999998
 23
-10.49954158932741
 33
0
  0
SOLID
  5
20F
100
AcDbEntity
  8
Cotas
  6
ByBlock
 62
    0
370
   -2
100
AcDbTrace
 10
80
 20
-10
 30
0
 11
77
 21
-10.49954158932741
 31
0
 12
77
 22
-9.500458410672591
 32
0
 13
77
 23
-9.500458410672591
 33
0
  0
ENDBLK
  5
EB
330
E9
100
AcDbEntity
  8
0
100
AcDbBlockEnd
  0
BLOCK
  5
ED
330
EC
100
AcDbEntity
  8
0
100
AcDbBlockBegin
  2
*D55
 70
    1
 10
0
 20
0
  3
*D55
  1

  0
LINE
  5
210
100
AcDbEntity
  8
Cotas
  6
CONTINUOUS
 62
    7
370
    0
100
AcDbLine
 10
499
 20
43
 11
493
 21
48
  0
LINE
  5
211
100
AcDbEntity
  8
Cotas
  6
CONTINUOUS
 62
    7
370
    0
100
AcDbLine
 10
493
 20
48
 11
487
 21
48
  0
SOLID
  5
212
100
AcDbEntity
  8
Cotas
  6
CONTINUOUS
 62
    7
370
    0
100
AcDbTrace
 10
499
 20
43
 30
0
 11
496.3755374287369
 21
44.53679472002823
 31
0
 12
497.0151348936789
 22
45.30431167795865
 32
0
 13
497.0151348936789
 23
45.30431167795865
 33
0
  0
ENDBLK
  5
EE
330
EC
100
AcDbEntity
  8
0
100
AcDbBlockEnd
  0
BLOCK
  5
F0
330
EF
100
AcDbEntity
  8
0
100
AcDbBlockBegin
  2
*D50
 70
    1
 10
0
 20
0
  3
*D50
  1

  0
LINE
  5
213
100
AcDbEntity
  8
Cotas
  6
ByBlock
 62
    0
370
   -2
100
AcDbLine
 10
553
 20
69.53939201416947
 11
603
 21
69.53939201416947
  0
MTEXT
  5
214
100
AcDbEntity
  8
Cotas
  6
CONTINUOUS
 62
    0
370
   -2
100
AcDbMText
 10
578
 20
72.16439201416947
 30
0
 40
4
 41
4.888888888889136
 71
    5
 72
    1
  1
50
  7
standard
210
0
220
0
230
1
 50
0
 73
    2
 44
1
  0
SOLID
  5
215
100
AcDbEntity
  8
Cotas
  6
ByBlock
 62
    0
370
   -2
100
AcDbTrace
 10
553
 20
69.53939201416947
 30
0
 11
556
 21
70.03893360349687
 31
0
 12
556
 22
69.03985042484206
 32
0
 13
556
 23
69.03985042484206
 33
0
  0
SOLID
  5
216
100
AcDbEntity
  8
Cotas
  6
ByBlock
 62
    0
370
   -2
100
AcDbTrace
 10
603
 20
69.53939201416947
 30
0
 11
600
 21
69.03985042484206
 31
0
 12
600
 22
70.03893360349687
 32
0
 13
600
 23
70.03893360349687
 33
0
  0
LINE
  5
217
100
AcDbEntity
  8
Cotas
  6
ByBlock
 62
    0
370
   -2
100
AcDbLine
 10
553
 20
65.16439201416947
 11
553
 21
70.78939201416947
  0
LINE
  5
218
100
AcDbEntity
  8
Cotas
  6
ByBlock
 62
    0
370
   -2
100
AcDbLine
 10
603
 20
50.16439201416946
 11
603
 21
70.78939201416947
  0
ENDBLK
  5
F1
330
EF
100
AcDbEntity
  8
0
100
AcDbBlockEnd
  0
BLOCK
  5
F3
330
F2
100
AcDbEntity
  8
0
100
AcDbBlockBegin
  2
*D9
 70
    1
 10
0
 20
0
  3
*D9
  1

  0
LINE
  5
219
100
AcDbEntity
  8
Cotas
  6
ByBlock
 62
    0
370
   -2
100
AcDbLine
 10
149.375
 20
90
 11
138.75
 21
90
  0
LINE
  5
21A
100
AcDbEntity
  8
Cotas
  6
ByBlock
 62
    0
370
   -2
100
AcDbLine
 10
149.375
 20
60
 11
138.75
 21
60
  0
LINE
  5
21B
100
AcDbEntity
  8
Cotas
  6
ByBlock
 62
    0
370
   -2
100
AcDbLine
 10
140
 20
90
 11
140
 21
60
  0
MTEXT
  5
21C
100
AcDbEntity
  8
Cotas
  6
CONTINUOUS
 62
    0
370
   -2
100
AcDbMText
 10
137.375
 20
75
 30
0
 40
4
 41
4.888888888889136
 71
    5
 72
    1
  1
30
  7
standard
210
0
220
0
230
1
 50
90
 73
    2
 44
1
  0
SOLID
  5
21D
100
AcDbEntity
  8
Cotas
  6
ByBlock
 62
    0
370
   -2
100
AcDbTrace
 10
140
 20
90
 30
0
 11
140.4995415893274
 21
87
 31
0
 12
139.5004584106726
 22
87
 32
0
 13
139.5004584106726
 23
87
 33
0
  0
SOLID
  5
21E
100
AcDbEntity
  8
Cotas
  6
ByBlock
 62
    0
370
   -2
100
AcDbTrace
 10
140
 20
60
 30
0
 11
139.5004584106726
 21
63
 31
0
 12
140.4995415893274
 22
63
 32
0
 13
140.4995415893274
 23
63
 33
0
  0
ENDBLK
  5
F4
330
F2
100
AcDbEntity
  8
0
100
AcDbBlockEnd
  0
BLOCK
  5
F6
330
F5
100
AcDbEntity
  8
0
100
AcDbBlockBegin
  2
*D40
 70
    1
 10
0
 20
0
  3
*D40
  1

  0
SOLID
  5
21F
100
AcDbEntity
  8
Cotas
  6
ByBlock
 62
    0
370
   -2
100
AcDbTrace
 10
174.142135623731
 20
-94.14213562373095
 30
0
 11
171.6675860348732
 21
-92.37404452546943
 31
0
 12
172.3740445254695
 22
-91.6675860348732
 32
0
 13
172.3740445254695
 23
-91.6675860348732
 33
0
  0
LINE
  5
220
100
AcDbEntity
  8
Cotas
  6
ByBlock
 62
    0
370
   -2
100
AcDbLine
 10
160
 20
-80
 11
174.142135623731
 21
-94.14213562373097
  0
MTEXT
  5
221
100
AcDbEntity
  8
Cotas
  6
CONTINUOUS
 62
    0
370
   -2
100
AcDbMText
 10
168.9272231124802
 20
-85.21491251125079
 30
0
 40
4
 41
4.888888888888888
 71
    5
 72
    1
  1
20
  7
standard
210
0
220
0
230
1
 50
315.0000000000001
 73
    2
 44
1
  0
ENDBLK
  5
F7
330
F5
100
AcDbEntity
  8
0
100
AcDbBlockEnd
  0
ENDSEC
  0
SECTION
  2
ENTITIES
  0
LWPOLYLINE
  5
222
100
AcDbEntity
  8
Dibujo
  6
ByLayer
 62
  256
370
   -1
100
AcDbPolyline
 90
    4
 70
    1
 43
0
 10
0
 20
0
 10
80
 20
0
 10
80
 20
60
 10
0
 20
60
  0
LINE
  5
223
100
AcDbEntity
  8
Dibujo
  6
ByLayer
 62
  256
370
   -1
100
AcDbLine
 10
0
 20
30
 11
40
 21
0
  0
LINE
  5
224
100
AcDbEntity
  8
Dibujo
  6
ByLayer
 62
  256
370
   -1
100
AcDbLine
 10
40
 20
0
 11
80
 21
30
  0
LINE
  5
225
100
AcDbEntity
  8
Dibujo
  6
ByLayer
 62
  256
370
   -1
100
AcDbLine
 10
80
 20
30
 11
40
 21
60
  0
LINE
  5
226
100
AcDbEntity
  8
Dibujo
  6
ByLayer
 62
  256
370
   -1
100
AcDbLine
 10
40
 20
60
 11
0
 21
30
  0
CIRCLE
  5
227
100
AcDbEntity
  8
Dibujo
  6
ByLayer
 62
  256
370
   -1
100
AcDbCircle
 10
40
 20
30
 40
24
  0
DIMENSION
  5
228
100
AcDbEntity
  8
Cotas
  6
ByLayer
 62
  256
370
   -1
100
AcDbDimension
  2
*D1
 10
90
 20
60
 30
0
 11
87.375
 21
30
 31
0
 70
   33
 71
    5
 72
    0
  3
Standard
 53
0
210
0
220
0
230
1
100
AcDbAlignedDimension
 13
80
 23
0
 33
0
 14
80
 24
60
 34
0
  0
DIMENSION
  5
229
100
AcDbEntity
  8
Cotas
  6
ByLayer
 62
  256
370
   -1
100
AcDbDimension
  2
*D2
 10
80
 20
-10
 30
0
 11
40
 21
-7.375
 31
0
 70
   33
 71
    5
 72
    0
  3
Standard
 53
0
210
0
220
0
230
1
100
AcDbAlignedDimension
 13
0
 23
0
 33
0
 14
80
 24
0
 34
0
  0
DIMENSION
  5
22A
100
AcDbEntity
  8
Cotas
  6
ByLayer
 62
  256
370
   -1
100
AcDbDimension
  2
*D3
 10
23.02943725152286
 20
13.02943725152286
 30
0
 11
38.14384469938531
 21
31.85615530061469
 31
0
 70
   35
  1
%%C<>
 71
    5
 72
    0
  3
Standard
 53
0
210
0
220
0
230
1
100
AcDbDiametricDimension
 15
56.97056274847714
 25
46.97056274847714
 35
0
 40
0
  0
ARC
  5
22B
100
AcDbEntity
  8
Dibujo
  6
ByLayer
 62
  256
370
   -1
100
AcDbCircle
 10
0
 20
0
 40
0
100
AcDbArc
 50
0
 51
0
  0
LINE
  5
22C
100
AcDbEntity
  8
Dibujo
  6
ByLayer
 62
  256
370
   -1
100
AcDbLine
 10
150
 20
0
 11
150
 21
30
  0
LINE
  5
22D
100
AcDbEntity
  8
Dibujo
  6
ByLayer
 62
  256
370
   -1
100
AcDbLine
 10
150
 20
30
 11
180
 21
30
  0
LINE
  5
22E
100
AcDbEntity
  8
Dibujo
  6
ByLayer
 62
  256
370
   -1
100
AcDbLine
 10
180
 20
30
 11
180
 21
90
  0
LINE
  5
22F
100
AcDbEntity
  8
Dibujo
  6
ByLayer
 62
  256
370
   -1
100
AcDbLine
 10
180
 20
90
 11
150
 21
90
  0
LINE
  5
230
100
AcDbEntity
  8
Dibujo
  6
ByLayer
 62
  256
370
   -1
100
AcDbLine
 10
150
 20
90
 11
150
 21
60
  0
LINE
  5
231
100
AcDbEntity
  8
Dibujo
  6
ByLayer
 62
  256
370
   -1
100
AcDbLine
 10
150
 20
0
 11
300
 21
0
  0
LINE
  5
232
100
AcDbEntity
  8
Dibujo
  6
ByLayer
 62
  256
370
   -1
100
AcDbLine
 10
300
 20
0
 11
300
 21
20
  0
LINE
  5
233
100
AcDbEntity
  8
Dibujo
  6
ByLayer
 62
  256
370
   -1
100
AcDbLine
 10
300
 20
20
 11
250
 21
20
  0
LINE
  5
234
100
AcDbEntity
  8
Dibujo
  6
ByLayer
 62
  256
370
   -1
100
AcDbLine
 10
250
 20
20
 11
210
 21
20
  0
LINE
  5
235
100
AcDbEntity
  8
Dibujo
  6
ByLayer
 62
  256
370
   -1
100
AcDbLine
 10
210
 20
20
 11
210
 21
90
  0
LINE
  5
236
100
AcDbEntity
  8
Dibujo
  6
ByLayer
 62
  256
370
   -1
100
AcDbLine
 10
210
 20
90
 11
260
 21
90
  0
LINE
  5
237
100
AcDbEntity
  8
Dibujo
  6
ByLayer
 62
  256
370
   -1
100
AcDbLine
 10
260
 20
90
 11
260
 21
70
  0
LINE
  5
238
100
AcDbEntity
  8
Dibujo
  6
ByLayer
 62
  256
370
   -1
100
AcDbLine
 10
260
 20
70
 11
230
 21
70
  0
LINE
  5
239
100
AcDbEntity
  8
Dibujo
  6
ByLayer
 62
  256
370
   -1
100
AcDbLine
 10
230
 20
70
 11
230
 21
40
  0
LINE
  5
23A
100
AcDbEntity
  8
Dibujo
  6
ByLayer
 62
  256
370
   -1
100
AcDbLine
 10
230
 20
40
 11
300
 21
40
  0
LINE
  5
23B
100
AcDbEntity
  8
Dibujo
  6
ByLayer
 62
  256
370
   -1
100
AcDbLine
 10
300
 20
40
 11
300
 21
90
  0
LINE
  5
23C
100
AcDbEntity
  8
Dibujo
  6
ByLayer
 62
  256
370
   -1
100
AcDbLine
 10
300
 20
90
 11
280
 21
90
  0
DIMENSION
  5
23D
100
AcDbEntity
  8
Cotas
  6
ByLayer
 62
  256
370
   -1
100
AcDbDimension
  2
*D4
 10
300
 20
-10
 30
0
 11
225
 21
-7.375
 31
0
 70
   33
 71
    5
 72
    0
  3
Standard
 53
0
210
0
220
0
230
1
100
AcDbAlignedDimension
 13
150
 23
0
 33
0
 14
300
 24
0
 34
0
  0
DIMENSION
  5
23E
100
AcDbEntity
  8
Cotas
  6
ByLayer
 62
  256
370
   -1
100
AcDbDimension
  2
*D5
 10
180
 20
40
 30
0
 11
165
 21
42.625
 31
0
 70
   33
 71
    5
 72
    0
  3
Standard
 53
0
210
0
220
0
230
1
100
AcDbAlignedDimension
 13
150
 23
30
 33
0
 14
180
 24
30
 34
0
  0
DIMENSION
  5
23F
100
AcDbEntity
  8
Cotas
  6
ByLayer
 62
  256
370
   -1
100
AcDbDimension
  2
*D6
 10
140
 20
-1.103420080505794e-15
 30
0
 11
137.375
 21
15
 31
0
 70
   33
 71
    5
 72
    0
  3
Standard
 53
0
210
0
220
0
230
1
100
AcDbAlignedDimension
 13
150
 23
30
 33
0
 14
150
 24
0
 34
0
  0
DIMENSION
  5
240
100
AcDbEntity
  8
Cotas
  6
ByLayer
 62
  256
370
   -1
100
AcDbDimension
  2
*D7
 10
190
 20
90
 30
0
 11
187.375
 21
60
 31
0
 70
   33
 71
    5
 72
    0
  3
Standard
 53
0
210
0
220
0
230
1
100
AcDbAlignedDimension
 13
180
 23
30
 33
0
 14
180
 24
90
 34
0
  0
DIMENSION
  5
241
100
AcDbEntity
  8
Cotas
  6
ByLayer
 62
  256
370
   -1
100
AcDbDimension
  2
*D8
 10
180
 20
100
 30
0
 11
165
 21
102.625
 31
0
 70
   33
 71
    5
 72
    0
  3
Standard
 53
0
210
0
220
0
230
1
100
AcDbAlignedDimension
 13
150
 23
90
 33
0
 14
180
 24
90
 34
0
  0
DIMENSION
  5
242
100
AcDbEntity
  8
Cotas
  6
ByLayer
 62
  256
370
   -1
100
AcDbDimension
  2
*D9
 10
140
 20
60
 30
0
 11
137.375
 21
75
 31
0
 70
   33
 71
    5
 72
    0
  3
Standard
 53
0
210
0
220
0
230
1
100
AcDbAlignedDimension
 13
150
 23
90
 33
0
 14
150
 24
60
 34
0
  0
DIMENSION
  5
243
100
AcDbEntity
  8
Cotas
  6
ByLayer
 62
  256
370
   -1
100
AcDbDimension
  2
*D10
 10
260
 20
100
 30
0
 11
235
 21
102.625
 31
0
 70
   33
 71
    5
 72
    0
  3
Standard
 53
0
210
0
220
0
230
1
100
AcDbAlignedDimension
 13
210
 23
90
 33
0
 14
260
 24
90
 34
0
  0
DIMENSION
  5
244
100
AcDbEntity
  8
Cotas
  6
ByLayer
 62
  256
370
   -1
100
AcDbDimension
  2
*D11
 10
300
 20
100
 30
0
 11
290
 21
102.625
 31
0
 70
   33
 71
    5
 72
    0
  3
Standard
 53
0
210
0
220
0
230
1
100
AcDbAlignedDimension
 13
280
 23
90
 33
0
 14
300
 24
90
 34
0
  0
DIMENSION
  5
245
100
AcDbEntity
  8
Cotas
  6
ByLayer
 62
  256
370
   -1
100
AcDbDimension
  2
*D12
 10
310
 20
40
 30
0
 11
307.375
 21
65
 31
0
 70
   33
 71
    5
 72
    0
  3
Standard
 53
0
210
0
220
0
230
1
100
AcDbAlignedDimension
 13
300
 23
90
 33
0
 14
300
 24
40
 34
0
  0
DIMENSION
  5
246
100
AcDbEntity
  8
Cotas
  6
ByLayer
 62
  256
370
   -1
100
AcDbDimension
  2
*D13
 10
310
 20
1.103420080505794e-15
 30
0
 11
307.375
 21
10
 31
0
 70
   33
 71
    5
 72
    0
  3
Standard
 53
0
210
0
220
0
230
1
100
AcDbAlignedDimension
 13
300
 23
20
 33
0
 14
300
 24
0
 34
0
  0
DIMENSION
  5
247
100
AcDbEntity
  8
Cotas
  6
ByLayer
 62
  256
370
   -1
100
AcDbDimension
  2
*D14
 10
210
 20
30
 30
0
 11
255
 21
32.625
 31
0
 70
   33
 71
    5
 72
    0
  3
Standard
 53
0
210
0
220
0
230
1
100
AcDbAlignedDimension
 13
300
 23
20
 33
0
 14
210
 24
20
 34
0
  0
DIMENSION
  5
248
100
AcDbEntity
  8
Cotas
  6
ByLayer
 62
  256
370
   -1
100
AcDbDimension
  2
*D15
 10
200
 20
90
 30
0
 11
197.375
 21
55
 31
0
 70
   33
 71
    5
 72
    0
  3
Standard
 53
0
210
0
220
0
230
1
100
AcDbAlignedDimension
 13
210
 23
20
 33
0
 14
210
 24
90
 34
0
  0
DIMENSION
  5
249
100
AcDbEntity
  8
Cotas
  6
ByLayer
 62
  256
370
   -1
100
AcDbDimension
  2
*D16
 10
270
 20
70
 30
0
 11
267.375
 21
80
 31
0
 70
   33
 71
    5
 72
    0
  3
Standard
 53
0
210
0
220
0
230
1
100
AcDbAlignedDimension
 13
260
 23
90
 33
0
 14
260
 24
70
 34
0
  0
DIMENSION
  5
24A
100
AcDbEntity
  8
Cotas
  6
ByLayer
 62
  256
370
   -1
100
AcDbDimension
  2
*D17
 10
300
 20
50
 30
0
 11
265
 21
52.625
 31
0
 70
   33
 71
    5
 72
    0
  3
Standard
 53
0
210
0
220
0
230
1
100
AcDbAlignedDimension
 13
230
 23
40
 33
0
 14
300
 24
40
 34
0
  0
DIMENSION
  5
24B
100
AcDbEntity
  8
Cotas
  6
ByLayer
 62
  256
370
   -1
100
AcDbDimension
  2
*D18
 10
220
 20
70
 30
0
 11
217.375
 21
55
 31
0
 70
   33
 71
    5
 72
    0
  3
Standard
 53
0
210
0
220
0
230
1
100
AcDbAlignedDimension
 13
230
 23
40
 33
0
 14
230
 24
70
 34
0
  0
LINE
  5
24C
100
AcDbEntity
  8
Dibujo
  6
ByLayer
 62
  256
370
   -1
100
AcDbLine
 10
150
 20
-60
 11
150
 21
-70
  0
LINE
  5
24D
100
AcDbEntity
  8
Dibujo
  6
ByLayer
 62
  256
370
   -1
100
AcDbLine
 10
180
 20
-40
 11
170
 21
-40
  0
LINE
  5
24E
100
AcDbEntity
  8
Dibujo
  6
ByLayer
 62
  256
370
   -1
100
AcDbLine
 10
150
 20
-60
 11
170
 21
-40
  0
LINE
  5
24F
100
AcDbEntity
  8
Dibujo
  6
ByLayer
 62
  256
370
   -1
100
AcDbLine
 10
210
 20
-70
 11
240
 21
-40
  0
LINE
  5
250
100
AcDbEntity
  8
Dibujo
  6
ByLayer
 62
  256
370
   -1
100
AcDbLine
 10
240
 20
-40
 11
245
 21
-40
  0
LINE
  5
251
100
AcDbEntity
  8
Dibujo
  6
ByLayer
 62
  256
370
   -1
100
AcDbLine
 10
245
 20
-40
 11
260
 21
-45
  0
LINE
  5
252
100
AcDbEntity
  8
Dibujo
  6
ByLayer
 62
  256
370
   -1
100
AcDbLine
 10
150
 20
-105
 11
155
 21
-100
  0
LINE
  5
253
100
AcDbEntity
  8
Dibujo
  6
ByLayer
 62
  256
370
   -1
100
AcDbLine
 10
275
 20
-130
 11
300
 21
-125
  0
LINE
  5
254
100
AcDbEntity
  8
Dibujo
  6
ByLayer
 62
  256
370
   -1
100
AcDbLine
 10
285
 20
-110
 11
250
 21
-110
  0
LINE
  5
255
100
AcDbEntity
  8
Dibujo
  6
ByLayer
 62
  256
370
   -1
100
AcDbLine
 10
300
 20
-125
 11
300
 21
-120
  0
LINE
  5
256
100
AcDbEntity
  8
Dibujo
  6
ByLayer
 62
  256
370
   -1
100
AcDbLine
 10
285
 20
-110
 11
300
 21
-120
  0
LINE
  5
257
100
AcDbEntity
  8
Dibujo
  6
ByLayer
 62
  256
370
   -1
100
AcDbLine
 10
210
 20
-80
 11
210
 21
-70
  0
LINE
  5
258
100
AcDbEntity
  8
Dibujo
  6
ByLayer
 62
  256
370
   -1
100
AcDbLine
 10
250
 20
-110
 11
230
 21
-110
  0
LINE
  5
259
100
AcDbEntity
  8
Dibujo
  6
ByLayer
 62
  256
370
   -1
100
AcDbLine
 10
210
 20
-80
 11
230
 21
-110
  0
LINE
  5
25A
100
AcDbEntity
  8
Dibujo
  6
ByLayer
 62
  256
370
   -1
100
AcDbLine
 10
180
 20
-80
 11
180
 21
-40
  0
LINE
  5
25B
100
AcDbEntity
  8
Dibujo
  6
ByLayer
 62
  256
370
   -1
100
AcDbLine
 10
155
 20
-100
 11
160
 21
-100
  0
ARC
  5
25C
100
AcDbEntity
  8
Dibujo
  6
ByLayer
 62
  256
370
   -1
100
AcDbCircle
 10
160
 20
-80
 40
20
100
AcDbArc
 50
270
 51
0
  0
LINE
  5
25D
100
AcDbEntity
  8
Dibujo
  6
ByLayer
 62
  256
370
   -1
100
AcDbLine
 10
165
 20
-130
 11
275
 21
-130
  0
LINE
  5
25E
100
AcDbEntity
  8
Dibujo
  6
ByLayer
 62
  256
370
   -1
100
AcDbLine
 10
150
 20
-115
 11
150
 21
-105
  0
ARC
  5
25F
100
AcDbEntity
  8
Dibujo
  6
ByLayer
 62
  256
370
   -1
100
AcDbCircle
 10
165
 20
-115
 40
15
100
AcDbArc
 50
180
 51
270
  0
ARC
  5
260
100
AcDbEntity
  8
Dibujo
  6
ByLayer
 62
  256
370
   -1
100
AcDbCircle
 10
245
 20
-75
 40
15
100
AcDbArc
 50
180
 51
270
  0
LINE
  5
261
100
AcDbEntity
  8
Dibujo
  6
ByLayer
 62
  256
370
   -1
100
AcDbLine
 10
245
 20
-90
 11
270
 21
-90
  0
ARC
  5
262
100
AcDbEntity
  8
Dibujo
  6
ByLayer
 62
  256
370
   -1
100
AcDbCircle
 10
270
 20
-60
 40
30
100
AcDbArc
 50
270
 51
0
  0
LINE
  5
263
100
AcDbEntity
  8
Dibujo
  6
ByLayer
 62
  256
370
   -1
100
AcDbLine
 10
260
 20
-45
 11
260
 21
-50
  0
ARC
  5
264
100
AcDbEntity
  8
Dibujo
  6
ByLayer
 62
  256
370
   -1
100
AcDbCircle
 10
250
 20
-50
 40
10
100
AcDbArc
 50
270
 51
0
  0
DIMENSION
  5
265
100
AcDbEntity
  8
Cotas
  6
ByLayer
 62
  256
370
   -1
100
AcDbDimension
  2
*D19
 10
170
 20
-30
 30
0
 11
160
 21
-27.375
 31
0
 70
   32
 71
    5
 72
    0
  3
Standard
 53
0
210
0
220
0
230
1
100
AcDbAlignedDimension
 13
150
 23
-60
 33
0
 14
170
 24
-40
 34
0
100
AcDbRotatedDimension
  0
DIMENSION
  5
266
100
AcDbEntity
  8
Cotas
  6
ByLayer
 62
  256
370
   -1
100
AcDbDimension
  2
*D20
 10
140
 20
-39.99999999999999
 30
0
 11
137.375
 21
-50
 31
0
 70
   32
 71
    5
 72
    0
  3
Standard
 53
0
210
0
220
0
230
1
100
AcDbAlignedDimension
 13
150
 23
-60
 33
0
 14
170
 24
-40
 34
0
 50
90
100
AcDbRotatedDimension
  0
DIMENSION
  5
267
100
AcDbEntity
  8
Cotas
  6
ByLayer
 62
  256
370
   -1
100
AcDbDimension
  2
*D21
 10
140
 20
-105
 30
0
 11
137.375
 21
-102.5
 31
0
 70
   32
 71
    5
 72
    0
  3
Standard
 53
0
210
0
220
0
230
1
100
AcDbAlignedDimension
 13
155
 23
-100
 33
0
 14
150
 24
-105
 34
0
 50
90
100
AcDbRotatedDimension
  0
DIMENSION
  5
268
100
AcDbEntity
  8
Cotas
  6
ByLayer
 62
  256
370
   -1
100
AcDbDimension
  2
*D22
 10
200
 20
-80
 30
0
 11
197.375
 21
-95
 31
0
 70
   32
 71
    5
 72
    0
  3
Standard
 53
0
210
0
220
0
230
1
100
AcDbAlignedDimension
 13
230
 23
-110
 33
0
 14
210
 24
-80
 34
0
 50
90
100
AcDbRotatedDimension
  0
DIMENSION
  5
269
100
AcDbEntity
  8
Cotas
  6
ByLayer
 62
  256
370
   -1
100
AcDbDimension
  2
*D23
 10
200
 20
-70
 30
0
 11
197.375
 21
-55
 31
0
 70
   32
 71
    5
 72
    0
  3
Standard
 53
0
210
0
220
0
230
1
100
AcDbAlignedDimension
 13
240
 23
-40
 33
0
 14
210
 24
-70
 34
0
 50
90
100
AcDbRotatedDimension
  0
LINE
  5
26A
100
AcDbEntity
  8
Dibujo
  6
ByLayer
 62
  256
370
   -1
100
AcDbLine
 10
285
 20
-40
 11
280
 21
-40
  0
LINE
  5
26B
100
AcDbEntity
  8
Dibujo
  6
ByLayer
 62
  256
370
   -1
100
AcDbLine
 10
300
 20
-60
 11
300
 21
-45
  0
LINE
  5
26C
100
AcDbEntity
  8
Dibujo
  6
ByLayer
 62
  256
370
   -1
100
AcDbLine
 10
285
 20
-40
 11
300
 21
-45
  0
DIMENSION
  5
26D
100
AcDbEntity
  8
Cotas
  6
ByLayer
 62
  256
370
   -1
100
AcDbDimension
  2
*D24
 10
300
 20
-30
 30
0
 11
292.5
 21
-27.375
 31
0
 70
   32
 71
    5
 72
    0
  3
Standard
 53
0
210
0
220
0
230
1
100
AcDbAlignedDimension
 13
285
 23
-40
 33
0
 14
300
 24
-45
 34
0
100
AcDbRotatedDimension
  0
DIMENSION
  5
26E
100
AcDbEntity
  8
Cotas
  6
ByLayer
 62
  256
370
   -1
100
AcDbDimension
  2
*D25
 10
285
 20
-100
 30
0
 11
292.5
 21
-97.375
 31
0
 70
   32
 71
    5
 72
    0
  3
Standard
 53
0
210
0
220
0
230
1
100
AcDbAlignedDimension
 13
300
 23
-120
 33
0
 14
285
 24
-110
 34
0
100
AcDbRotatedDimension
  0
DIMENSION
  5
26F
100
AcDbEntity
  8
Cotas
  6
ByLayer
 62
  256
370
   -1
100
AcDbDimension
  2
*D26
 10
240
 20
-30
 30
0
 11
225
 21
-27.375
 31
0
 70
   32
 71
    5
 72
    0
  3
Standard
 53
0
210
0
220
0
230
1
100
AcDbAlignedDimension
 13
210
 23
-70
 33
0
 14
240
 24
-40
 34
0
100
AcDbRotatedDimension
  0
LINE
  5
270
100
AcDbEntity
  8
Dibujo
  6
ByLayer
 62
  256
370
   -1
100
AcDbLine
 10
250
 20
-60
 11
245
 21
-60
  0
LINE
  5
271
100
AcDbEntity
  8
Dibujo
  6
ByLayer
 62
  256
370
   -1
100
AcDbLine
 10
230
 20
-70
 11
230
 21
-75
  0
LINE
  5
272
100
AcDbEntity
  8
Dibujo
  6
ByLayer
 62
  256
370
   -1
100
AcDbLine
 10
245
 20
-60
 11
230
 21
-70
  0
DIMENSION
  5
273
100
AcDbEntity
  8
Cotas
  6
ByLayer
 62
  256
370
   -1
100
AcDbDimension
  2
*D27
 10
230
 20
-56
 30
0
 11
237.5
 21
-53.375
 31
0
 70
   32
 71
    5
 72
    0
  3
Standard
 53
0
210
0
220
0
230
1
100
AcDbAlignedDimension
 13
245
 23
-60
 33
0
 14
230
 24
-70
 34
0
100
AcDbRotatedDimension
  0
DIMENSION
  5
274
100
AcDbEntity
  8
Cotas
  6
ByLayer
 62
  256
370
   -1
100
AcDbDimension
  2
*D28
 10
225
 20
-60
 30
0
 11
222.375
 21
-65
 31
0
 70
   32
 71
    5
 72
    0
  3
Standard
 53
0
210
0
220
0
230
1
100
AcDbAlignedDimension
 13
230
 23
-70
 33
0
 14
245
 24
-60
 34
0
 50
90
100
AcDbRotatedDimension
  0
DIMENSION
  5
275
100
AcDbEntity
  8
Cotas
  6
ByLayer
 62
  256
370
   -1
100
AcDbDimension
  2
*D29
 10
310
 20
-40
 30
0
 11
307.375
 21
-42.5
 31
0
 70
   32
 71
    5
 72
    0
  3
Standard
 53
0
210
0
220
0
230
1
100
AcDbAlignedDimension
 13
300
 23
-45
 33
0
 14
285
 24
-40
 34
0
 50
90
100
AcDbRotatedDimension
  0
DIMENSION
  5
276
100
AcDbEntity
  8
Cotas
  6
ByLayer
 62
  256
370
   -1
100
AcDbDimension
  2
*D30
 10
270
 20
-40
 30
0
 11
267.375
 21
-42.5
 31
0
 70
   32
 71
    5
 72
    0
  3
Standard
 53
0
210
0
220
0
230
1
100
AcDbAlignedDimension
 13
260
 23
-45
 33
0
 14
245
 24
-40
 34
0
 50
90
100
AcDbRotatedDimension
  0
DIMENSION
  5
277
100
AcDbEntity
  8
Cotas
  6
ByLayer
 62
  256
370
   -1
100
AcDbDimension
  2
*D31
 10
310
 20
-125
 30
0
 11
307.375
 21
-127.5
 31
0
 70
   32
 71
    5
 72
    0
  3
Standard
 53
0
210
0
220
0
230
1
100
AcDbAlignedDimension
 13
275
 23
-130
 33
0
 14
300
 24
-125
 34
0
 50
90
100
AcDbRotatedDimension
  0
DIMENSION
  5
278
100
AcDbEntity
  8
Cotas
  6
ByLayer
 62
  256
370
   -1
100
AcDbDimension
  2
*D32
 10
310
 20
-120
 30
0
 11
307.375
 21
-115
 31
0
 70
   32
 71
    5
 72
    0
  3
Standard
 53
0
210
0
220
0
230
1
100
AcDbAlignedDimension
 13
285
 23
-110
 33
0
 14
300
 24
-120
 34
0
 50
90
100
AcDbRotatedDimension
  0
DIMENSION
  5
279
100
AcDbEntity
  8
Cotas
  6
ByLayer
 62
  256
370
   -1
100
AcDbDimension
  2
*D33
 10
230
 20
-120
 30
0
 11
220
 21
-117.375
 31
0
 70
   32
 71
    5
 72
    0
  3
Standard
 53
0
210
0
220
0
230
1
100
AcDbAlignedDimension
 13
210
 23
-80
 33
0
 14
230
 24
-110
 34
0
100
AcDbRotatedDimension
  0
DIMENSION
  5
27A
100
AcDbEntity
  8
Cotas
  6
ByLayer
 62
  256
370
   -1
100
AcDbDimension
  2
*D34
 10
150
 20
-90
 30
0
 11
152.5
 21
-87.375
 31
0
 70
   32
 71
    5
 72
    0
  3
Standard
 53
0
210
0
220
0
230
1
100
AcDbAlignedDimension
 13
155
 23
-100
 33
0
 14
150
 24
-105
 34
0
100
AcDbRotatedDimension
  0
DIMENSION
  5
27B
100
AcDbEntity
  8
Cotas
  6
ByLayer
 62
  256
370
   -1
100
AcDbDimension
  2
*D35
 10
300
 20
-140
 30
0
 11
287.5
 21
-137.375
 31
0
 70
   32
 71
    5
 72
    0
  3
Standard
 53
0
210
0
220
0
230
1
100
AcDbAlignedDimension
 13
275
 23
-130
 33
0
 14
300
 24
-125
 34
0
100
AcDbRotatedDimension
  0
DIMENSION
  5
27C
100
AcDbEntity
  8
Cotas
  6
ByLayer
 62
  256
370
   -1
100
AcDbDimension
  2
*D36
 10
165
 20
-115
 30
0
 11
157.8405438404862
 21
-118.4471455582844
 31
0
 70
   36
 71
    5
 72
    0
  3
Standard
 53
0
210
0
220
0
230
1
100
AcDbRadialDimension
 15
154.3933982822018
 25
-125.6066017177982
 35
0
 40
0
  0
DIMENSION
  5
27D
100
AcDbEntity
  8
Cotas
  6
ByLayer
 62
  256
370
   -1
100
AcDbDimension
  2
*D37
 10
250
 20
-50
 30
0
 11
255.3916892065474
 21
-51.67937860531805
 31
0
 70
   36
 71
    5
 72
    0
  3
Standard
 53
0
210
0
220
0
230
1
100
AcDbRadialDimension
 15
257.0710678118655
 25
-57.07106781186548
 35
0
 40
0
  0
DIMENSION
  5
27E
100
AcDbEntity
  8
Cotas
  6
ByLayer
 62
  256
370
   -1
100
AcDbDimension
  2
*D38
 10
270
 20
-60
 30
0
 11
282.4627570184129
 21
-68.75044641718353
 31
0
 70
   36
 71
    5
 72
    0
  3
Standard
 53
0
210
0
220
0
230
1
100
AcDbRadialDimension
 15
291.2132034355964
 25
-81.21320343559643
 35
0
 40
0
  0
DIMENSION
  5
27F
100
AcDbEntity
  8
Cotas
  6
ByLayer
 62
  256
370
   -1
100
AcDbDimension
  2
*D39
 10
245
 20
-75
 30
0
 11
237.8405438404862
 21
-78.44714555828442
 31
0
 70
   36
 71
    5
 72
    0
  3
Standard
 53
0
210
0
220
0
230
1
100
AcDbRadialDimension
 15
234.3933982822018
 25
-85.60660171779821
 35
0
 40
0
  0
DIMENSION
  5
280
100
AcDbEntity
  8
Cotas
  6
ByLayer
 62
  256
370
   -1
100
AcDbDimension
  2
*D40
 10
160
 20
-80
 30
0
 11
168.9272231124802
 21
-85.21491251125079
 31
0
 70
   36
 71
    5
 72
    0
  3
Standard
 53
0
210
0
220
0
230
1
100
AcDbRadialDimension
 15
174.142135623731
 25
-94.14213562373095
 35
0
 40
0
  0
DIMENSION
  5
281
100
AcDbEntity
  8
Cotas
  6
ByLayer
 62
  256
370
   -1
100
AcDbDimension
  2
*D41
 10
433
 20
-8.460607985830542
 30
0
 11
413
 21
-5.835607985830542
 31
0
 70
   32
 71
    5
 72
    0
  3
Standard
 53
0
210
0
220
0
230
1
100
AcDbAlignedDimension
 13
393
 23
1.539392014169458
 33
0
 14
433
 24
1.539392014169458
 34
0
100
AcDbRotatedDimension
  0
DIMENSION
  5
282
100
AcDbEntity
  8
Cotas
  6
ByLayer
 62
  256
370
   -1
100
AcDbDimension
  2
*D42
 10
453
 20
11.53939201416946
 30
0
 11
450.375
 21
6.539392014169459
 31
0
 70
   32
 71
    5
 72
    0
  3
Standard
 53
0
210
0
220
0
230
1
100
AcDbAlignedDimension
 13
433
 23
1.539392014169458
 33
0
 14
433
 24
11.53939201416946
 34
0
 50
90
100
AcDbRotatedDimension
  0
DIMENSION
  5
283
100
AcDbEntity
  8
Cotas
  6
ByLayer
 62
  256
370
   -1
100
AcDbDimension
  2
*D43
 10
443
 20
-18.46060798583054
 30
0
 11
413
 21
-15.83560798583054
 31
0
 70
   32
 71
    5
 72
    0
  3
Standard
 53
0
210
0
220
0
230
1
100
AcDbAlignedDimension
 13
383
 23
11.53939201416946
 33
0
 14
443
 24
11.53939201416946
 34
0
100
AcDbRotatedDimension
  0
DIMENSION
  5
284
100
AcDbEntity
  8
Cotas
  6
ByLayer
 62
  256
370
   -1
100
AcDbDimension
  2
*D44
 10
373
 20
46.53939201416946
 30
0
 11
370.375
 21
24.03939201416946
 31
0
 70
   32
 71
    5
 72
    0
  3
Standard
 53
0
210
0
220
0
230
1
100
AcDbAlignedDimension
 13
393
 23
1.539392014169458
 33
0
 14
383
 24
46.53939201416946
 34
0
 50
90
100
AcDbRotatedDimension
  0
ARC
  5
285
100
AcDbEntity
  8
Dibujo
  6
ByLayer
 62
  256
370
   -1
100
AcDbCircle
 10
383
 20
46.53939201416946
 40
20
100
AcDbArc
 50
270
 51
0
  0
LINE
  5
286
100
AcDbEntity
  8
Dibujo
  6
ByLayer
 62
  256
370
   -1
100
AcDbLine
 10
403
 20
46.53939201416946
 11
403
 21
91.53939201416947
  0
LINE
  5
287
100
AcDbEntity
  8
Dibujo
  6
ByLayer
 62
  256
370
   -1
100
AcDbLine
 10
383
 20
26.53939201416946
 11
383
 21
11.53939201416946
  0
LINE
  5
288
100
AcDbEntity
  8
Dibujo
  6
ByLayer
 62
  256
370
   -1
100
AcDbLine
 10
383
 20
11.53939201416946
 11
393
 21
11.53939201416946
  0
LINE
  5
289
100
AcDbEntity
  8
Dibujo
  6
ByLayer
 62
  256
370
   -1
100
AcDbLine
 10
433
 20
11.53939201416946
 11
443
 21
11.53939201416946
  0
DIMENSION
  5
28A
100
AcDbEntity
  8
Cotas
  6
ByLayer
 62
  256
370
   -1
100
AcDbDimension
  2
*D45
 10
363
 20
91.53939201416947
 30
0
 11
360.375
 21
46.53939201416946
 31
0
 70
   32
 71
    5
 72
    0
  3
Standard
 53
0
210
0
220
0
230
1
100
AcDbAlignedDimension
 13
393
 23
1.539392014169458
 33
0
 14
403
 24
91.53939201416947
 34
0
 50
90
100
AcDbRotatedDimension
  0
DIMENSION
  5
28B
100
AcDbEntity
  8
Cotas
  6
ByLayer
 62
  256
370
   -1
100
AcDbDimension
  2
*D46
 10
383
 20
46.53939201416946
 30
0
 11
391.9272231124801
 21
41.32447950291867
 31
0
 70
   36
 71
    5
 72
    0
  3
Standard
 53
0
210
0
220
0
230
1
100
AcDbRadialDimension
 15
397.142135623731
 25
32.3972563904385
 35
0
 40
0
  0
LWPOLYLINE
  5
28C
100
AcDbEntity
  8
Dibujo
  6
ByLayer
 62
  256
370
   -1
100
AcDbPolyline
 90
    6
 70
    1
 43
0
 10
393
 20
1.539392014169458
 10
433
 20
1.539392014169458
 10
433
 20
6.53939201416946
 42
-0.414213562373095
 10
438
 20
11.53939201416946
 10
388
 20
11.53939201416946
 42
-0.414213562373095
 10
393
 20
6.539392014169458
  0
DIMENSION
  5
28D
100
AcDbEntity
  8
Cotas
  6
ByLayer
 62
  256
370
   -1
100
AcDbDimension
  2
*D47
 10
388
 20
6.539392014169458
 30
0
 11
393.148149547302
 21
14.24650087013024
 31
0
 70
   36
 71
    5
 72
    0
  3
Standard
 53
0
210
0
220
0
230
1
100
AcDbRadialDimension
 15
391.8411063979869
 25
9.740314012491856
 35
0
 40
0
  0
LINE
  5
28E
100
AcDbEntity
  8
Dibujo
  6
ByLayer
 62
  256
370
   -1
100
AcDbLine
 10
413
 20
91.53939201416947
 11
403
 21
91.53939201416947
  0
LINE
  5
28F
100
AcDbEntity
  8
Dibujo
  6
ByLayer
 62
  256
370
   -1
100
AcDbLine
 10
443
 20
11.53939201416946
 11
443
 21
65.07939201416946
  0
LINE
  5
290
100
AcDbEntity
  8
Dibujo
  6
ByLayer
 62
  256
370
   -1
100
AcDbLine
 10
413
 20
91.53939201416947
 11
443
 21
65.07939201416946
  0
DIMENSION
  5
291
100
AcDbEntity
  8
Cotas
  6
ByLayer
 62
  256
370
   -1
100
AcDbDimension
  2
*D48
 10
450.4938478810118
 20
73.57581818311708
 30
0
 11
437.2302139744245
 21
88.7744872232675
 31
0
 70
   33
 71
    5
 72
    0
  3
Standard
 53
0
210
0
220
0
230
1
100
AcDbAlignedDimension
 13
413
 23
91.53939201416947
 33
0
 14
443
 24
65.07939201416949
 34
0
  0
CIRCLE
  5
292
100
AcDbEntity
  8
Dibujo
  6
ByLayer
 62
  256
370
   -1
100
AcDbCircle
 10
503
 20
39.53939201416946
 40
5
  0
CIRCLE
  5
293
100
AcDbEntity
  8
Dibujo
  6
ByLayer
 62
  256
370
   -1
100
AcDbCircle
 10
503
 20
39.53939201416946
 40
10
  0
LINE
  5
294
100
AcDbEntity
  8
Dibujo
  6
ByLayer
 62
  256
370
   -1
100
AcDbLine
 10
500
 20
49.07878402833892
 11
545.5
 21
63.38787204959311
  0
LINE
  5
295
100
AcDbEntity
  8
Dibujo
  6
ByLayer
 62
  256
370
   -1
100
AcDbLine
 10
500
 20
30
 11
545.5
 21
15.69091197874582
  0
ARC
  5
296
100
AcDbEntity
  8
Dibujo
  6
ByLayer
 62
  256
370
   -1
100
AcDbCircle
 10
541
 20
39.53939201416946
 40
8.000000000000455
100
AcDbArc
 50
90
 51
270
  0
LINE
  5
297
100
AcDbEntity
  8
Dibujo
  6
ByLayer
 62
  256
370
   -1
100
AcDbLine
 10
541
 20
47.53939201416946
 11
553
 21
47.53939201416946
  0
LINE
  5
298
100
AcDbEntity
  8
Dibujo
  6
ByLayer
 62
  256
370
   -1
100
AcDbLine
 10
541
 20
31.53939201416946
 11
553
 21
31.53939201416946
  0
ARC
  5
299
100
AcDbEntity
  8
Dibujo
  6
ByLayer
 62
  256
370
   -1
100
AcDbCircle
 10
553
 20
39.53939201416946
 40
25
100
AcDbArc
 50
90
 51
108.434948822922
  0
ARC
  5
29A
100
AcDbEntity
  8
Dibujo
  6
ByLayer
 62
  256
370
   -1
100
AcDbCircle
 10
553
 20
39.53939201416946
 40
25
100
AcDbArc
 50
251.565051177078
 51
270
  0
CIRCLE
  5
29B
100
AcDbEntity
  8
Dibujo
  6
ByLayer
 62
  256
370
   -1
100
AcDbCircle
 10
603
 20
39.53939201416946
 40
5
  0
CIRCLE
  5
29C
100
AcDbEntity
  8
Dibujo
  6
ByLayer
 62
  256
370
   -1
100
AcDbCircle
 10
603
 20
39.53939201416946
 40
10
  0
LINE
  5
29D
100
AcDbEntity
  8
Dibujo
  6
ByLayer
 62
  256
370
   -1
100
AcDbLine
 10
606
 20
49.07878402833892
 11
560.5
 21
63.38787204959311
  0
LINE
  5
29E
100
AcDbEntity
  8
Dibujo
  6
ByLayer
 62
  256
370
   -1
100
AcDbLine
 10
606
 20
30
 11
560.5
 21
15.69091197874581
  0
ARC
  5
29F
100
AcDbEntity
  8
Dibujo
  6
ByLayer
 62
  256
370
   -1
100
AcDbCircle
 10
565
 20
39.53939201416946
 40
8.000000000000455
100
AcDbArc
 50
270
 51
90
  0
LINE
  5
2A0
100
AcDbEntity
  8
Dibujo
  6
ByLayer
 62
  256
370
   -1
100
AcDbLine
 10
565
 20
47.53939201416946
 11
553
 21
47.53939201416946
  0
LINE
  5
2A1
100
AcDbEntity
  8
Dibujo
  6
ByLayer
 62
  256
370
   -1
100
AcDbLine
 10
565
 20
31.53939201416946
 11
553
 21
31.53939201416946
  0
ARC
  5
2A2
100
AcDbEntity
  8
Dibujo
  6
ByLayer
 62
  256
370
   -1
100
AcDbCircle
 10
553
 20
39.53939201416946
 40
25
100
AcDbArc
 50
71.56505117707799
 51
90
  0
ARC
  5
2A3
100
AcDbEntity
  8
Dibujo
  6
ByLayer
 62
  256
370
   -1
100
AcDbCircle
 10
553
 20
39.53939201416946
 40
25
100
AcDbArc
 50
270
 51
288.434948822922
  0
DIMENSION
  5
2A4
100
AcDbEntity
  8
Cotas
  6
ByLayer
 62
  256
370
   -1
100
AcDbDimension
  2
*D49
 10
603
 20
79.53939201416947
 30
0
 11
553
 21
82.16439201416947
 31
0
 70
   33
 71
    5
 72
    0
  3
Standard
 53
0
210
0
220
0
230
1
100
AcDbAlignedDimension
 13
503
 23
49.53939201416947
 33
0
 14
603
 24
49.53939201416947
 34
0
  0
DIMENSION
  5
2A5
100
AcDbEntity
  8
Cotas
  6
ByLayer
 62
  256
370
   -1
100
AcDbDimension
  2
*D50
 10
603
 20
69.53939201416947
 30
0
 11
578
 21
72.16439201416947
 31
0
 70
   32
 71
    5
 72
    0
  3
Standard
 53
0
210
0
220
0
230
1
100
AcDbAlignedDimension
 13
553
 23
64.53939201416947
 33
0
 14
603
 24
49.53939201416946
 34
0
100
AcDbRotatedDimension
  0
DIMENSION
  5
2A6
100
AcDbEntity
  8
Cotas
  6
ByLayer
 62
  256
370
   -1
100
AcDbDimension
  2
*D51
 10
573
 20
-0.4606079858305421
 30
0
 11
553
 21
2.164392014169458
 31
0
 70
   33
 71
    5
 72
    0
  3
Standard
 53
0
210
0
220
0
230
1
100
AcDbAlignedDimension
 13
533
 23
39.53939201416946
 33
0
 14
573
 24
39.53939201416946
 34
0
  0
DIMENSION
  5
2A7
100
AcDbEntity
  8
Cotas
  6
ByLayer
 62
  256
370
   -1
100
AcDbDimension
  2
*D52
 10
595.9289321881345
 20
32.46832420230398
 30
0
 11
601.1438446993853
 21
41.39554731478415
 31
0
 70
   35
 71
    5
 72
    0
  3
Standard
 53
0
210
0
220
0
230
1
100
AcDbDiametricDimension
 15
610.0710678118655
 25
46.61045982603493
 35
0
 40
0
  0
DIMENSION
  5
2A8
100
AcDbEntity
  8
Cotas
  6
ByLayer
 62
  256
370
   -1
100
AcDbDimension
  2
*D53
 10
553
 20
39.53939201416946
 30
0
 11
551.6092845059223
 21
52.2361055816456
 31
0
 70
   36
 71
    5
 72
    0
  3
Standard
 53
0
210
0
220
0
230
1
100
AcDbRadialDimension
 15
545.2286651791062
 25
63.30083883673406
 35
0
 40
0
  0
DIMENSION
  5
2A9
100
AcDbEntity
  8
Cotas
  6
ByLayer
 62
  256
370
   -1
100
AcDbDimension
  2
*D54
 10
565
 20
39.53939201416946
 30
0
 11
569.1819429534936
 21
37.2151764188068
 31
0
 70
   36
 71
    5
 72
    0
  3
Standard
 53
0
210
0
220
0
230
1
100
AcDbRadialDimension
 15
568.7139067635412
 25
32.45370950987036
 35
0
 40
0
  0
LINE
  5
2AA
100
AcDbEntity
  8
Dibujo
  6
ByLayer
 62
  256
370
   -1
100
AcDbLine
 10
700
 20
100
 11
740
 21
100
  0
LINE
  5
2AB
100
AcDbEntity
  8
Dibujo
  6
ByLayer
 62
  256
370
   -1
100
AcDbLine
 10
740
 20
0
 11
700
 21
0
  0
LINE
  5
2AC
100
AcDbEntity
  8
Dibujo
  6
ByLayer
 62
  256
370
   -1
100
AcDbLine
 10
690
 20
110
 11
750
 21
110
  0
LINE
  5
2AD
100
AcDbEntity
  8
Dibujo
  6
ByLayer
 62
  256
370
   -1
100
AcDbLine
 10
750
 20
-10
 11
690
 21
-10
  0
LINE
  5
2AE
100
AcDbEntity
  8
Dibujo
  6
ByLayer
 62
  256
370
   -1
100
AcDbLine
 10
680
 20
70
 11
680
 21
30
  0
LINE
  5
2AF
100
AcDbEntity
  8
Dibujo
  6
ByLayer
 62
  256
370
   -1
100
AcDbLine
 10
770
 20
80
 11
770
 21
20
  0
LINE
  5
2B0
100
AcDbEntity
  8
Dibujo
  6
ByLayer
 62
  256
370
   -1
100
AcDbLine
 10
670
 20
20
 11
670
 21
80
  0
LINE
  5
2B1
100
AcDbEntity
  8
Dibujo
  6
ByLayer
 62
  256
370
   -1
100
AcDbLine
 10
680
 20
30
 11
700
 21
30
  0
LINE
  5
2B2
100
AcDbEntity
  8
Dibujo
  6
ByLayer
 62
  256
370
   -1
100
AcDbLine
 10
760
 20
30
 11
760
 21
70
  0
LINE
  5
2B3
100
AcDbEntity
  8
Dibujo
  6
ByLayer
 62
  256
370
   -1
100
AcDbLine
 10
700
 20
70
 11
680
 21
70
  0
LINE
  5
2B4
100
AcDbEntity
  8
Dibujo
  6
ByLayer
 62
  256
370
   -1
100
AcDbLine
 10
750
 20
80
 11
770
 21
80
  0
LINE
  5
2B5
100
AcDbEntity
  8
Dibujo
  6
ByLayer
 62
  256
370
   -1
100
AcDbLine
 10
750
 20
110
 11
750
 21
80
  0
LINE
  5
2B6
100
AcDbEntity
  8
Dibujo
  6
ByLayer
 62
  256
370
   -1
100
AcDbLine
 10
760
 20
70
 11
740
 21
70
  0
LINE
  5
2B7
100
AcDbEntity
  8
Dibujo
  6
ByLayer
 62
  256
370
   -1
100
AcDbLine
 10
760
 20
30
 11
740
 21
30
  0
LINE
  5
2B8
100
AcDbEntity
  8
Dibujo
  6
ByLayer
 62
  256
370
   -1
100
AcDbLine
 10
750
 20
20
 11
750
 21
-10
  0
LINE
  5
2B9
100
AcDbEntity
  8
Dibujo
  6
ByLayer
 62
  256
370
   -1
100
AcDbLine
 10
740
 20
30
 11
740
 21
0
  0
LINE
  5
2BA
100
AcDbEntity
  8
Dibujo
  6
ByLayer
 62
  256
370
   -1
100
AcDbLine
 10
740
 20
70
 11
740
 21
100
  0
LINE
  5
2BB
100
AcDbEntity
  8
Dibujo
  6
ByLayer
 62
  256
370
   -1
100
AcDbLine
 10
690
 20
110
 11
690
 21
80
  0
LINE
  5
2BC
100
AcDbEntity
  8
Dibujo
  6
ByLayer
 62
  256
370
   -1
100
AcDbLine
 10
670
 20
20
 11
690
 21
20
  0
LINE
  5
2BD
100
AcDbEntity
  8
Dibujo
  6
ByLayer
 62
  256
370
   -1
100
AcDbLine
 10
690
 20
20
 11
690
 21
-10
  0
LINE
  5
2BE
100
AcDbEntity
  8
Dibujo
  6
ByLayer
 62
  256
370
   -1
100
AcDbLine
 10
700
 20
0
 11
700
 21
30
  0
LINE
  5
2BF
100
AcDbEntity
  8
Dibujo
  6
ByLayer
 62
  256
370
   -1
100
AcDbLine
 10
750
 20
20
 11
770
 21
20
  0
LINE
  5
2C0
100
AcDbEntity
  8
Dibujo
  6
ByLayer
 62
  256
370
   -1
100
AcDbLine
 10
670
 20
80
 11
690
 21
80
  0
LINE
  5
2C1
100
AcDbEntity
  8
Dibujo
  6
ByLayer
 62
  256
370
   -1
100
AcDbLine
 10
700
 20
70
 11
700
 21
100
  0
LEADER
  5
2C2
100
AcDbEntity
  8
Cotas
  6
ByLayer
 62
  256
370
   -1
100
AcDbLeader
  3
Standard
 71
    1
 72
    0
 73
    3
 74
    0
 75
    0
 40
1
 41
10
 76
3
 76
3
 10
499
 20
43
 30
0
 10
493
 20
48
 30
0
 10
487
 20
48
 30
0
  0
LINE
  5
2C3
100
AcDbEntity
  8
Cotas
  6
ByLayer
 62
  256
370
   -1
100
AcDbLine
 10
499
 20
43
 11
507
 21
37
  0
LEADER
  5
2C4
100
AcDbEntity
  8
Cotas
  6
ByLayer
 62
  256
370
   -1
100
AcDbLeader
  3
Standard
 71
    1
 72
    0
 73
    3
 74
    0
 75
    0
 40
1
 41
10
 76
2
 76
2
 10
507
 20
37
 30
0
 10
513
 20
32
 30
0
  0
MTEXT
  5
2C5
100
AcDbEntity
  8
Cotas
  6
ByLayer
 62
  256
370
   -1
100
AcDbMText
 10
487.3333333333333
 20
52
 30
0
 40
3
 41
5.999999999999999
 71
    1
 72
    1
  1
%%C10
  7
STANDARD
210
0
220
0
230
1
 50
0
 73
    2
 44
1
  0
ENDSEC
  0
SECTION
  2
OBJECTS
  0
DICTIONARY
  5
C
330
0
100
AcDbDictionary
281
    1
  3
ACAD_GROUP
350
D
  0
DICTIONARY
  5
D
330
C
100
AcDbDictionary
281
    1
  0
PLOTSETTINGS
  5
2C6
100
AcDbPlotSettings
  6
1x1
 40
0
 41
0
 42
0
 43
0
  0
ENDSEC
  0
EOF
