999
dxfrw 0.6.3
  0
SECTION
  2
HEADER
  9
$ACADVER
  1
AC1021
  9
$DWGCODEPAGE
  3
ANSI_1252
  9
$INSBASE
 10
0
 20
0
 30
0
  9
$EXTMIN
 10
-502.2947341949745
 20
306.25
 30
0
  9
$EXTMAX
 10
-93.09773090682717
 20
530
 30
0
  9
$LIMMIN
 10
0
 20
0
  9
$LIMMAX
 10
420
 20
297
  9
$ORTHOMODE
 70
    0
  9
$REGENMODE
 70
    1
  9
$FILLMODE
 70
    1
  9
$QTEXTMODE
 70
    0
  9
$MIRRTEXT
 70
    0
  9
$LTSCALE
 40
1
  9
$ATTMODE
 70
    0
  9
$TEXTSIZE
 40
2.5
  9
$TRACEWID
 40
15.68
  9
$TEXTSTYLE
  7
STANDARD
  9
$CLAYER
  8
Cotas Solidas
  9
$CELTYPE
  6
BYLAYER
  9
$CECOLOR
 62
  256
  9
$CELTSCALE
 40
1
  9
$DISPSILH
 70
    0
  9
$DIMSCALE
 40
1
  9
$DIMASZ
 40
2
  9
$DIMEXO
 40
0.625
  9
$DIMDLI
 40
3.75
  9
$DIMRND
 40
0
  9
$DIMDLE
 40
0
  9
$DIMEXE
 40
1.25
  9
$DIMTP
 40
0
  9
$DIMTM
 40
0
  9
$DIMTXT
 40
2.5
  9
$DIMCEN
 40
2.5
  9
$DIMTSZ
 40
0
  9
$DIMTOL
 70
    0
  9
$DIMLIM
 70
    0
  9
$DIMTIH
 70
    0
  9
$DIMTOH
 70
    0
  9
$DIMSE1
 70
    0
  9
$DIMSE2
 70
    0
  9
$DIMTAD
 70
    1
  9
$DIMZIN
 70
    8
  9
$DIMBLK
  1

  9
$DIMASO
 70
    1
  9
$DIMSHO
 70
    1
  9
$DIMPOST
  1

  9
$DIMAPOST
  1

  9
$DIMALT
 70
    0
  9
$DIMALTD
 70
    3
  9
$DIMALTF
 40
0.03937
  9
$DIMLFAC
 40
1
  9
$DIMTOFL
 70
    1
  9
$DIMTVP
 40
0
  9
$DIMTIX
 70
    0
  9
$DIMSOXD
 70
    0
  9
$DIMSAH
 70
    0
  9
$DIMBLK1
  1

  9
$DIMBLK2
  1

  9
$DIMSTYLE
  2
STANDARD
  9
$DIMCLRD
 70
    0
  9
$DIMCLRE
 70
    0
  9
$DIMCLRT
 70
    0
  9
$DIMTFAC
 40
1
  9
$DIMGAP
 40
0.625
  9
$DIMJUST
 70
    0
  9
$DIMSD1
 70
    0
  9
$DIMSD2
 70
    0
  9
$DIMTOLJ
 70
    0
  9
$DIMTZIN
 70
    8
  9
$DIMALTZ
 70
    0
  9
$DIMALTTZ
 70
    0
  9
$DIMUPT
 70
    0
  9
$DIMDEC
 70
    4
  9
$DIMTDEC
 70
    2
  9
$DIMALTU
 70
    2
  9
$DIMALTTD
 70
    3
  9
$DIMTXSTY
  7
standard
  9
$DIMAUNIT
 70
    0
  9
$DIMADEC
 70
    2
  9
$DIMALTRND
 40
0
  9
$DIMAZIN
 70
    0
  9
$DIMDSEP
 70
    0
  9
$DIMATFIT
 70
    3
  9
$DIMFRAC
 70
    0
  9
$DIMLDRBLK
  1
STANDARD
  9
$DIMLUNIT
 70
    2
  9
$DIMLWD
 70
   -2
  9
$DIMLWE
 70
   -2
  9
$DIMTMOVE
 70
    0
  9
$DIMFXL
 40
1
  9
$DIMFXLON
 70
    0
  9
$DIMJOGANG
 40
0.7854
  9
$DIMTFILL
 70
    0
  9
$DIMTFILLCLR
 70
    0
  9
$DIMARCSYM
 70
    0
  9
$DIMLTYPE
  6

  9
$DIMLTEX1
  6

  9
$DIMLTEX2
  6

  9
$LUNITS
 70
    2
  9
$LUPREC
 70
    4
  9
$SKETCHINC
 40
1
  9
$FILLETRAD
 40
0
  9
$AUNITS
 70
    0
  9
$AUPREC
 70
    2
  9
$MENU
  1
.
  9
$ELEVATION
 40
0
  9
$PELEVATION
 40
0
  9
$THICKNESS
 40
0
  9
$LIMCHECK
 70
    0
  9
$CHAMFERA
 40
0
  9
$CHAMFERB
 40
0
  9
$CHAMFERC
 40
0
  9
$CHAMFERD
 40
0
  9
$SKPOLY
 70
    0
  9
$USRTIMER
 70
    1
  9
$ANGBASE
 50
0
  9
$ANGDIR
 70
    0
  9
$PDMODE
 70
   34
  9
$PDSIZE
 40
0
  9
$PLINEWID
 40
0
  9
$SPLFRAME
 70
    0
  9
$SPLINETYPE
 70
    2
  9
$SPLINESEGS
 70
    8
  9
$HANDSEED
  5
20000
  9
$SURFTAB1
 70
    6
  9
$SURFTAB2
 70
    6
  9
$SURFTYPE
 70
    6
  9
$SURFU
 70
    6
  9
$SURFV
 70
    6
  9
$UCSBASE
  2

  9
$UCSNAME
  2

  9
$UCSORG
 10
0
 20
0
 30
0
  9
$UCSXDIR
 10
1
 20
0
 30
0
  9
$UCSYDIR
 10
0
 20
1
 30
0
  9
$UCSORTHOREF
  2

  9
$UCSORTHOVIEW
 70
    0
  9
$UCSORGTOP
 10
0
 20
0
 30
0
  9
$UCSORGBOTTOM
 10
0
 20
0
 30
0
  9
$UCSORGLEFT
 10
0
 20
0
 30
0
  9
$UCSORGRIGHT
 10
0
 20
0
 30
0
  9
$UCSORGFRONT
 10
0
 20
0
 30
0
  9
$UCSORGBACK
 10
0
 20
0
 30
0
  9
$PUCSBASE
  2

  9
$PUCSNAME
  2

  9
$PUCSORG
 10
0
 20
0
 30
0
  9
$PUCSXDIR
 10
1
 20
0
 30
0
  9
$PUCSYDIR
 10
0
 20
1
 30
0
  9
$PUCSORTHOREF
  2

  9
$PUCSORTHOVIEW
 70
    0
  9
$PUCSORGTOP
 10
0
 20
0
 30
0
  9
$PUCSORGBOTTOM
 10
0
 20
0
 30
0
  9
$PUCSORGLEFT
 10
0
 20
0
 30
0
  9
$PUCSORGRIGHT
 10
0
 20
0
 30
0
  9
$PUCSORGFRONT
 10
0
 20
0
 30
0
  9
$PUCSORGBACK
 10
0
 20
0
 30
0
  9
$USERI1
 70
    0
  9
$USERI2
 70
    0
  9
$USERI3
 70
    0
  9
$USERI4
 70
    0
  9
$USERI5
 70
    0
  9
$USERR1
 40
0
  9
$USERR2
 40
0
  9
$USERR3
 40
0
  9
$USERR4
 40
0
  9
$USERR5
 40
0
  9
$WORLDVIEW
 70
    1
  9
$SHADEDGE
 70
    3
  9
$SHADEDIF
 70
   70
  9
$TILEMODE
 70
    1
  9
$MAXACTVP
 70
   64
  9
$PINSBASE
 10
119.5398165641595
 20
118.2039499261774
 30
0
  9
$PLIMCHECK
 70
    0
  9
$PEXTMIN
 10
0
 20
0
 30
0
  9
$PEXTMAX
 10
0
 20
0
 30
0
  9
$GRIDMODE
 70
    1
  9
$SNAPSTYLE
 70
    1
  9
$GRIDUNIT
 10
0
 20
0
  9
$PLIMMIN
 10
0
 20
0
  9
$PLIMMAX
 10
297
 20
210
  9
$UNITMODE
 70
    0
  9
$VISRETAIN
 70
    1
  9
$PLINEGEN
 70
    0
  9
$PSLTSCALE
 70
    1
  9
$TREEDEPTH
 70
 3020
  9
$CMLSTYLE
  2
Standard
  9
$CMLJUST
 70
    0
  9
$CMLSCALE
 40
20
  9
$PROXYGRAPHICS
 70
    1
  9
$MEASUREMENT
 70
    1
  9
$CELWEIGHT
370
   -1
  9
$ENDCAPS
280
    0
  9
$JOINSTYLE
280
    0
  9
$LWDISPLAY
290
    0
  9
$INSUNITS
 70
    4
  9
$HYPERLINKBASE
  1

  9
$STYLESHEET
  1

  9
$XEDIT
290
    1
  9
$CEPSNTYPE
380
    0
  9
$PSTYLEMODE
290
    1
  9
$EXTNAMES
290
    1
  9
$PSVPSCALE
 40
1
  9
$OLESTARTUP
290
    0
  9
$SORTENTS
280
  127
  9
$INDEXCTL
280
    0
  9
$HIDETEXT
280
    1
  9
$XCLIPFRAME
290
    0
  9
$HALOGAP
280
    0
  9
$OBSCOLOR
 70
  257
  9
$OBSLTYPE
280
    0
  9
$INTERSECTIONDISPLAY
280
    0
  9
$INTERSECTIONCOLOR
 70
  257
  9
$DIMASSOC
280
    1
  9
$PROJECTNAME
  1

  9
$CAMERADISPLAY
290
    0
  9
$LENSLENGTH
 40
50
  9
$CAMERAHEIGHT
 40
0
  9
$STEPSPERSEC
 40
2
  9
$STEPSIZE
 40
50
  9
$3DDWFPREC
 40
2
  9
$PSOLWIDTH
 40
5
  9
$PSOLHEIGHT
 40
80
  9
$LOFTANG1
 40
1.570796326794897
  9
$LOFTANG2
 40
1.570796326794897
  9
$LOFTMAG1
 40
0
  9
$LOFTMAG2
 40
0
  9
$LOFTPARAM
 70
    7
  9
$LOFTNORMALS
280
    1
  9
$LATITUDE
 40
1
  9
$LONGITUDE
 40
1
  9
$NORTHDIRECTION
 40
0
  9
$TIMEZONE
 70
-8000
  9
$LIGHTGLYPHDISPLAY
280
    1
  9
$TILEMODELIGHTSYNCH
280
    1
  9
$SOLIDHIST
280
    1
  9
$SHOWHIST
280
    1
  9
$DWFFRAME
280
    2
  9
$DGNFRAME
280
    0
  9
$REALWORLDSCALE
290
    1
  9
$INTERFERECOLOR
 62
    1
  9
$CSHADOW
280
    0
  9
$SHADOWPLANELOCATION
 40
0
  0
ENDSEC
  0
SECTION
  2
CLASSES
  0
ENDSEC
  0
SECTION
  2
TABLES
  0
TABLE
  2
VPORT
  5
8
330
0
100
AcDbSymbolTable
 70
    1
  0
VPORT
  5
31
330
2
100
AcDbSymbolTableRecord
100
AcDbViewportTableRecord
  2
*ACTIVE
 70
    0
 10
0
 20
0
 11
1
 21
1
 12
-43.96961588127298
 22
303.7207570989665
 13
0
 23
0
 14
10
 24
10
 15
10
 25
10
 16
0
 26
0
 36
1
 17
0
 27
0
 37
0
 40
379.206167022308
 41
1.105898123324397
 42
50
 43
0
 44
0
 50
0
 51
0
 71
    0
 72
  100
 73
    1
 74
    3
 75
    0
 76
    1
 77
    1
 78
    0
281
    0
 65
    1
110
0
120
0
130
0
111
1
121
0
131
0
112
0
122
1
132
0
 79
    0
146
0
348
10020
 60
    7
 61
    5
292
1
282
    1
141
0
142
0
 63
  250
421
3358443
  0
ENDTAB
  0
TABLE
  2
LTYPE
  5
5
330
0
100
AcDbSymbolTable
 70
    4
  0
LTYPE
  5
14
330
5
100
AcDbSymbolTableRecord
100
AcDbLinetypeTableRecord
  2
ByBlock
 70
    0
  3

 72
   65
 73
    0
 40
0
  0
LTYPE
  5
15
330
5
100
AcDbSymbolTableRecord
100
AcDbLinetypeTableRecord
  2
ByLayer
 70
    0
  3

 72
   65
 73
    0
 40
0
  0
LTYPE
  5
16
330
5
100
AcDbSymbolTableRecord
100
AcDbLinetypeTableRecord
  2
Continuous
 70
    0
  3
Solid line
 72
   65
 73
    0
 40
0
  0
LTYPE
  5
32
330
5
100
AcDbSymbolTableRecord
100
AcDbLinetypeTableRecord
  2
DOT
 70
    0
  3
Dot . . . . . . . . . . . . . . . . . . . . . .
 72
   65
 73
    2
 40
6.35
 49
0
 74
    0
 49
-6.35
 74
    0
  0
LTYPE
  5
33
330
5
100
AcDbSymbolTableRecord
100
AcDbLinetypeTableRecord
  2
DOTTINY
 70
    0
  3
Dot (.15x) .....................................
 72
   65
 73
    2
 40
0.9525
 49
0
 74
    0
 49
-0.9525
 74
    0
  0
LTYPE
  5
34
330
5
100
AcDbSymbolTableRecord
100
AcDbLinetypeTableRecord
  2
DOT2
 70
    0
  3
Dot (.5x) .....................................
 72
   65
 73
    2
 40
3.175
 49
0
 74
    0
 49
-3.175
 74
    0
  0
LTYPE
  5
35
330
5
100
AcDbSymbolTableRecord
100
AcDbLinetypeTableRecord
  2
DOTX2
 70
    0
  3
Dot (2x) .  .  .  .  .  .  .  .  .  .  .  .  .
 72
   65
 73
    2
 40
12.7
 49
0
 74
    0
 49
-12.7
 74
    0
  0
LTYPE
  5
36
330
5
100
AcDbSymbolTableRecord
100
AcDbLinetypeTableRecord
  2
DASHED
 70
    0
  3
Dashed _ _ _ _ _ _ _ _ _ _ _ _ _ _ _ _ _
 72
   65
 73
    2
 40
19.05
 49
12.7
 74
    0
 49
-6.35
 74
    0
  0
LTYPE
  5
37
330
5
100
AcDbSymbolTableRecord
100
AcDbLinetypeTableRecord
  2
DASHEDTINY
 70
    0
  3
Dashed (.15x) _ _ _ _ _ _ _ _ _ _ _ _ _ _ _ _ _
 72
   65
 73
    2
 40
2.8575
 49
1.905
 74
    0
 49
-0.9525
 74
    0
  0
LTYPE
  5
38
330
5
100
AcDbSymbolTableRecord
100
AcDbLinetypeTableRecord
  2
DASHED2
 70
    0
  3
Dashed (.5x) _ _ _ _ _ _ _ _ _ _ _ _ _ _ _ _ _
 72
   65
 73
    2
 40
9.524999999999999
 49
6.35
 74
    0
 49
-3.175
 74
    0
  0
LTYPE
  5
39
330
5
100
AcDbSymbolTableRecord
100
AcDbLinetypeTableRecord
  2
DASHEDX2
 70
    0
  3
Dashed (2x) ____  ____  ____  ____  ____  ___
 72
   65
 73
    2
 40
38.09999999999999
 49
25.4
 74
    0
 49
-12.7
 74
    0
  0
LTYPE
  5
3A
330
5
100
AcDbSymbolTableRecord
100
AcDbLinetypeTableRecord
  2
DASHDOT
 70
    0
  3
Dash dot __ . __ . __ . __ . __ . __ . __ . __
 72
   65
 73
    4
 40
25.4
 49
12.7
 74
    0
 49
-6.35
 74
    0
 49
0
 74
    0
 49
-6.35
 74
    0
  0
LTYPE
  5
3B
330
5
100
AcDbSymbolTableRecord
100
AcDbLinetypeTableRecord
  2
DASHDOTTINY
 70
    0
  3
Dash dot (.15x) _._._._._._._._._._._._._._._.
 72
   65
 73
    4
 40
3.81
 49
1.905
 74
    0
 49
-0.9525
 74
    0
 49
0
 74
    0
 49
-0.9525
 74
    0
  0
LTYPE
  5
3C
330
5
100
AcDbSymbolTableRecord
100
AcDbLinetypeTableRecord
  2
DASHDOT2
 70
    0
  3
Dash dot (.5x) _._._._._._._._._._._._._._._.
 72
   65
 73
    4
 40
12.7
 49
6.35
 74
    0
 49
-3.175
 74
    0
 49
0
 74
    0
 49
-3.175
 74
    0
  0
LTYPE
  5
3D
330
5
100
AcDbSymbolTableRecord
100
AcDbLinetypeTableRecord
  2
DASHDOTX2
 70
    0
  3
Dash dot (2x) ____  .  ____  .  ____  .  ___
 72
   65
 73
    4
 40
50.8
 49
25.4
 74
    0
 49
-12.7
 74
    0
 49
0
 74
    0
 49
-12.7
 74
    0
  0
LTYPE
  5
3E
330
5
100
AcDbSymbolTableRecord
100
AcDbLinetypeTableRecord
  2
DIVIDE
 70
    0
  3
Divide ____ . . ____ . . ____ . . ____ . . ____
 72
   65
 73
    6
 40
31.75
 49
12.7
 74
    0
 49
-6.35
 74
    0
 49
0
 74
    0
 49
-6.35
 74
    0
 49
0
 74
    0
 49
-6.35
 74
    0
  0
LTYPE
  5
3F
330
5
100
AcDbSymbolTableRecord
100
AcDbLinetypeTableRecord
  2
DIVIDETINY
 70
    0
  3
Divide (.15x) __..__..__..__..__..__..__..__.._
 72
   65
 73
    6
 40
4.7625
 49
1.905
 74
    0
 49
-0.9525
 74
    0
 49
0
 74
    0
 49
-0.9525
 74
    0
 49
0
 74
    0
 49
-0.9525
 74
    0
  0
LTYPE
  5
40
330
5
100
AcDbSymbolTableRecord
100
AcDbLinetypeTableRecord
  2
DIVIDE2
 70
    0
  3
Divide (.5x) __..__..__..__..__..__..__..__.._
 72
   65
 73
    6
 40
15.875
 49
6.35
 74
    0
 49
-3.175
 74
    0
 49
0
 74
    0
 49
-3.175
 74
    0
 49
0
 74
    0
 49
-3.175
 74
    0
  0
LTYPE
  5
41
330
5
100
AcDbSymbolTableRecord
100
AcDbLinetypeTableRecord
  2
DIVIDEX2
 70
    0
  3
Divide (2x) ________  .  .  ________  .  .  _
 72
   65
 73
    6
 40
63.5
 49
25.4
 74
    0
 49
-12.7
 74
    0
 49
0
 74
    0
 49
-12.7
 74
    0
 49
0
 74
    0
 49
-12.7
 74
    0
  0
LTYPE
  5
42
330
5
100
AcDbSymbolTableRecord
100
AcDbLinetypeTableRecord
  2
BORDER
 70
    0
  3
Border __ __ . __ __ . __ __ . __ __ . __ __ .
 72
   65
 73
    6
 40
44.45
 49
12.7
 74
    0
 49
-6.35
 74
    0
 49
12.7
 74
    0
 49
-6.35
 74
    0
 49
0
 74
    0
 49
-6.35
 74
    0
  0
LTYPE
  5
43
330
5
100
AcDbSymbolTableRecord
100
AcDbLinetypeTableRecord
  2
BORDERTINY
 70
    0
  3
Border (.15x) __.__.__.__.__.__.__.__.__.__.__.
 72
   65
 73
    6
 40
6.6675
 49
1.905
 74
    0
 49
-0.9525
 74
    0
 49
1.905
 74
    0
 49
-0.9525
 74
    0
 49
0
 74
    0
 49
-0.9525
 74
    0
  0
LTYPE
  5
44
330
5
100
AcDbSymbolTableRecord
100
AcDbLinetypeTableRecord
  2
BORDER2
 70
    0
  3
Border (.5x) __.__.__.__.__.__.__.__.__.__.__.
 72
   65
 73
    6
 40
22.225
 49
6.35
 74
    0
 49
-3.175
 74
    0
 49
6.35
 74
    0
 49
-3.175
 74
    0
 49
0
 74
    0
 49
-3.175
 74
    0
  0
LTYPE
  5
45
330
5
100
AcDbSymbolTableRecord
100
AcDbLinetypeTableRecord
  2
BORDERX2
 70
    0
  3
Border (2x) ____  ____  .  ____  ____  .  ___
 72
   65
 73
    6
 40
88.89999999999999
 49
25.4
 74
    0
 49
-12.7
 74
    0
 49
25.4
 74
    0
 49
-12.7
 74
    0
 49
0
 74
    0
 49
-12.7
 74
    0
  0
LTYPE
  5
46
330
5
100
AcDbSymbolTableRecord
100
AcDbLinetypeTableRecord
  2
CENTER
 70
    0
  3
Center ____ _ ____ _ ____ _ ____ _ ____ _ ____
 72
   65
 73
    4
 40
50.8
 49
31.75
 74
    0
 49
-6.35
 74
    0
 49
6.35
 74
    0
 49
-6.35
 74
    0
  0
LTYPE
  5
47
330
5
100
AcDbSymbolTableRecord
100
AcDbLinetypeTableRecord
  2
CENTERTINY
 70
    0
  3
Center (.15x) ___ _ ___ _ ___ _ ___ _ ___ _ ___
 72
   65
 73
    4
 40
7.619999999999999
 49
4.7625
 74
    0
 49
-0.9525
 74
    0
 49
0.9525
 74
    0
 49
-0.9525
 74
    0
  0
LTYPE
  5
48
330
5
100
AcDbSymbolTableRecord
100
AcDbLinetypeTableRecord
  2
CENTER2
 70
    0
  3
Center (.5x) ___ _ ___ _ ___ _ ___ _ ___ _ ___
 72
   65
 73
    4
 40
28.575
 49
19.05
 74
    0
 49
-3.175
 74
    0
 49
3.175
 74
    0
 49
-3.175
 74
    0
  0
LTYPE
  5
49
330
5
100
AcDbSymbolTableRecord
100
AcDbLinetypeTableRecord
  2
CENTERX2
 70
    0
  3
Center (2x) ________  __  ________  __  _____
 72
   65
 73
    4
 40
101.6
 49
63.5
 74
    0
 49
-12.7
 74
    0
 49
12.7
 74
    0
 49
-12.7
 74
    0
  0
ENDTAB
  0
TABLE
  2
LAYER
  5
2
330
0
100
AcDbSymbolTable
 70
    1
  0
LAYER
  5
10
330
2
100
AcDbSymbolTableRecord
100
AcDbLayerTableRecord
  2
0
 70
    0
 62
    7
  6
CONTINUOUS
370
    0
390
F
  0
LAYER
  5
4A
330
2
100
AcDbSymbolTableRecord
100
AcDbLayerTableRecord
  2
Aux
 70
    0
 62
    6
  6
DASHED
370
    0
390
F
  0
LAYER
  5
4B
330
2
100
AcDbSymbolTableRecord
100
AcDbLayerTableRecord
  2
Cotas Dashed
 70
    0
 62
    3
  6
DASHDOT2
370
   13
390
F
  0
LAYER
  5
4C
330
2
100
AcDbSymbolTableRecord
100
AcDbLayerTableRecord
  2
Cotas Dots
 70
    0
 62
  103
420
5759881
  6
DOT
370
   13
390
F
  0
LAYER
  5
4D
330
2
100
AcDbSymbolTableRecord
100
AcDbLayerTableRecord
  2
Cotas Solidas
 70
    0
 62
    2
  6
CONTINUOUS
370
   13
390
F
  0
LAYER
  5
4E
330
2
100
AcDbSymbolTableRecord
100
AcDbLayerTableRecord
  2
Dibujo
 70
    0
 62
  136
420
32896
  6
CONTINUOUS
370
   70
390
F
  0
ENDTAB
  0
TABLE
  2
STYLE
  5
3
330
0
100
AcDbSymbolTable
 70
    3
  0
STYLE
  5
4F
330
2
100
AcDbSymbolTableRecord
100
AcDbTextStyleTableRecord
  2
STANDARD
 70
    0
 40
0
 41
1
 50
0
 71
    0
 42
1
  3
STANDARD
  4

  0
ENDTAB
  0
TABLE
  2
VIEW
  5
6
330
0
100
AcDbSymbolTable
 70
    0
  0
ENDTAB
  0
TABLE
  2
UCS
  5
7
330
0
100
AcDbSymbolTable
 70
    0
  0
ENDTAB
  0
TABLE
  2
APPID
  5
9
330
0
100
AcDbSymbolTable
 70
    1
  0
APPID
  5
12
330
9
100
AcDbSymbolTableRecord
100
AcDbRegAppTableRecord
  2
ACAD
 70
    0
  0
APPID
  5
50
330
9
100
AcDbSymbolTableRecord
100
AcDbRegAppTableRecord
  2
LibreCad
 70
    0
  0
ENDTAB
  0
TABLE
  2
DIMSTYLE
  5
A
330
0
100
AcDbSymbolTable
 70
    1
100
AcDbDimStyleTable
 71
    1
  0
DIMSTYLE
105
51
330
A
100
AcDbSymbolTableRecord
100
AcDbDimStyleTableRecord
  2
Standard
 70
    0
 40
1
 41
2
 42
0.625
 43
0.38
 44
1.25
 45
0
 46
0
 47
0
 48
0
 49
1
140
2.5
141
0.09
142
0
143
25.4
144
1
145
0
146
1
147
0.625
148
0
 71
    0
 72
    0
 73
    0
 74
    1
 75
    0
 76
    0
 77
    0
 78
    8
 79
    0
170
    0
171
    2
172
    0
173
    0
174
    0
175
    0
176
    0
177
    0
178
    0
179
    2
271
    4
272
    4
273
    2
274
    2
275
    0
276
    0
277
    2
278
    0
279
    0
280
    0
281
    0
282
    0
283
    1
284
    0
285
    0
286
    0
288
    0
289
    3
340
standard
341

371
   -2
372
   -2
  0
ENDTAB
  0
TABLE
  2
BLOCK_RECORD
  5
1
330
0
100
AcDbSymbolTable
 70
    2
  0
BLOCK_RECORD
  5
1F
330
1
100
AcDbSymbolTableRecord
100
AcDbBlockTableRecord
  2
*Model_Space
 70
    0
280
    1
281
    0
  0
BLOCK_RECORD
  5
1E
330
1
100
AcDbSymbolTableRecord
100
AcDbBlockTableRecord
  2
*Paper_Space
 70
    0
280
    1
281
    0
  0
BLOCK_RECORD
  5
52
330
1
100
AcDbSymbolTableRecord
100
AcDbBlockTableRecord
  2
*D3
 70
    0
280
    1
281
    0
  0
BLOCK_RECORD
  5
55
330
1
100
AcDbSymbolTableRecord
100
AcDbBlockTableRecord
  2
*D16
 70
    0
280
    1
281
    0
  0
BLOCK_RECORD
  5
58
330
1
100
AcDbSymbolTableRecord
100
AcDbBlockTableRecord
  2
*D17
 70
    0
280
    1
281
    0
  0
BLOCK_RECORD
  5
5B
330
1
100
AcDbSymbolTableRecord
100
AcDbBlockTableRecord
  2
*D30
 70
    0
280
    1
281
    0
  0
BLOCK_RECORD
  5
5E
330
1
100
AcDbSymbolTableRecord
100
AcDbBlockTableRecord
  2
*D7
 70
    0
280
    1
281
    0
  0
BLOCK_RECORD
  5
61
330
1
100
AcDbSymbolTableRecord
100
AcDbBlockTableRecord
  2
*D10
 70
    0
280
    1
281
    0
  0
BLOCK_RECORD
  5
64
330
1
100
AcDbSymbolTableRecord
100
AcDbBlockTableRecord
  2
*D11
 70
    0
280
    1
281
    0
  0
BLOCK_RECORD
  5
67
330
1
100
AcDbSymbolTableRecord
100
AcDbBlockTableRecord
  2
*D25
 70
    0
280
    1
281
    0
  0
BLOCK_RECORD
  5
6A
330
1
100
AcDbSymbolTableRecord
100
AcDbBlockTableRecord
  2
*D13
 70
    0
280
    1
281
    0
  0
BLOCK_RECORD
  5
6D
330
1
100
AcDbSymbolTableRecord
100
AcDbBlockTableRecord
  2
*D15
 70
    0
280
    1
281
    0
  0
BLOCK_RECORD
  5
70
330
1
100
AcDbSymbolTableRecord
100
AcDbBlockTableRecord
  2
*D22
 70
    0
280
    1
281
    0
  0
BLOCK_RECORD
  5
73
330
1
100
AcDbSymbolTableRecord
100
AcDbBlockTableRecord
  2
*D24
 70
    0
280
    1
281
    0
  0
BLOCK_RECORD
  5
76
330
1
100
AcDbSymbolTableRecord
100
AcDbBlockTableRecord
  2
*D34
 70
    0
280
    1
281
    0
  0
BLOCK_RECORD
  5
79
330
1
100
AcDbSymbolTableRecord
100
AcDbBlockTableRecord
  2
*D26
 70
    0
280
    1
281
    0
  0
BLOCK_RECORD
  5
7C
330
1
100
AcDbSymbolTableRecord
100
AcDbBlockTableRecord
  2
*D33
 70
    0
280
    1
281
    0
  0
BLOCK_RECORD
  5
7F
330
1
100
AcDbSymbolTableRecord
100
AcDbBlockTableRecord
  2
*D14
 70
    0
280
    1
281
    0
  0
BLOCK_RECORD
  5
82
330
1
100
AcDbSymbolTableRecord
100
AcDbBlockTableRecord
  2
*D2
 70
    0
280
    1
281
    0
  0
BLOCK_RECORD
  5
85
330
1
100
AcDbSymbolTableRecord
100
AcDbBlockTableRecord
  2
*D19
 70
    0
280
    1
281
    0
  0
BLOCK_RECORD
  5
88
330
1
100
AcDbSymbolTableRecord
100
AcDbBlockTableRecord
  2
*D32
 70
    0
280
    1
281
    0
  0
BLOCK_RECORD
  5
8B
330
1
100
AcDbSymbolTableRecord
100
AcDbBlockTableRecord
  2
*D4
 70
    0
280
    1
281
    0
  0
BLOCK_RECORD
  5
8E
330
1
100
AcDbSymbolTableRecord
100
AcDbBlockTableRecord
  2
*D23
 70
    0
280
    1
281
    0
  0
BLOCK_RECORD
  5
91
330
1
100
AcDbSymbolTableRecord
100
AcDbBlockTableRecord
  2
*D5
 70
    0
280
    1
281
    0
  0
BLOCK_RECORD
  5
94
330
1
100
AcDbSymbolTableRecord
100
AcDbBlockTableRecord
  2
*D6
 70
    0
280
    1
281
    0
  0
BLOCK_RECORD
  5
97
330
1
100
AcDbSymbolTableRecord
100
AcDbBlockTableRecord
  2
*D8
 70
    0
280
    1
281
    0
  0
BLOCK_RECORD
  5
9A
330
1
100
AcDbSymbolTableRecord
100
AcDbBlockTableRecord
  2
*D9
 70
    0
280
    1
281
    0
  0
BLOCK_RECORD
  5
9D
330
1
100
AcDbSymbolTableRecord
100
AcDbBlockTableRecord
  2
*D28
 70
    0
280
    1
281
    0
  0
BLOCK_RECORD
  5
A0
330
1
100
AcDbSymbolTableRecord
100
AcDbBlockTableRecord
  2
*D29
 70
    0
280
    1
281
    0
  0
BLOCK_RECORD
  5
A3
330
1
100
AcDbSymbolTableRecord
100
AcDbBlockTableRecord
  2
*D12
 70
    0
280
    1
281
    0
  0
BLOCK_RECORD
  5
A6
330
1
100
AcDbSymbolTableRecord
100
AcDbBlockTableRecord
  2
*D20
 70
    0
280
    1
281
    0
  0
BLOCK_RECORD
  5
A9
330
1
100
AcDbSymbolTableRecord
100
AcDbBlockTableRecord
  2
*D18
 70
    0
280
    1
281
    0
  0
BLOCK_RECORD
  5
AC
330
1
100
AcDbSymbolTableRecord
100
AcDbBlockTableRecord
  2
*D27
 70
    0
280
    1
281
    0
  0
BLOCK_RECORD
  5
AF
330
1
100
AcDbSymbolTableRecord
100
AcDbBlockTableRecord
  2
*D21
 70
    0
280
    1
281
    0
  0
BLOCK_RECORD
  5
B2
330
1
100
AcDbSymbolTableRecord
100
AcDbBlockTableRecord
  2
*D1
 70
    0
280
    1
281
    0
  0
BLOCK_RECORD
  5
B5
330
1
100
AcDbSymbolTableRecord
100
AcDbBlockTableRecord
  2
*D31
 70
    0
280
    1
281
    0
  0
ENDTAB
  0
ENDSEC
  0
SECTION
  2
BLOCKS
  0
BLOCK
  5
20
330
1F
100
AcDbEntity
  8
0
100
AcDbBlockBegin
  2
*Model_Space
 70
    0
 10
0
 20
0
 30
0
  3
*Model_Space
  1

  0
ENDBLK
  5
21
330
1F
100
AcDbEntity
  8
0
100
AcDbBlockEnd
  0
BLOCK
  5
1C
330
1B
100
AcDbEntity
  8
0
100
AcDbBlockBegin
  2
*Paper_Space
 70
    0
 10
0
 20
0
 30
0
  3
*Paper_Space
  1

  0
ENDBLK
  5
1D
330
1F
100
AcDbEntity
  8
0
100
AcDbBlockEnd
  0
BLOCK
  5
53
330
52
100
AcDbEntity
  8
0
100
AcDbBlockBegin
  2
*D3
 70
    1
 10
0
 20
0
  3
*D3
  1

  0
LINE
  5
B8
100
AcDbEntity
  8
Aux
  6
ByBlock
 62
    0
370
   -2
100
AcDbLine
 10
-415.3796938165307
 20
500.5412658773653
 11
-410.7370667976085
 21
508.5825317547306
  0
LINE
  5
B9
100
AcDbEntity
  8
Aux
  6
ByBlock
 62
    0
370
   -2
100
AcDbLine
 10
-346.0976615137756
 20
460.5412658773653
 11
-341.4550344948534
 21
468.5825317547306
  0
LINE
  5
BA
100
AcDbEntity
  8
Aux
  6
ByBlock
 62
    0
370
   -2
100
AcDbLine
 10
-411.3620667976085
 20
507.5
 11
-342.0800344948534
 21
467.5
  0
MTEXT
  5
BB
100
AcDbEntity
  8
Aux
  6
CONTINUOUS
 62
    0
370
   -2
100
AcDbMText
 10
-375.7835506462309
 20
489.1237976320958
 30
0
 40
2.5
 41
3.055555555555556
 71
    5
 72
    1
  1
80
  7
standard
210
0
220
0
230
1
 50
329.9999999999999
 73
    2
 44
1
  0
SOLID
  5
BC
100
AcDbEntity
  8
Aux
  6
ByBlock
 62
    0
370
   -2
100
AcDbTrace
 10
-411.3620667976085
 20
507.5
 30
0
 11
-409.4635021269305
 21
506.7884104710696
 31
0
 12
-409.7965298531487
 22
506.2115895289304
 32
0
 13
-409.7965298531487
 23
506.2115895289304
 33
0
  0
SOLID
  5
BD
100
AcDbEntity
  8
Aux
  6
ByBlock
 62
    0
370
   -2
100
AcDbTrace
 10
-342.0800344948534
 20
467.5
 30
0
 11
-343.9785991655314
 21
468.2115895289304
 31
0
 12
-343.6455714393131
 22
468.7884104710696
 32
0
 13
-343.6455714393131
 23
468.7884104710696
 33
0
  0
ENDBLK
  5
54
330
52
100
AcDbEntity
  8
0
100
AcDbBlockEnd
  0
BLOCK
  5
56
330
55
100
AcDbEntity
  8
0
100
AcDbBlockBegin
  2
*D16
 70
    1
 10
0
 20
0
  3
*D16
  1

  0
LINE
  5
BE
100
AcDbEntity
  8
Cotas Solidas
  6
ByBlock
 62
    0
370
   -2
100
AcDbLine
 10
-386.9351348137565
 20
453.6337018308509
 11
-386.3101348137565
 21
453.6337018308509
  0
LINE
  5
BF
100
AcDbEntity
  8
Cotas Solidas
  6
ByBlock
 62
    0
370
   -2
100
AcDbLine
 10
-386.9351352935007
 20
493.6337015538705
 11
-386.3101352935007
 21
493.6337015538705
  0
LINE
  5
C0
100
AcDbEntity
  8
Cotas Solidas
  6
ByBlock
 62
    0
370
   -2
100
AcDbLine
 10
-387.5601348137565
 20
453.6337018308509
 11
-387.5601352935007
 21
493.6337015538705
  0
MTEXT
  5
C1
100
AcDbEntity
  8
Cotas Solidas
  6
CONTINUOUS
 62
    0
370
   -2
100
AcDbMText
 10
-385.6851350536285
 20
473.6337017148487
 30
0
 40
2.5
 41
3.333333333333333
 71
    5
 72
    1
  1
40
  7
standard
210
0
220
0
230
1
 50
270.0000006871829
 73
    2
 44
1
  0
SOLID
  5
C2
100
AcDbEntity
  8
Cotas Solidas
  6
ByBlock
 62
    0
370
   -2
100
AcDbTrace
 10
-387.5601348137565
 20
453.6337018308509
 30
0
 11
-387.893162563962
 21
455.6337018268567
 31
0
 12
-387.2271071115255
 22
455.6337018348451
 32
0
 13
-387.2271071115255
 23
455.6337018348451
 33
0
  0
SOLID
  5
C3
100
AcDbEntity
  8
Cotas Solidas
  6
ByBlock
 62
    0
370
   -2
100
AcDbTrace
 10
-387.5601352935007
 20
493.6337015538705
 30
0
 11
-387.2271075432952
 21
491.6337015578647
 31
0
 12
-387.8931629957318
 22
491.6337015498763
 32
0
 13
-387.8931629957318
 23
491.6337015498763
 33
0
  0
ENDBLK
  5
57
330
55
100
AcDbEntity
  8
0
100
AcDbBlockEnd
  0
BLOCK
  5
59
330
58
100
AcDbEntity
  8
0
100
AcDbBlockBegin
  2
*D17
 70
    1
 10
0
 20
0
  3
*D17
  1

  0
LINE
  5
C4
100
AcDbEntity
  8
Cotas Solidas
  6
CONTINUOUS
 62
    7
370
    0
100
AcDbLine
 10
-457.5069187346323
 20
420.1054218144048
 11
-464.1896164284592
 21
420
  0
SOLID
  5
C5
100
AcDbEntity
  8
Cotas Solidas
  6
CONTINUOUS
 62
    7
370
    0
100
AcDbTrace
 10
-457.5069187346323
 20
420.1054218144048
 30
0
 11
-459.5014169484535
 21
419.7408887685861
 31
0
 12
-459.5119228911161
 22
420.4068613587797
 32
0
 13
-459.5119228911161
 23
420.4068613587797
 33
0
  0
ENDBLK
  5
5A
330
58
100
AcDbEntity
  8
0
100
AcDbBlockEnd
  0
BLOCK
  5
5C
330
5B
100
AcDbEntity
  8
0
100
AcDbBlockBegin
  2
*D30
 70
    1
 10
0
 20
0
  3
*D30
  1

  0
LINE
  5
C6
100
AcDbEntity
  8
Cotas Solidas
  6
ByBlock
 62
    0
370
   -2
100
AcDbLine
 10
-150.9294456622768
 20
430
 11
-150.3044456622768
 21
430
  0
LINE
  5
C7
100
AcDbEntity
  8
Cotas Solidas
  6
ByBlock
 62
    0
370
   -2
100
AcDbLine
 10
-98.96792143521049
 20
399.9999999999999
 11
-98.34292143521049
 21
399.9999999999999
  0
LINE
  5
C8
100
AcDbEntity
  8
Cotas Solidas
  6
ByBlock
 62
    0
370
   -2
100
AcDbLine
 10
-151.5544456622768
 20
430
 11
-99.59292143521049
 21
399.9999999999999
  0
MTEXT
  5
C9
100
AcDbEntity
  8
Cotas Solidas
  6
CONTINUOUS
 62
    0
370
   -2
100
AcDbMText
 10
-124.6361835487436
 20
416.6237976320958
 30
0
 40
2.5
 41
3.055555555555711
 71
    5
 72
    1
  1
60
  7
standard
210
0
220
0
230
1
 50
329.9999999999999
 73
    2
 44
1
  0
SOLID
  5
CA
100
AcDbEntity
  8
Cotas Solidas
  6
ByBlock
 62
    0
370
   -2
100
AcDbTrace
 10
-151.5544456622768
 20
430
 30
0
 11
-149.6558809915988
 21
429.2884104710696
 31
0
 12
-149.9889087178171
 22
428.7115895289304
 32
0
 13
-149.9889087178171
 23
428.7115895289304
 33
0
  0
SOLID
  5
CB
100
AcDbEntity
  8
Cotas Solidas
  6
ByBlock
 62
    0
370
   -2
100
AcDbTrace
 10
-99.59292143521049
 20
399.9999999999999
 30
0
 11
-101.4914861058885
 21
400.7115895289303
 31
0
 12
-101.1584583796702
 22
401.2884104710695
 32
0
 13
-101.1584583796702
 23
401.2884104710695
 33
0
  0
ENDBLK
  5
5D
330
5B
100
AcDbEntity
  8
0
100
AcDbBlockEnd
  0
BLOCK
  5
5F
330
5E
100
AcDbEntity
  8
0
100
AcDbBlockBegin
  2
*D7
 70
    1
 10
0
 20
0
  3
*D7
  1

  0
LINE
  5
CC
100
AcDbEntity
  8
Cotas Solidas
  6
ByBlock
 62
    0
370
   -2
100
AcDbLine
 10
-452.377760775477
 20
353.4587341226347
 11
-459.1854513038602
 21
341.6674682452694
  0
LINE
  5
CD
100
AcDbEntity
  8
Cotas Solidas
  6
ByBlock
 62
    0
370
   -2
100
AcDbLine
 10
-478.3585228890102
 20
368.4587341226347
 11
-485.1662134173935
 21
356.6674682452694
  0
LINE
  5
CE
100
AcDbEntity
  8
Cotas Solidas
  6
ByBlock
 62
    0
370
   -2
100
AcDbLine
 10
-458.5604513038602
 20
342.75
 11
-484.5412134173935
 21
357.75
  0
MTEXT
  5
CF
100
AcDbEntity
  8
Cotas Solidas
  6
CONTINUOUS
 62
    0
370
   -2
100
AcDbMText
 10
-470.6133323606269
 20
351.8737976320958
 30
0
 40
2.5
 41
3.055555555555711
 71
    5
 72
    1
  1
30
  7
standard
210
0
220
0
230
1
 50
330.0000000000001
 73
    2
 44
1
  0
SOLID
  5
D0
100
AcDbEntity
  8
Cotas Solidas
  6
ByBlock
 62
    0
370
   -2
100
AcDbTrace
 10
-458.5604513038602
 20
342.75
 30
0
 11
-460.4590159745383
 21
343.4615895289304
 31
0
 12
-460.12598824832
 22
344.0384104710696
 32
0
 13
-460.12598824832
 23
344.0384104710696
 33
0
  0
SOLID
  5
D1
100
AcDbEntity
  8
Cotas Solidas
  6
ByBlock
 62
    0
370
   -2
100
AcDbTrace
 10
-484.5412134173935
 20
357.75
 30
0
 11
-482.6426487467155
 21
357.0384104710696
 31
0
 12
-482.9756764729337
 22
356.4615895289304
 32
0
 13
-482.9756764729337
 23
356.4615895289304
 33
0
  0
ENDBLK
  5
60
330
5E
100
AcDbEntity
  8
0
100
AcDbBlockEnd
  0
BLOCK
  5
62
330
61
100
AcDbEntity
  8
0
100
AcDbBlockBegin
  2
*D10
 70
    1
 10
0
 20
0
  3
*D10
  1

  0
LINE
  5
D2
100
AcDbEntity
  8
Cotas Solidas
  6
ByBlock
 62
    0
370
   -2
100
AcDbLine
 10
-449.7082099679082
 20
430
 11
-449.0832099679082
 21
430
  0
LINE
  5
D3
100
AcDbEntity
  8
Cotas Solidas
  6
ByBlock
 62
    0
370
   -2
100
AcDbLine
 10
-449.7082099679082
 20
420
 11
-449.0832099679082
 21
420
  0
LINE
  5
D4
100
AcDbEntity
  8
Cotas Solidas
  6
ByBlock
 62
    0
370
   -2
100
AcDbLine
 10
-450.3332099679082
 20
430
 11
-450.3332099679082
 21
420
  0
MTEXT
  5
D5
100
AcDbEntity
  8
Cotas Solidas
  6
CONTINUOUS
 62
    0
370
   -2
100
AcDbMText
 10
-452.2082099679082
 20
425
 30
0
 40
2.5
 41
2.5
 71
    5
 72
    1
  1
10
  7
standard
210
0
220
0
230
1
 50
90
 73
    2
 44
1
  0
SOLID
  5
D6
100
AcDbEntity
  8
Cotas Solidas
  6
ByBlock
 62
    0
370
   -2
100
AcDbTrace
 10
-450.3332099679082
 20
430
 30
0
 11
-450.0001822416899
 21
428
 31
0
 12
-450.6662376941265
 22
428
 32
0
 13
-450.6662376941265
 23
428
 33
0
  0
SOLID
  5
D7
100
AcDbEntity
  8
Cotas Solidas
  6
ByBlock
 62
    0
370
   -2
100
AcDbTrace
 10
-450.3332099679082
 20
420
 30
0
 11
-450.6662376941265
 21
422
 31
0
 12
-450.0001822416899
 22
422
 32
0
 13
-450.0001822416899
 23
422
 33
0
  0
ENDBLK
  5
63
330
61
100
AcDbEntity
  8
0
100
AcDbBlockEnd
  0
BLOCK
  5
65
330
64
100
AcDbEntity
  8
0
100
AcDbBlockBegin
  2
*D11
 70
    1
 10
0
 20
0
  3
*D11
  1

  0
LINE
  5
D8
100
AcDbEntity
  8
Cotas Solidas
  6
ByBlock
 62
    0
370
   -2
100
AcDbLine
 10
-428.0575748732972
 20
477.5
 11
-427.4325748732972
 21
477.5
  0
LINE
  5
D9
100
AcDbEntity
  8
Cotas Solidas
  6
ByBlock
 62
    0
370
   -2
100
AcDbLine
 10
-419.3973208354528
 20
472.5
 11
-418.7723208354528
 21
472.5
  0
LINE
  5
DA
100
AcDbEntity
  8
Cotas Solidas
  6
ByBlock
 62
    0
370
   -2
100
AcDbLine
 10
-428.6825748732972
 20
477.5
 11
-420.0223208354528
 21
472.5
  0
MTEXT
  5
DB
100
AcDbEntity
  8
Cotas Solidas
  6
CONTINUOUS
 62
    0
370
   -2
100
AcDbMText
 10
-423.414947854375
 20
476.6237976320958
 30
0
 40
2.5
 41
2.5
 71
    5
 72
    1
  1
10
  7
standard
210
0
220
0
230
1
 50
330.0000000000001
 73
    2
 44
1
  0
SOLID
  5
DC
100
AcDbEntity
  8
Cotas Solidas
  6
ByBlock
 62
    0
370
   -2
100
AcDbTrace
 10
-428.6825748732972
 20
477.5
 30
0
 11
-426.7840102026192
 21
476.7884104710696
 31
0
 12
-427.1170379288375
 22
476.2115895289304
 32
0
 13
-427.1170379288375
 23
476.2115895289304
 33
0
  0
SOLID
  5
DD
100
AcDbEntity
  8
Cotas Solidas
  6
ByBlock
 62
    0
370
   -2
100
AcDbTrace
 10
-420.0223208354528
 20
472.5
 30
0
 11
-421.9208855061308
 21
473.2115895289304
 31
0
 12
-421.5878577799125
 22
473.7884104710696
 32
0
 13
-421.5878577799125
 23
473.7884104710696
 33
0
  0
ENDBLK
  5
66
330
64
100
AcDbEntity
  8
0
100
AcDbBlockEnd
  0
BLOCK
  5
68
330
67
100
AcDbEntity
  8
0
100
AcDbBlockBegin
  2
*D25
 70
    1
 10
0
 20
0
  3
*D25
  1

  0
LINE
  5
DE
100
AcDbEntity
  8
Cotas Solidas
  6
ByBlock
 62
    0
370
   -2
100
AcDbLine
 10
-189.9005888325765
 20
437.5
 11
-189.2755888325765
 21
437.5
  0
LINE
  5
DF
100
AcDbEntity
  8
Cotas Solidas
  6
ByBlock
 62
    0
370
   -2
100
AcDbLine
 10
-176.91020777581
 20
445
 11
-176.28520777581
 21
445
  0
LINE
  5
E0
100
AcDbEntity
  8
Cotas Solidas
  6
ByBlock
 62
    0
370
   -2
100
AcDbLine
 10
-190.5255888325765
 20
437.5
 11
-177.53520777581
 21
445
  0
MTEXT
  5
E1
100
AcDbEntity
  8
Cotas Solidas
  6
CONTINUOUS
 62
    0
370
   -2
100
AcDbMText
 10
-184.9678983041932
 20
442.8737976320958
 30
0
 40
2.5
 41
2.500000000000155
 71
    5
 72
    1
  1
15
  7
standard
210
0
220
0
230
1
 50
30.00000000000017
 73
    2
 44
1
  0
SOLID
  5
E2
100
AcDbEntity
  8
Cotas Solidas
  6
ByBlock
 62
    0
370
   -2
100
AcDbTrace
 10
-190.5255888325765
 20
437.5
 30
0
 11
-188.9600518881167
 21
438.7884104710696
 31
0
 12
-188.6270241618985
 22
438.2115895289304
 32
0
 13
-188.6270241618985
 23
438.2115895289304
 33
0
  0
SOLID
  5
E3
100
AcDbEntity
  8
Cotas Solidas
  6
ByBlock
 62
    0
370
   -2
100
AcDbTrace
 10
-177.53520777581
 20
445
 30
0
 11
-179.1007447202697
 21
443.7115895289304
 31
0
 12
-179.433772446488
 22
444.2884104710696
 32
0
 13
-179.433772446488
 23
444.2884104710696
 33
0
  0
ENDBLK
  5
69
330
67
100
AcDbEntity
  8
0
100
AcDbBlockEnd
  0
BLOCK
  5
6B
330
6A
100
AcDbEntity
  8
0
100
AcDbBlockBegin
  2
*D13
 70
    1
 10
0
 20
0
  3
*D13
  1

  0
LINE
  5
E4
100
AcDbEntity
  8
Cotas Solidas
  6
ByBlock
 62
    0
370
   -2
100
AcDbLine
 10
-428.0575748732972
 20
447.5
 11
-427.4325748732972
 21
447.5
  0
LINE
  5
E5
100
AcDbEntity
  8
Cotas Solidas
  6
ByBlock
 62
    0
370
   -2
100
AcDbLine
 10
-402.0768127597641
 20
462.5
 11
-401.4518127597641
 21
462.5
  0
LINE
  5
E6
100
AcDbEntity
  8
Cotas Solidas
  6
ByBlock
 62
    0
370
   -2
100
AcDbLine
 10
-428.6825748732972
 20
447.5
 11
-402.7018127597641
 21
462.5
  0
MTEXT
  5
E7
100
AcDbEntity
  8
Cotas Solidas
  6
CONTINUOUS
 62
    0
370
   -2
100
AcDbMText
 10
-416.6296938165307
 20
456.6237976320958
 30
0
 40
2.5
 41
3.055555555555711
 71
    5
 72
    1
  1
30
  7
standard
210
0
220
0
230
1
 50
30.00000000000007
 73
    2
 44
1
  0
SOLID
  5
E8
100
AcDbEntity
  8
Cotas Solidas
  6
ByBlock
 62
    0
370
   -2
100
AcDbTrace
 10
-428.6825748732972
 20
447.5
 30
0
 11
-427.1170379288375
 21
448.7884104710696
 31
0
 12
-426.7840102026192
 22
448.2115895289304
 32
0
 13
-426.7840102026192
 23
448.2115895289304
 33
0
  0
SOLID
  5
E9
100
AcDbEntity
  8
Cotas Solidas
  6
ByBlock
 62
    0
370
   -2
100
AcDbTrace
 10
-402.7018127597641
 20
462.5
 30
0
 11
-404.2673497042238
 21
461.2115895289304
 31
0
 12
-404.6003774304421
 22
461.7884104710696
 32
0
 13
-404.6003774304421
 23
461.7884104710696
 33
0
  0
ENDBLK
  5
6C
330
6A
100
AcDbEntity
  8
0
100
AcDbBlockEnd
  0
BLOCK
  5
6E
330
6D
100
AcDbEntity
  8
0
100
AcDbBlockBegin
  2
*D15
 70
    1
 10
0
 20
0
  3
*D15
  1

  0
LINE
  5
EA
100
AcDbEntity
  8
Cotas Solidas
  6
CONTINUOUS
 62
    7
370
    0
100
AcDbLine
 10
-378.0807699341387
 20
446.8599484427492
 11
-374.988999838662
 21
459.5
  0
SOLID
  5
EB
100
AcDbEntity
  8
Cotas Solidas
  6
CONTINUOUS
 62
    7
370
    0
100
AcDbTrace
 10
-378.0807699341387
 20
446.8599484427492
 30
0
 11
-377.9290677521105
 21
448.8818025211629
 31
0
 12
-377.2820855277927
 22
448.7235499788856
 32
0
 13
-377.2820855277927
 23
448.7235499788856
 33
0
  0
ENDBLK
  5
6F
330
6D
100
AcDbEntity
  8
0
100
AcDbBlockEnd
  0
BLOCK
  5
71
330
70
100
AcDbEntity
  8
0
100
AcDbBlockBegin
  2
*D22
 70
    1
 10
0
 20
0
  3
*D22
  1

  0
LINE
  5
EC
100
AcDbEntity
  8
Cotas Solidas
  6
ByBlock
 62
    0
370
   -2
100
AcDbLine
 10
-248.2122718332956
 20
358.5000000000001
 11
-247.5872718332956
 21
358.5000000000001
  0
LINE
  5
ED
100
AcDbEntity
  8
Cotas Solidas
  6
ByBlock
 62
    0
370
   -2
100
AcDbLine
 10
-163.7747949643128
 20
309.75
 11
-163.1497949643128
 21
309.75
  0
LINE
  5
EE
100
AcDbEntity
  8
Cotas Solidas
  6
ByBlock
 62
    0
370
   -2
100
AcDbLine
 10
-248.8372718332956
 20
358.5000000000001
 11
-164.3997949643128
 21
309.75
  0
MTEXT
  5
EF
100
AcDbEntity
  8
Cotas Solidas
  6
CONTINUOUS
 62
    0
370
   -2
100
AcDbMText
 10
-205.6810333988042
 20
335.7487976320959
 30
0
 40
2.5
 41
5.833333333333644
 71
    5
 72
    1
  1
97.5
  7
standard
210
0
220
0
230
1
 50
329.9999999999999
 73
    2
 44
1
  0
SOLID
  5
F0
100
AcDbEntity
  8
Cotas Solidas
  6
ByBlock
 62
    0
370
   -2
100
AcDbTrace
 10
-248.8372718332956
 20
358.5000000000001
 30
0
 11
-246.9387071626176
 21
357.7884104710697
 31
0
 12
-247.2717348888359
 22
357.2115895289305
 32
0
 13
-247.2717348888359
 23
357.2115895289305
 33
0
  0
SOLID
  5
F1
100
AcDbEntity
  8
Cotas Solidas
  6
ByBlock
 62
    0
370
   -2
100
AcDbTrace
 10
-164.3997949643128
 20
309.75
 30
0
 11
-166.2983596349908
 21
310.4615895289304
 31
0
 12
-165.9653319087726
 22
311.0384104710696
 32
0
 13
-165.9653319087726
 23
311.0384104710696
 33
0
  0
ENDBLK
  5
72
330
70
100
AcDbEntity
  8
0
100
AcDbBlockEnd
  0
BLOCK
  5
74
330
73
100
AcDbEntity
  8
0
100
AcDbBlockBegin
  2
*D24
 70
    1
 10
0
 20
0
  3
*D24
  1

  0
LINE
  5
F2
100
AcDbEntity
  8
Cotas Solidas
  6
ByBlock
 62
    0
370
   -2
100
AcDbLine
 10
-197.2618047647443
 20
403.25
 11
-196.6368047647443
 21
403.25
  0
LINE
  5
F3
100
AcDbEntity
  8
Cotas Solidas
  6
ByBlock
 62
    0
370
   -2
100
AcDbLine
 10
-171.2810426512111
 20
388.25
 11
-170.6560426512111
 21
388.25
  0
LINE
  5
F4
100
AcDbEntity
  8
Cotas Solidas
  6
ByBlock
 62
    0
370
   -2
100
AcDbLine
 10
-197.8868047647443
 20
403.25
 11
-171.9060426512111
 21
388.25
  0
MTEXT
  5
F5
100
AcDbEntity
  8
Cotas Solidas
  6
CONTINUOUS
 62
    0
370
   -2
100
AcDbMText
 10
-183.9589237079777
 20
397.3737976320958
 30
0
 40
2.5
 41
3.055555555555711
 71
    5
 72
    1
  1
30
  7
standard
210
0
220
0
230
1
 50
330.0000000000001
 73
    2
 44
1
  0
SOLID
  5
F6
100
AcDbEntity
  8
Cotas Solidas
  6
ByBlock
 62
    0
370
   -2
100
AcDbTrace
 10
-197.8868047647443
 20
403.25
 30
0
 11
-195.9882400940663
 21
402.5384104710696
 31
0
 12
-196.3212678202846
 22
401.9615895289304
 32
0
 13
-196.3212678202846
 23
401.9615895289304
 33
0
  0
SOLID
  5
F7
100
AcDbEntity
  8
Cotas Solidas
  6
ByBlock
 62
    0
370
   -2
100
AcDbTrace
 10
-171.9060426512111
 20
388.25
 30
0
 11
-173.8046073218891
 21
388.9615895289304
 31
0
 12
-173.4715795956708
 22
389.5384104710696
 32
0
 13
-173.4715795956708
 23
389.5384104710696
 33
0
  0
ENDBLK
  5
75
330
73
100
AcDbEntity
  8
0
100
AcDbBlockEnd
  0
BLOCK
  5
77
330
76
100
AcDbEntity
  8
0
100
AcDbBlockBegin
  2
*D34
 70
    1
 10
0
 20
0
  3
*D34
  1

  0
LINE
  5
F8
100
AcDbEntity
  8
Cotas Solidas
  6
CONTINUOUS
 62
    7
370
    0
100
AcDbLine
 10
-123.8416327411747
 20
396.5
 11
-119.5115057222525
 21
404
  0
LINE
  5
F9
100
AcDbEntity
  8
Cotas Solidas
  6
CONTINUOUS
 62
    7
370
    0
100
AcDbLine
 10
-119.5115057222525
 20
404
 11
-128.1717597600969
 21
404
  0
SOLID
  5
FA
100
AcDbEntity
  8
Cotas Solidas
  6
CONTINUOUS
 62
    7
370
    0
100
AcDbTrace
 10
-123.8416327411747
 20
396.5
 30
0
 11
-123.1300432122443
 21
398.398564670678
 31
0
 12
-122.5532222701051
 22
398.0655369444597
 32
0
 13
-122.5532222701051
 23
398.0655369444597
 33
0
  0
ENDBLK
  5
78
330
76
100
AcDbEntity
  8
0
100
AcDbBlockEnd
  0
BLOCK
  5
7A
330
79
100
AcDbEntity
  8
0
100
AcDbBlockBegin
  2
*D26
 70
    1
 10
0
 20
0
  3
*D26
  1

  0
LINE
  5
FB
100
AcDbEntity
  8
Cotas Solidas
  6
ByBlock
 62
    0
370
   -2
100
AcDbLine
 10
-150.9294456622768
 20
430
 11
-150.3044456622768
 21
430
  0
LINE
  5
FC
100
AcDbEntity
  8
Cotas Solidas
  6
ByBlock
 62
    0
370
   -2
100
AcDbLine
 10
-150.9294456622768
 20
459.9999999999999
 11
-150.3044456622768
 21
459.9999999999999
  0
LINE
  5
FD
100
AcDbEntity
  8
Cotas Solidas
  6
ByBlock
 62
    0
370
   -2
100
AcDbLine
 10
-151.5544456622768
 20
430
 11
-151.5544456622768
 21
459.9999999999999
  0
MTEXT
  5
FE
100
AcDbEntity
  8
Cotas Solidas
  6
CONTINUOUS
 62
    0
370
   -2
100
AcDbMText
 10
-153.4294456622768
 20
445
 30
0
 40
2.5
 41
3.055555555555711
 71
    5
 72
    1
  1
30
  7
standard
210
0
220
0
230
1
 50
90
 73
    2
 44
1
  0
SOLID
  5
FF
100
AcDbEntity
  8
Cotas Solidas
  6
ByBlock
 62
    0
370
   -2
100
AcDbTrace
 10
-151.5544456622768
 20
430
 30
0
 11
-151.8874733884951
 21
432
 31
0
 12
-151.2214179360585
 22
432
 32
0
 13
-151.2214179360585
 23
432
 33
0
  0
SOLID
  5
100
100
AcDbEntity
  8
Cotas Solidas
  6
ByBlock
 62
    0
370
   -2
100
AcDbTrace
 10
-151.5544456622768
 20
459.9999999999999
 30
0
 11
-151.2214179360585
 21
457.9999999999999
 31
0
 12
-151.8874733884951
 22
457.9999999999999
 32
0
 13
-151.8874733884951
 23
457.9999999999999
 33
0
  0
ENDBLK
  5
7B
330
79
100
AcDbEntity
  8
0
100
AcDbBlockEnd
  0
BLOCK
  5
7D
330
7C
100
AcDbEntity
  8
0
100
AcDbBlockBegin
  2
*D33
 70
    1
 10
0
 20
0
  3
*D33
  1

  0
LINE
  5
101
100
AcDbEntity
  8
Cotas Solidas
  6
ByBlock
 62
    0
370
   -2
100
AcDbLine
 10
-163.9198267190434
 20
512.5
 11
-163.2948267190434
 21
512.5
  0
LINE
  5
102
100
AcDbEntity
  8
Cotas Solidas
  6
ByBlock
 62
    0
370
   -2
100
AcDbLine
 10
-163.9198267190434
 20
467.5000000000001
 11
-163.2948267190434
 21
467.5000000000001
  0
LINE
  5
103
100
AcDbEntity
  8
Cotas Solidas
  6
ByBlock
 62
    0
370
   -2
100
AcDbLine
 10
-164.5448267190434
 20
512.5
 11
-164.5448267190434
 21
467.5000000000001
  0
MTEXT
  5
104
100
AcDbEntity
  8
Cotas Solidas
  6
CONTINUOUS
 62
    0
370
   -2
100
AcDbMText
 10
-162.3797632095823
 20
489.75
 30
0
 40
2.5
 41
3.333333333333488
 71
    5
 72
    1
  1
45
  7
standard
210
0
220
0
230
1
 50
90
 73
    2
 44
1
  0
SOLID
  5
105
100
AcDbEntity
  8
Cotas Solidas
  6
ByBlock
 62
    0
370
   -2
100
AcDbTrace
 10
-164.5448267190434
 20
512.5
 30
0
 11
-164.2117989928252
 21
510.5
 31
0
 12
-164.8778544452617
 22
510.5
 32
0
 13
-164.8778544452617
 23
510.5
 33
0
  0
SOLID
  5
106
100
AcDbEntity
  8
Cotas Solidas
  6
ByBlock
 62
    0
370
   -2
100
AcDbTrace
 10
-164.5448267190434
 20
467.5000000000001
 30
0
 11
-164.8778544452617
 21
469.5000000000001
 31
0
 12
-164.2117989928252
 22
469.5000000000001
 32
0
 13
-164.2117989928252
 23
469.5000000000001
 33
0
  0
ENDBLK
  5
7E
330
7C
100
AcDbEntity
  8
0
100
AcDbBlockEnd
  0
BLOCK
  5
80
330
7F
100
AcDbEntity
  8
0
100
AcDbBlockBegin
  2
*D14
 70
    1
 10
0
 20
0
  3
*D14
  1

  0
LINE
  5
107
100
AcDbEntity
  8
Cotas Solidas
  6
CONTINUOUS
 62
    7
370
    0
100
AcDbLine
 10
-424.352447854375
 20
415
 11
-407.0319397786863
 21
425
  0
SOLID
  5
108
100
AcDbEntity
  8
Cotas Solidas
  6
CONTINUOUS
 62
    7
370
    0
100
AcDbTrace
 10
-424.352447854375
 20
415
 30
0
 11
-422.7869109099153
 21
416.2884104710696
 31
0
 12
-422.453883183697
 22
415.7115895289304
 32
0
 13
-422.453883183697
 23
415.7115895289304
 33
0
  0
ENDBLK
  5
81
330
7F
100
AcDbEntity
  8
0
100
AcDbBlockEnd
  0
BLOCK
  5
83
330
82
100
AcDbEntity
  8
0
100
AcDbBlockBegin
  2
*D2
 70
    1
 10
0
 20
0
  3
*D2
  1

  0
LINE
  5
109
100
AcDbEntity
  8
Aux
  6
ByBlock
 62
    0
370
   -2
100
AcDbLine
 10
-389.0864317029975
 20
445
 11
-388.4614317029975
 21
445
  0
LINE
  5
10A
100
AcDbEntity
  8
Aux
  6
ByBlock
 62
    0
370
   -2
100
AcDbLine
 10
-371.7659236273087
 20
435
 11
-371.1409236273087
 21
435
  0
LINE
  5
10B
100
AcDbEntity
  8
Aux
  6
ByBlock
 62
    0
370
   -2
100
AcDbLine
 10
-389.7114317029975
 20
445
 11
-372.3909236273087
 21
435
  0
MTEXT
  5
10C
100
AcDbEntity
  8
Aux
  6
CONTINUOUS
 62
    0
370
   -2
100
AcDbMText
 10
-380.1136776651531
 20
441.6237976320958
 30
0
 40
2.5
 41
3.055555555555556
 71
    5
 72
    1
  1
20
  7
standard
210
0
220
0
230
1
 50
330.0000000000001
 73
    2
 44
1
  0
SOLID
  5
10D
100
AcDbEntity
  8
Aux
  6
ByBlock
 62
    0
370
   -2
100
AcDbTrace
 10
-389.7114317029975
 20
445
 30
0
 11
-387.8128670323195
 21
444.2884104710696
 31
0
 12
-388.1458947585378
 22
443.7115895289304
 32
0
 13
-388.1458947585378
 23
443.7115895289304
 33
0
  0
SOLID
  5
10E
100
AcDbEntity
  8
Aux
  6
ByBlock
 62
    0
370
   -2
100
AcDbTrace
 10
-372.3909236273087
 20
435
 30
0
 11
-374.2894882979867
 21
435.7115895289304
 31
0
 12
-373.9564605717684
 22
436.2884104710696
 32
0
 13
-373.9564605717684
 23
436.2884104710696
 33
0
  0
ENDBLK
  5
84
330
82
100
AcDbEntity
  8
0
100
AcDbBlockEnd
  0
BLOCK
  5
86
330
85
100
AcDbEntity
  8
0
100
AcDbBlockBegin
  2
*D19
 70
    1
 10
0
 20
0
  3
*D19
  1

  0
LINE
  5
10F
100
AcDbEntity
  8
Cotas Solidas
  6
CONTINUOUS
 62
    7
370
    0
100
AcDbLine
 10
-356.6777474427902
 20
478.5933610750436
 11
-343.8120853024222
 21
480.5
  0
SOLID
  5
110
100
AcDbEntity
  8
Cotas Solidas
  6
CONTINUOUS
 62
    7
370
    0
100
AcDbTrace
 10
-356.6777474427902
 20
478.5933610750436
 30
0
 11
-354.7481744016825
 21
479.2159808189169
 31
0
 12
-354.6505340536284
 22
478.5571210249149
 32
0
 13
-354.6505340536284
 23
478.5571210249149
 33
0
  0
ENDBLK
  5
87
330
85
100
AcDbEntity
  8
0
100
AcDbBlockEnd
  0
BLOCK
  5
89
330
88
100
AcDbEntity
  8
0
100
AcDbBlockBegin
  2
*D32
 70
    1
 10
0
 20
0
  3
*D32
  1

  0
LINE
  5
111
100
AcDbEntity
  8
Cotas Solidas
  6
CONTINUOUS
 62
    7
370
    0
100
AcDbLine
 10
-236.857947935044
 20
485.75
 11
-246.3842273766728
 21
491.25
  0
LINE
  5
112
100
AcDbEntity
  8
Cotas Solidas
  6
CONTINUOUS
 62
    7
370
    0
100
AcDbLine
 10
-246.3842273766728
 20
491.25
 11
-237.7239733388284
 21
494.25
  0
SOLID
  5
113
100
AcDbEntity
  8
Cotas Solidas
  6
CONTINUOUS
 62
    7
370
    0
100
AcDbTrace
 10
-236.857947935044
 20
485.75
 30
0
 11
-238.756512605722
 21
486.4615895289304
 31
0
 12
-238.4234848795037
 22
487.0384104710696
 32
0
 13
-238.4234848795037
 23
487.0384104710696
 33
0
  0
ENDBLK
  5
8A
330
88
100
AcDbEntity
  8
0
100
AcDbBlockEnd
  0
BLOCK
  5
8C
330
8B
100
AcDbEntity
  8
0
100
AcDbBlockBegin
  2
*D4
 70
    1
 10
0
 20
0
  3
*D4
  1

  0
LINE
  5
114
100
AcDbEntity
  8
Aux
  6
ByBlock
 62
    0
370
   -2
100
AcDbLine
 10
-380.4261776651531
 20
440
 11
-379.8011776651531
 21
440
  0
LINE
  5
115
100
AcDbEntity
  8
Aux
  6
ByBlock
 62
    0
370
   -2
100
AcDbLine
 10
-432.3877018922194
 20
410
 11
-431.7627018922194
 21
410
  0
LINE
  5
116
100
AcDbEntity
  8
Aux
  6
ByBlock
 62
    0
370
   -2
100
AcDbLine
 10
-381.0511776651531
 20
440
 11
-433.0127018922194
 21
410
  0
MTEXT
  5
117
100
AcDbEntity
  8
Aux
  6
CONTINUOUS
 62
    0
370
   -2
100
AcDbMText
 10
-407.9694397786863
 20
426.6237976320958
 30
0
 40
2.5
 41
3.055555555555711
 71
    5
 72
    1
  1
60
  7
standard
210
0
220
0
230
1
 50
29.99999999999996
 73
    2
 44
1
  0
SOLID
  5
118
100
AcDbEntity
  8
Aux
  6
ByBlock
 62
    0
370
   -2
100
AcDbTrace
 10
-381.0511776651531
 20
440
 30
0
 11
-382.6167146096128
 21
438.7115895289304
 31
0
 12
-382.9497423358311
 22
439.2884104710696
 32
0
 13
-382.9497423358311
 23
439.2884104710696
 33
0
  0
SOLID
  5
119
100
AcDbEntity
  8
Aux
  6
ByBlock
 62
    0
370
   -2
100
AcDbTrace
 10
-433.0127018922194
 20
410
 30
0
 11
-431.4471649477597
 21
411.2884104710696
 31
0
 12
-431.1141372215414
 22
410.7115895289304
 32
0
 13
-431.1141372215414
 23
410.7115895289304
 33
0
  0
ENDBLK
  5
8D
330
8B
100
AcDbEntity
  8
0
100
AcDbBlockEnd
  0
BLOCK
  5
8F
330
8E
100
AcDbEntity
  8
0
100
AcDbBlockBegin
  2
*D23
 70
    1
 10
0
 20
0
  3
*D23
  1

  0
LINE
  5
11A
100
AcDbEntity
  8
Cotas Solidas
  6
ByBlock
 62
    0
370
   -2
100
AcDbLine
 10
-163.7747949643128
 20
324.75
 11
-163.1497949643128
 21
324.75
  0
LINE
  5
11B
100
AcDbEntity
  8
Cotas Solidas
  6
ByBlock
 62
    0
370
   -2
100
AcDbLine
 10
-163.7747949643128
 20
309.75
 11
-163.1497949643128
 21
309.75
  0
LINE
  5
11C
100
AcDbEntity
  8
Cotas Solidas
  6
ByBlock
 62
    0
370
   -2
100
AcDbLine
 10
-164.3997949643128
 20
324.75
 11
-164.3997949643128
 21
309.75
  0
MTEXT
  5
11D
100
AcDbEntity
  8
Cotas Solidas
  6
CONTINUOUS
 62
    0
370
   -2
100
AcDbMText
 10
-166.2747949643128
 20
317.25
 30
0
 40
2.5
 41
2.500000000000155
 71
    5
 72
    1
  1
15
  7
standard
210
0
220
0
230
1
 50
90
 73
    2
 44
1
  0
SOLID
  5
11E
100
AcDbEntity
  8
Cotas Solidas
  6
ByBlock
 62
    0
370
   -2
100
AcDbTrace
 10
-164.3997949643128
 20
324.75
 30
0
 11
-164.0667672380945
 21
322.75
 31
0
 12
-164.7328226905311
 22
322.75
 32
0
 13
-164.7328226905311
 23
322.75
 33
0
  0
SOLID
  5
11F
100
AcDbEntity
  8
Cotas Solidas
  6
ByBlock
 62
    0
370
   -2
100
AcDbTrace
 10
-164.3997949643128
 20
309.75
 30
0
 11
-164.7328226905311
 21
311.75
 31
0
 12
-164.0667672380945
 22
311.75
 32
0
 13
-164.0667672380945
 23
311.75
 33
0
  0
ENDBLK
  5
90
330
8E
100
AcDbEntity
  8
0
100
AcDbBlockEnd
  0
BLOCK
  5
92
330
91
100
AcDbEntity
  8
0
100
AcDbBlockBegin
  2
*D5
 70
    1
 10
0
 20
0
  3
*D5
  1

  0
LINE
  5
120
100
AcDbEntity
  8
Aux
  6
ByBlock
 62
    0
370
   -2
100
AcDbLine
 10
-428.0575748732972
 20
477.5
 11
-427.4325748732972
 21
477.5
  0
LINE
  5
121
100
AcDbEntity
  8
Aux
  6
ByBlock
 62
    0
370
   -2
100
AcDbLine
 10
-419.3973208354528
 20
472.5
 11
-418.7723208354528
 21
472.5
  0
LINE
  5
122
100
AcDbEntity
  8
Aux
  6
ByBlock
 62
    0
370
   -2
100
AcDbLine
 10
-428.6825748732972
 20
477.5
 11
-420.0223208354528
 21
472.5
  0
MTEXT
  5
123
100
AcDbEntity
  8
Aux
  6
CONTINUOUS
 62
    0
370
   -2
100
AcDbMText
 10
-423.414947854375
 20
476.6237976320958
 30
0
 40
2.5
 41
2.5
 71
    5
 72
    1
  1
10
  7
standard
210
0
220
0
230
1
 50
330.0000000000001
 73
    2
 44
1
  0
SOLID
  5
124
100
AcDbEntity
  8
Aux
  6
ByBlock
 62
    0
370
   -2
100
AcDbTrace
 10
-428.6825748732972
 20
477.5
 30
0
 11
-426.7840102026192
 21
476.7884104710696
 31
0
 12
-427.1170379288375
 22
476.2115895289304
 32
0
 13
-427.1170379288375
 23
476.2115895289304
 33
0
  0
SOLID
  5
125
100
AcDbEntity
  8
Aux
  6
ByBlock
 62
    0
370
   -2
100
AcDbTrace
 10
-420.0223208354528
 20
472.5
 30
0
 11
-421.9208855061308
 21
473.2115895289304
 31
0
 12
-421.5878577799125
 22
473.7884104710696
 32
0
 13
-421.5878577799125
 23
473.7884104710696
 33
0
  0
ENDBLK
  5
93
330
91
100
AcDbEntity
  8
0
100
AcDbBlockEnd
  0
BLOCK
  5
95
330
94
100
AcDbEntity
  8
0
100
AcDbBlockBegin
  2
*D6
 70
    1
 10
0
 20
0
  3
*D6
  1

  0
LINE
  5
126
100
AcDbEntity
  8
Cotas Solidas
  6
ByBlock
 62
    0
370
   -2
100
AcDbLine
 10
-432.3877018922194
 20
500
 11
-431.7627018922194
 21
500
  0
LINE
  5
127
100
AcDbEntity
  8
Cotas Solidas
  6
ByBlock
 62
    0
370
   -2
100
AcDbLine
 10
-380.4261776651531
 20
530
 11
-379.8011776651531
 21
530
  0
LINE
  5
128
100
AcDbEntity
  8
Cotas Solidas
  6
ByBlock
 62
    0
370
   -2
100
AcDbLine
 10
-433.0127018922194
 20
500
 11
-381.0511776651531
 21
530
  0
MTEXT
  5
129
100
AcDbEntity
  8
Cotas Solidas
  6
CONTINUOUS
 62
    0
370
   -2
100
AcDbMText
 10
-407.9694397786863
 20
516.6237976320958
 30
0
 40
2.5
 41
3.055555555555711
 71
    5
 72
    1
  1
60
  7
standard
210
0
220
0
230
1
 50
29.99999999999999
 73
    2
 44
1
  0
SOLID
  5
12A
100
AcDbEntity
  8
Cotas Solidas
  6
ByBlock
 62
    0
370
   -2
100
AcDbTrace
 10
-433.0127018922194
 20
500
 30
0
 11
-431.4471649477597
 21
501.2884104710696
 31
0
 12
-431.1141372215414
 22
500.7115895289304
 32
0
 13
-431.1141372215414
 23
500.7115895289304
 33
0
  0
SOLID
  5
12B
100
AcDbEntity
  8
Cotas Solidas
  6
ByBlock
 62
    0
370
   -2
100
AcDbTrace
 10
-381.0511776651531
 20
530
 30
0
 11
-382.6167146096128
 21
528.7115895289304
 31
0
 12
-382.9497423358311
 22
529.2884104710696
 32
0
 13
-382.9497423358311
 23
529.2884104710696
 33
0
  0
ENDBLK
  5
96
330
94
100
AcDbEntity
  8
0
100
AcDbBlockEnd
  0
BLOCK
  5
98
330
97
100
AcDbEntity
  8
0
100
AcDbBlockBegin
  2
*D8
 70
    1
 10
0
 20
0
  3
*D8
  1

  0
LINE
  5
12C
100
AcDbEntity
  8
Cotas Solidas
  6
ByBlock
 62
    0
370
   -2
100
AcDbLine
 10
-451.5104022821157
 20
353.9595037822609
 11
-440.4229559300638
 21
353.9595037822609
  0
LINE
  5
12D
100
AcDbEntity
  8
Cotas Solidas
  6
ByBlock
 62
    0
370
   -2
100
AcDbLine
 10
-451.5104022821157
 20
373.9595037822608
 11
-440.4229559300638
 21
373.9595037822608
  0
LINE
  5
12E
100
AcDbEntity
  8
Cotas Solidas
  6
ByBlock
 62
    0
370
   -2
100
AcDbLine
 10
-441.6729559300638
 20
353.9595037822609
 11
-441.6729559300638
 21
373.9595037822608
  0
MTEXT
  5
12F
100
AcDbEntity
  8
Cotas Solidas
  6
CONTINUOUS
 62
    0
370
   -2
100
AcDbMText
 10
-443.5479559300638
 20
363.9595037822608
 30
0
 40
2.5
 41
3.055555555555556
 71
    5
 72
    1
  1
20
  7
standard
210
0
220
0
230
1
 50
90
 73
    2
 44
1
  0
SOLID
  5
130
100
AcDbEntity
  8
Cotas Solidas
  6
ByBlock
 62
    0
370
   -2
100
AcDbTrace
 10
-441.6729559300638
 20
353.9595037822609
 30
0
 11
-442.0059836562821
 21
355.9595037822609
 31
0
 12
-441.3399282038455
 22
355.9595037822609
 32
0
 13
-441.3399282038455
 23
355.9595037822609
 33
0
  0
SOLID
  5
131
100
AcDbEntity
  8
Cotas Solidas
  6
ByBlock
 62
    0
370
   -2
100
AcDbTrace
 10
-441.6729559300638
 20
373.9595037822608
 30
0
 11
-441.3399282038455
 21
371.9595037822608
 31
0
 12
-442.0059836562821
 22
371.9595037822608
 32
0
 13
-442.0059836562821
 23
371.9595037822608
 33
0
  0
ENDBLK
  5
99
330
97
100
AcDbEntity
  8
0
100
AcDbBlockEnd
  0
BLOCK
  5
9B
330
9A
100
AcDbEntity
  8
0
100
AcDbBlockBegin
  2
*D9
 70
    1
 10
0
 20
0
  3
*D9
  1

  0
LINE
  5
132
100
AcDbEntity
  8
Cotas Solidas
  6
ByBlock
 62
    0
370
   -2
100
AcDbLine
 10
-397.7466865231945
 20
399.9999995483086
 11
-397.1216865231945
 21
399.9999995483086
  0
LINE
  5
133
100
AcDbEntity
  8
Cotas Solidas
  6
ByBlock
 62
    0
370
   -2
100
AcDbLine
 10
-397.7466857408419
 20
360
 11
-397.1216857408419
 21
360
  0
LINE
  5
134
100
AcDbEntity
  8
Cotas Solidas
  6
ByBlock
 62
    0
370
   -2
100
AcDbLine
 10
-398.3716865231945
 20
399.9999995483086
 11
-398.3716857408419
 21
360
  0
MTEXT
  5
135
100
AcDbEntity
  8
Cotas Solidas
  6
CONTINUOUS
 62
    0
370
   -2
100
AcDbMText
 10
-400.2466861320182
 20
379.9999997374815
 30
0
 40
2.5
 41
3.333333333333333
 71
    5
 72
    1
  1
40
  7
standard
210
0
220
0
230
1
 50
90.00000112063761
 73
    2
 44
1
  0
SOLID
  5
136
100
AcDbEntity
  8
Cotas Solidas
  6
ByBlock
 62
    0
370
   -2
100
AcDbTrace
 10
-398.3716865231945
 20
399.9999995483086
 30
0
 11
-398.0386587578586
 21
397.9999995548222
 31
0
 12
-398.7047142102952
 22
397.999999541795
 32
0
 13
-398.7047142102952
 23
397.999999541795
 33
0
  0
SOLID
  5
137
100
AcDbEntity
  8
Cotas Solidas
  6
ByBlock
 62
    0
370
   -2
100
AcDbTrace
 10
-398.3716857408419
 20
360
 30
0
 11
-398.7047135061778
 21
361.9999999934864
 31
0
 12
-398.0386580537412
 22
362.0000000065136
 32
0
 13
-398.0386580537412
 23
362.0000000065136
 33
0
  0
ENDBLK
  5
9C
330
9A
100
AcDbEntity
  8
0
100
AcDbBlockEnd
  0
BLOCK
  5
9E
330
9D
100
AcDbEntity
  8
0
100
AcDbBlockBegin
  2
*D28
 70
    1
 10
0
 20
0
  3
*D28
  1

  0
LINE
  5
138
100
AcDbEntity
  8
Cotas Solidas
  6
ByBlock
 62
    0
370
   -2
100
AcDbLine
 10
-163.9198267190434
 20
512.5
 11
-163.2948267190434
 21
512.5
  0
LINE
  5
139
100
AcDbEntity
  8
Cotas Solidas
  6
ByBlock
 62
    0
370
   -2
100
AcDbLine
 10
-183.4053983041932
 20
523.75
 11
-182.7803983041932
 21
523.75
  0
LINE
  5
13A
100
AcDbEntity
  8
Cotas Solidas
  6
ByBlock
 62
    0
370
   -2
100
AcDbLine
 10
-164.5448267190434
 20
512.5
 11
-184.0303983041932
 21
523.75
  0
MTEXT
  5
13B
100
AcDbEntity
  8
Cotas Solidas
  6
CONTINUOUS
 62
    0
370
   -2
100
AcDbMText
 10
-173.3501125116183
 20
519.7487976320958
 30
0
 40
2.5
 41
5.833333333333488
 71
    5
 72
    1
  1
22.5
  7
standard
210
0
220
0
230
1
 50
329.9999999999999
 73
    2
 44
1
  0
SOLID
  5
13C
100
AcDbEntity
  8
Cotas Solidas
  6
ByBlock
 62
    0
370
   -2
100
AcDbTrace
 10
-164.5448267190434
 20
512.5
 30
0
 11
-166.4433913897214
 21
513.2115895289304
 31
0
 12
-166.1103636635032
 22
513.7884104710696
 32
0
 13
-166.1103636635032
 23
513.7884104710696
 33
0
  0
SOLID
  5
13D
100
AcDbEntity
  8
Cotas Solidas
  6
ByBlock
 62
    0
370
   -2
100
AcDbTrace
 10
-184.0303983041932
 20
523.75
 30
0
 11
-182.1318336335152
 21
523.0384104710696
 31
0
 12
-182.4648613597334
 22
522.4615895289304
 32
0
 13
-182.4648613597334
 23
522.4615895289304
 33
0
  0
ENDBLK
  5
9F
330
9D
100
AcDbEntity
  8
0
100
AcDbBlockEnd
  0
BLOCK
  5
A1
330
A0
100
AcDbEntity
  8
0
100
AcDbBlockBegin
  2
*D29
 70
    1
 10
0
 20
0
  3
*D29
  1

  0
LINE
  5
13E
100
AcDbEntity
  8
Cotas Solidas
  6
ByBlock
 62
    0
370
   -2
100
AcDbLine
 10
-98.96792143521049
 20
362.4999999999999
 11
-97.0438833295338
 21
362.4999999999999
  0
LINE
  5
13F
100
AcDbEntity
  8
Cotas Solidas
  6
ByBlock
 62
    0
370
   -2
100
AcDbLine
 10
-98.96792143521049
 20
399.9999999999999
 11
-97.0438833295338
 21
399.9999999999999
  0
LINE
  5
140
100
AcDbEntity
  8
Cotas Solidas
  6
ByBlock
 62
    0
370
   -2
100
AcDbLine
 10
-98.2938833295338
 20
362.4999999999999
 11
-98.2938833295338
 21
399.9999999999999
  0
MTEXT
  5
141
100
AcDbEntity
  8
Cotas Solidas
  6
CONTINUOUS
 62
    0
370
   -2
100
AcDbMText
 10
-100.1688833295338
 20
381.2499999999999
 30
0
 40
2.5
 41
5.833333333333643
 71
    5
 72
    1
  1
37.5
  7
standard
210
0
220
0
230
1
 50
90
 73
    2
 44
1
  0
SOLID
  5
142
100
AcDbEntity
  8
Cotas Solidas
  6
ByBlock
 62
    0
370
   -2
100
AcDbTrace
 10
-98.2938833295338
 20
362.4999999999999
 30
0
 11
-98.62691105575207
 21
364.4999999999999
 31
0
 12
-97.96085560331552
 22
364.4999999999999
 32
0
 13
-97.96085560331552
 23
364.4999999999999
 33
0
  0
SOLID
  5
143
100
AcDbEntity
  8
Cotas Solidas
  6
ByBlock
 62
    0
370
   -2
100
AcDbTrace
 10
-98.2938833295338
 20
399.9999999999999
 30
0
 11
-97.96085560331552
 21
397.9999999999999
 31
0
 12
-98.62691105575207
 22
397.9999999999999
 32
0
 13
-98.62691105575207
 23
397.9999999999999
 33
0
  0
ENDBLK
  5
A2
330
A0
100
AcDbEntity
  8
0
100
AcDbBlockEnd
  0
BLOCK
  5
A4
330
A3
100
AcDbEntity
  8
0
100
AcDbBlockBegin
  2
*D12
 70
    1
 10
0
 20
0
  3
*D12
  1

  0
LINE
  5
144
100
AcDbEntity
  8
Cotas Solidas
  6
ByBlock
 62
    0
370
   -2
100
AcDbLine
 10
-380.4261776651531
 20
440
 11
-379.8011776651531
 21
440
  0
LINE
  5
145
100
AcDbEntity
  8
Cotas Solidas
  6
ByBlock
 62
    0
370
   -2
100
AcDbLine
 10
-380.4261776651531
 20
410
 11
-379.8011776651531
 21
410
  0
LINE
  5
146
100
AcDbEntity
  8
Cotas Solidas
  6
ByBlock
 62
    0
370
   -2
100
AcDbLine
 10
-381.0511776651531
 20
440
 11
-381.0511776651531
 21
410
  0
MTEXT
  5
147
100
AcDbEntity
  8
Cotas Solidas
  6
CONTINUOUS
 62
    0
370
   -2
100
AcDbMText
 10
-382.9261776651531
 20
425
 30
0
 40
2.5
 41
3.055555555555711
 71
    5
 72
    1
  1
30
  7
standard
210
0
220
0
230
1
 50
90
 73
    2
 44
1
  0
SOLID
  5
148
100
AcDbEntity
  8
Cotas Solidas
  6
ByBlock
 62
    0
370
   -2
100
AcDbTrace
 10
-381.0511776651531
 20
440
 30
0
 11
-380.7181499389348
 21
438
 31
0
 12
-381.3842053913714
 22
438
 32
0
 13
-381.3842053913714
 23
438
 33
0
  0
SOLID
  5
149
100
AcDbEntity
  8
Cotas Solidas
  6
ByBlock
 62
    0
370
   -2
100
AcDbTrace
 10
-381.0511776651531
 20
410
 30
0
 11
-381.3842053913714
 21
412
 31
0
 12
-380.7181499389348
 22
412
 32
0
 13
-380.7181499389348
 23
412
 33
0
  0
ENDBLK
  5
A5
330
A3
100
AcDbEntity
  8
0
100
AcDbBlockEnd
  0
BLOCK
  5
A7
330
A6
100
AcDbEntity
  8
0
100
AcDbBlockBegin
  2
*D20
 70
    1
 10
0
 20
0
  3
*D20
  1

  0
LINE
  5
14A
100
AcDbEntity
  8
Cotas Solidas
  6
CONTINUOUS
 62
    7
370
    0
100
AcDbLine
 10
-346.4101615137756
 20
500
 11
-337.7499074759312
 21
505
  0
SOLID
  5
14B
100
AcDbEntity
  8
Cotas Solidas
  6
CONTINUOUS
 62
    7
370
    0
100
AcDbTrace
 10
-346.4101615137756
 20
500
 30
0
 11
-344.8446245693159
 21
501.2884104710696
 31
0
 12
-344.5115968430976
 22
500.7115895289304
 32
0
 13
-344.5115968430976
 23
500.7115895289304
 33
0
  0
ENDBLK
  5
A8
330
A6
100
AcDbEntity
  8
0
100
AcDbBlockEnd
  0
BLOCK
  5
AA
330
A9
100
AcDbEntity
  8
0
100
AcDbBlockBegin
  2
*D18
 70
    1
 10
0
 20
0
  3
*D18
  1

  0
LINE
  5
14C
100
AcDbEntity
  8
Cotas Solidas
  6
CONTINUOUS
 62
    7
370
    0
100
AcDbLine
 10
-479.2609712397708
 20
429.3291225445973
 11
-491.0364039457768
 21
432.5
  0
SOLID
  5
14D
100
AcDbEntity
  8
Cotas Solidas
  6
CONTINUOUS
 62
    7
370
    0
100
AcDbTrace
 10
-479.2609712397708
 20
429.3291225445973
 30
0
 11
-481.2787721975246
 21
429.5275835264506
 31
0
 12
-481.10558648904
 22
430.1707293700173
 32
0
 13
-481.10558648904
 23
430.1707293700173
 33
0
  0
ENDBLK
  5
AB
330
A9
100
AcDbEntity
  8
0
100
AcDbBlockEnd
  0
BLOCK
  5
AD
330
AC
100
AcDbEntity
  8
0
100
AcDbBlockBegin
  2
*D27
 70
    1
 10
0
 20
0
  3
*D27
  1

  0
LINE
  5
14E
100
AcDbEntity
  8
Cotas Solidas
  6
ByBlock
 62
    0
370
   -2
100
AcDbLine
 10
-151.2419456622768
 20
460.5412658773653
 11
-150.7129393113307
 21
461.4575317547306
  0
LINE
  5
14F
100
AcDbEntity
  8
Cotas Solidas
  6
ByBlock
 62
    0
370
   -2
100
AcDbLine
 10
-164.2323267190433
 20
468.0412658773653
 11
-163.7033203680972
 21
468.9575317547306
  0
LINE
  5
150
100
AcDbEntity
  8
Cotas Solidas
  6
ByBlock
 62
    0
370
   -2
100
AcDbLine
 10
-151.3379393113307
 20
460.375
 11
-164.3283203680972
 21
467.875
  0
MTEXT
  5
151
100
AcDbEntity
  8
Cotas Solidas
  6
CONTINUOUS
 62
    0
370
   -2
100
AcDbMText
 10
-156.8956298397139
 20
465.7487976320958
 30
0
 40
2.5
 41
2.500000000000155
 71
    5
 72
    1
  1
15
  7
standard
210
0
220
0
230
1
 50
329.9999999999998
 73
    2
 44
1
  0
SOLID
  5
152
100
AcDbEntity
  8
Cotas Solidas
  6
ByBlock
 62
    0
370
   -2
100
AcDbTrace
 10
-151.3379393113307
 20
460.375
 30
0
 11
-153.2365039820087
 21
461.0865895289304
 31
0
 12
-152.9034762557905
 22
461.6634104710696
 32
0
 13
-152.9034762557905
 23
461.6634104710696
 33
0
  0
SOLID
  5
153
100
AcDbEntity
  8
Cotas Solidas
  6
ByBlock
 62
    0
370
   -2
100
AcDbTrace
 10
-164.3283203680972
 20
467.875
 30
0
 11
-162.4297556974192
 21
467.1634104710696
 31
0
 12
-162.7627834236374
 22
466.5865895289304
 32
0
 13
-162.7627834236374
 23
466.5865895289304
 33
0
  0
ENDBLK
  5
AE
330
AC
100
AcDbEntity
  8
0
100
AcDbBlockEnd
  0
BLOCK
  5
B0
330
AF
100
AcDbEntity
  8
0
100
AcDbBlockBegin
  2
*D21
 70
    1
 10
0
 20
0
  3
*D21
  1

  0
LINE
  5
154
100
AcDbEntity
  8
Cotas Solidas
  6
ByBlock
 62
    0
370
   -2
100
AcDbLine
 10
-163.9198267190434
 20
309.75
 11
-163.2948267190434
 21
309.75
  0
LINE
  5
155
100
AcDbEntity
  8
Cotas Solidas
  6
ByBlock
 62
    0
370
   -2
100
AcDbLine
 10
-98.96792143521049
 20
347.25
 11
-98.34292143521049
 21
347.25
  0
LINE
  5
156
100
AcDbEntity
  8
Cotas Solidas
  6
ByBlock
 62
    0
370
   -2
100
AcDbLine
 10
-164.5448267190434
 20
309.75
 11
-99.59292143521049
 21
347.25
  0
MTEXT
  5
157
100
AcDbEntity
  8
Cotas Solidas
  6
CONTINUOUS
 62
    0
370
   -2
100
AcDbMText
 10
-133.0063740771269
 20
330.1237976320958
 30
0
 40
2.5
 41
3.055555555555711
 71
    5
 72
    1
  1
75
  7
standard
210
0
220
0
230
1
 50
29.99999999999999
 73
    2
 44
1
  0
SOLID
  5
158
100
AcDbEntity
  8
Cotas Solidas
  6
ByBlock
 62
    0
370
   -2
100
AcDbTrace
 10
-164.5448267190434
 20
309.75
 30
0
 11
-162.9792897745837
 21
311.0384104710696
 31
0
 12
-162.6462620483654
 22
310.4615895289304
 32
0
 13
-162.6462620483654
 23
310.4615895289304
 33
0
  0
SOLID
  5
159
100
AcDbEntity
  8
Cotas Solidas
  6
ByBlock
 62
    0
370
   -2
100
AcDbTrace
 10
-99.59292143521049
 20
347.25
 30
0
 11
-101.1584583796702
 21
345.9615895289304
 31
0
 12
-101.4914861058885
 22
346.5384104710696
 32
0
 13
-101.4914861058885
 23
346.5384104710696
 33
0
  0
ENDBLK
  5
B1
330
AF
100
AcDbEntity
  8
0
100
AcDbBlockEnd
  0
BLOCK
  5
B3
330
B2
100
AcDbEntity
  8
0
100
AcDbBlockBegin
  2
*D1
 70
    1
 10
0
 20
0
  3
*D1
  1

  0
LINE
  5
15A
100
AcDbEntity
  8
Aux
  6
ByBlock
 62
    0
370
   -2
100
AcDbLine
 10
-397.7466857408419
 20
490
 11
-397.1216857408419
 21
490
  0
LINE
  5
15B
100
AcDbEntity
  8
Aux
  6
ByBlock
 62
    0
370
   -2
100
AcDbLine
 10
-363.1056695894643
 20
470
 11
-362.4806695894643
 21
470
  0
LINE
  5
15C
100
AcDbEntity
  8
Aux
  6
ByBlock
 62
    0
370
   -2
100
AcDbLine
 10
-398.3716857408419
 20
490
 11
-363.7306695894643
 21
470
  0
MTEXT
  5
15D
100
AcDbEntity
  8
Aux
  6
CONTINUOUS
 62
    0
370
   -2
100
AcDbMText
 10
-380.1136776651531
 20
481.6237976320958
 30
0
 40
2.5
 41
3.333333333333333
 71
    5
 72
    1
  1
40
  7
standard
210
0
220
0
230
1
 50
330.0000000000001
 73
    2
 44
1
  0
SOLID
  5
15E
100
AcDbEntity
  8
Aux
  6
ByBlock
 62
    0
370
   -2
100
AcDbTrace
 10
-398.3716857408419
 20
490
 30
0
 11
-396.4731210701639
 21
489.2884104710696
 31
0
 12
-396.8061487963822
 22
488.7115895289304
 32
0
 13
-396.8061487963822
 23
488.7115895289304
 33
0
  0
SOLID
  5
15F
100
AcDbEntity
  8
Aux
  6
ByBlock
 62
    0
370
   -2
100
AcDbTrace
 10
-363.7306695894643
 20
470
 30
0
 11
-365.6292342601423
 21
470.7115895289304
 31
0
 12
-365.296206533924
 22
471.2884104710696
 32
0
 13
-365.296206533924
 23
471.2884104710696
 33
0
  0
ENDBLK
  5
B4
330
B2
100
AcDbEntity
  8
0
100
AcDbBlockEnd
  0
BLOCK
  5
B6
330
B5
100
AcDbEntity
  8
0
100
AcDbBlockBegin
  2
*D31
 70
    1
 10
0
 20
0
  3
*D31
  1

  0
LINE
  5
160
100
AcDbEntity
  8
Cotas Solidas
  6
CONTINUOUS
 62
    7
370
    0
100
AcDbLine
 10
-208.2791096101575
 20
468.25
 11
-222.1355160707085
 21
477.25
  0
LINE
  5
161
100
AcDbEntity
  8
Cotas Solidas
  6
CONTINUOUS
 62
    7
370
    0
100
AcDbLine
 10
-222.1355160707085
 20
477.25
 11
-214.3412874366486
 21
481.75
  0
SOLID
  5
162
100
AcDbEntity
  8
Cotas Solidas
  6
CONTINUOUS
 62
    7
370
    0
100
AcDbTrace
 10
-208.2791096101575
 20
468.25
 30
0
 11
-210.137767143057
 21
469.0601232263218
 31
0
 12
-209.7749635547681
 22
469.6186958912859
 32
0
 13
-209.7749635547681
 23
469.6186958912859
 33
0
  0
ENDBLK
  5
B7
330
B5
100
AcDbEntity
  8
0
100
AcDbBlockEnd
  0
ENDSEC
  0
SECTION
  2
ENTITIES
  0
LINE
  5
163
100
AcDbEntity
  8
Dibujo
  6
ByLayer
 62
  256
370
   -1
100
AcDbLine
 10
-433.0127018922194
 20
450
 11
-407.0319397786863
 21
465
  0
LINE
  5
164
100
AcDbEntity
  8
Dibujo
  6
ByLayer
 62
  256
370
   -1
100
AcDbLine
 10
-407.0319397786863
 20
465
 11
-407.0319397786863
 21
495
  0
LINE
  5
165
100
AcDbEntity
  8
Dibujo
  6
ByLayer
 62
  256
370
   -1
100
AcDbLine
 10
-407.0319397786863
 20
495
 11
-433.0127018922194
 21
450
  0
LINE
  5
166
100
AcDbEntity
  8
Dibujo
  6
ByLayer
 62
  256
370
   -1
100
AcDbLine
 10
-433.0127018922194
 20
450
 11
-441.6729559300638
 21
455
  0
LINE
  5
167
100
AcDbEntity
  8
Dibujo
  6
ByLayer
 62
  256
370
   -1
100
AcDbLine
 10
-441.6729559300638
 20
455
 11
-415.6921938165306
 21
500
  0
LINE
  5
168
100
AcDbEntity
  8
Dibujo
  6
ByLayer
 62
  256
370
   -1
100
AcDbLine
 10
-415.6921938165306
 20
500
 11
-407.0319397786863
 21
495
  0
LINE
  5
169
100
AcDbEntity
  8
Dibujo
  6
ByLayer
 62
  256
370
   -1
100
AcDbLine
 10
-407.0319397786863
 20
495
 11
-398.3716857408419
 21
490
  0
LINE
  5
16A
100
AcDbEntity
  8
Dibujo
  6
ByLayer
 62
  256
370
   -1
100
AcDbLine
 10
-398.3716857408419
 20
490
 11
-398.3716857408419
 21
460
  0
LINE
  5
16B
100
AcDbEntity
  8
Dibujo
  6
ByLayer
 62
  256
370
   -1
100
AcDbLine
 10
-398.3716857408419
 20
460
 11
-407.0319397786863
 21
465
  0
ELLIPSE
  5
16C
100
AcDbEntity
  8
Dibujo
  6
ByLayer
 62
  256
370
   -1
100
AcDbEllipse
 10
-381.0511776651531
 20
480
 30
0
 11
-48.98979485566356
 21
1.77635683940025e-14
 31
0
 40
0.5773502691896258
 41
2.356194490192345
 42
5.497787143782139
  0
LINE
  5
16D
100
AcDbEntity
  8
Dibujo
  6
ByLayer
 62
  256
370
   -1
100
AcDbLine
 10
-363.7306695894644
 20
470
 11
-346.4101615137755
 21
460
  0
LINE
  5
16E
100
AcDbEntity
  8
Dibujo
  6
ByLayer
 62
  256
370
   -1
100
AcDbLine
 10
-346.4101615137755
 20
460
 11
-372.3909236273087
 21
415
  0
LINE
  5
16F
100
AcDbEntity
  8
Dibujo
  6
ByLayer
 62
  256
370
   -1
100
AcDbLine
 10
-372.3909236273087
 20
415
 11
-381.0511776651531
 21
420
  0
LINE
  5
170
100
AcDbEntity
  8
Dibujo
  6
ByLayer
 62
  256
370
   -1
100
AcDbLine
 10
-381.0511776651531
 20
420
 11
-355.0704155516199
 21
465
  0
ELLIPSE
  5
171
100
AcDbEntity
  8
Aux
  6
ByLayer
 62
  256
370
   -1
100
AcDbEllipse
 10
-381.0511776651531
 20
450
 30
0
 11
-48.98979485566356
 21
1.77635683940025e-14
 31
0
 40
0.5773502691896258
 41
2.356194490192345
 42
5.497787143782139
  0
LINE
  5
172
100
AcDbEntity
  8
Dibujo
  6
ByLayer
 62
  256
370
   -1
100
AcDbLine
 10
-363.7306695894643
 20
470
 11
-363.7306695894643
 21
450
  0
LINE
  5
173
100
AcDbEntity
  8
Aux
  6
ByLayer
 62
  256
370
   -1
100
AcDbLine
 10
-363.7306695894644
 20
450
 11
-363.7306695894643
 21
430
  0
LINE
  5
174
100
AcDbEntity
  8
Aux
  6
ByLayer
 62
  256
370
   -1
100
AcDbLine
 10
-398.3716857408419
 20
460
 11
-398.3716857408419
 21
450
  0
ELLIPSE
  5
175
100
AcDbEntity
  8
Dibujo
  6
ByLayer
 62
  256
370
   -1
100
AcDbEllipse
 10
-381.0511776651531
 20
480
 30
0
 11
-24.49489742783177
 21
1.243449787580175e-14
 31
0
 40
0.577350269189626
 41
2.356194490192342
 42
5.497787143782139
  0
ELLIPSE
  5
176
100
AcDbEntity
  8
Dibujo
  6
ByLayer
 62
  256
370
   -1
100
AcDbEllipse
 10
-381.0511776651531
 20
450
 30
0
 11
-24.49489742783177
 21
1.243449787580175e-14
 31
0
 40
0.577350269189626
 41
5.497787143782139
 42
1.984360225214924
  0
LINE
  5
177
100
AcDbEntity
  8
Aux
  6
ByLayer
 62
  256
370
   -1
100
AcDbLine
 10
-381.0511776651531
 20
460
 11
-346.4101615137755
 21
440
  0
LINE
  5
178
100
AcDbEntity
  8
Aux
  6
ByLayer
 62
  256
370
   -1
100
AcDbLine
 10
-346.4101615137755
 20
440
 11
-381.0511776651531
 21
420
  0
LINE
  5
179
100
AcDbEntity
  8
Aux
  6
ByLayer
 62
  256
370
   -1
100
AcDbLine
 10
-381.0511776651531
 20
420
 11
-415.6921938165306
 21
440
  0
LINE
  5
17A
100
AcDbEntity
  8
Aux
  6
ByLayer
 62
  256
370
   -1
100
AcDbLine
 10
-381.0511776651531
 20
460
 11
-415.6921938165306
 21
440
  0
ELLIPSE
  5
17B
100
AcDbEntity
  8
Dibujo
  6
ByLayer
 62
  256
370
   -1
100
AcDbEllipse
 10
-381.0511776651531
 20
440
 30
0
 11
-24.49489742783178
 21
3.552713678800501e-15
 31
0
 40
0.5773502691896255
 41
3.926990816987241
 42
5.92181818327288
  0
LINE
  5
17C
100
AcDbEntity
  8
Aux
  6
ByLayer
 62
  256
370
   -1
100
AcDbLine
 10
-398.3716857408419
 20
440
 11
-381.0511776651531
 21
450
  0
LINE
  5
17D
100
AcDbEntity
  8
Aux
  6
ByLayer
 62
  256
370
   -1
100
AcDbLine
 10
-363.7306695894644
 20
440
 11
-381.0511776651531
 21
430
  0
LINE
  5
17E
100
AcDbEntity
  8
Aux
  6
ByLayer
 62
  256
370
   -1
100
AcDbLine
 10
-381.0511776651531
 20
430
 11
-398.3716857408419
 21
440
  0
LINE
  5
17F
100
AcDbEntity
  8
Aux
  6
ByLayer
 62
  256
370
   -1
100
AcDbLine
 10
-381.0511776651531
 20
450
 11
-363.7306695894644
 21
440
  0
ELLIPSE
  5
180
100
AcDbEntity
  8
Dibujo
  6
ByLayer
 62
  256
370
   -1
100
AcDbEllipse
 10
-381.0511776651531
 20
440
 30
0
 11
-12.24744871391591
 21
-1.77635683940025e-15
 31
0
 40
0.5773502691896251
 41
3.283489708193958
 42
0.3671738338182196
  0
LINE
  5
181
100
AcDbEntity
  8
Cotas Dashed
  6
ByLayer
 62
  256
370
   -1
100
AcDbLine
 10
-363.7306695894644
 20
470
 11
-398.3716857408419
 21
490
  0
LINE
  5
182
100
AcDbEntity
  8
Cotas Dashed
  6
ByLayer
 62
  256
370
   -1
100
AcDbLine
 10
-363.7306695894644
 20
490
 11
-398.3716857408419
 21
470
  0
LINE
  5
183
100
AcDbEntity
  8
Aux
  6
ByLayer
 62
  256
370
   -1
100
AcDbLine
 10
-381.0511776651531
 20
480
 11
-381.0511776651531
 21
440
  0
LINE
  5
184
100
AcDbEntity
  8
Cotas Solidas
  6
ByLayer
 62
  256
370
   -1
100
AcDbLine
 10
-381.0511776651531
 20
480
 11
-381.0511776651531
 21
530
  0
LINE
  5
185
100
AcDbEntity
  8
Aux
  6
ByLayer
 62
  256
370
   -1
100
AcDbLine
 10
-381.0511776651531
 20
440
 11
-433.0127018922194
 21
410
  0
LINE
  5
186
100
AcDbEntity
  8
Aux
  6
ByLayer
 62
  256
370
   -1
100
AcDbLine
 10
-433.0127018922194
 20
440
 11
-398.3716857408418
 21
420
  0
LINE
  5
187
100
AcDbEntity
  8
Aux
  6
ByLayer
 62
  256
370
   -1
100
AcDbLine
 10
-398.3716857408418
 20
420
 11
-433.0127018922194
 21
400
  0
LINE
  5
188
100
AcDbEntity
  8
Aux
  6
ByLayer
 62
  256
370
   -1
100
AcDbLine
 10
-433.0127018922194
 20
400
 11
-467.6537180435969
 21
420
  0
LINE
  5
189
100
AcDbEntity
  8
Aux
  6
ByLayer
 62
  256
370
   -1
100
AcDbLine
 10
-433.0127018922194
 20
440
 11
-467.6537180435969
 21
420
  0
ELLIPSE
  5
18A
100
AcDbEntity
  8
Dibujo
  6
ByLayer
 62
  256
370
   -1
100
AcDbEllipse
 10
-433.0127018922194
 20
420
 30
0
 11
-24.49489742783179
 21
1.77635683940025e-15
 31
0
 40
0.5773502691896255
 41
0
 42
6.283185307179586
  0
LINE
  5
18B
100
AcDbEntity
  8
Aux
  6
ByLayer
 62
  256
370
   -1
100
AcDbLine
 10
-450.3332099679082
 20
410
 11
-433.0127018922194
 21
420
  0
LINE
  5
18C
100
AcDbEntity
  8
Aux
  6
ByLayer
 62
  256
370
   -1
100
AcDbLine
 10
-415.6921938165307
 20
410
 11
-433.0127018922194
 21
400
  0
LINE
  5
18D
100
AcDbEntity
  8
Aux
  6
ByLayer
 62
  256
370
   -1
100
AcDbLine
 10
-433.0127018922194
 20
400
 11
-450.3332099679082
 21
410
  0
LINE
  5
18E
100
AcDbEntity
  8
Aux
  6
ByLayer
 62
  256
370
   -1
100
AcDbLine
 10
-433.0127018922194
 20
420
 11
-415.6921938165307
 21
410
  0
LINE
  5
18F
100
AcDbEntity
  8
Cotas Dashed
  6
ByLayer
 62
  256
370
   -1
100
AcDbLine
 10
-415.6921938165306
 20
410
 11
-450.3332099679082
 21
430
  0
LINE
  5
190
100
AcDbEntity
  8
Aux
  6
ByLayer
 62
  256
370
   -1
100
AcDbLine
 10
-433.0127018922194
 20
430
 11
-398.3716857408418
 21
410
  0
LINE
  5
191
100
AcDbEntity
  8
Aux
  6
ByLayer
 62
  256
370
   -1
100
AcDbLine
 10
-398.3716857408418
 20
410
 11
-433.0127018922194
 21
390
  0
LINE
  5
192
100
AcDbEntity
  8
Aux
  6
ByLayer
 62
  256
370
   -1
100
AcDbLine
 10
-433.0127018922194
 20
390
 11
-467.6537180435969
 21
410
  0
LINE
  5
193
100
AcDbEntity
  8
Aux
  6
ByLayer
 62
  256
370
   -1
100
AcDbLine
 10
-433.0127018922194
 20
430
 11
-467.6537180435969
 21
410
  0
ELLIPSE
  5
194
100
AcDbEntity
  8
Dibujo
  6
ByLayer
 62
  256
370
   -1
100
AcDbEllipse
 10
-433.0127018922194
 20
410
 30
0
 11
-24.49489742783178
 21
-1.77635683940025e-15
 31
0
 40
0.5773502691896258
 41
3.502959777496503
 42
5.921818183272876
  0
LINE
  5
195
100
AcDbEntity
  8
Cotas Dashed
  6
ByLayer
 62
  256
370
   -1
100
AcDbLine
 10
-415.6921938165306
 20
430
 11
-450.3332099679081
 21
410
  0
ELLIPSE
  5
196
100
AcDbEntity
  8
Dibujo
  6
ByLayer
 62
  256
370
   -1
100
AcDbEllipse
 10
-433.0127018922194
 20
410
 30
0
 11
-12.24744871391589
 21
1.77635683940025e-15
 31
0
 40
0.5773502691896257
 41
2.780225529683087
 42
0.3613671239067062
  0
DIMENSION
  5
197
100
AcDbEntity
  8
Aux
  6
ByLayer
 62
  256
370
   -1
100
AcDbDimension
  2
*D1
 10
-363.7306695894643
 20
470
 30
0
 11
-380.1136776651531
 21
481.6237976320958
 31
0
 70
   33
 71
    5
 72
    0
  3
Standard
 53
0
210
0
220
0
230
1
100
AcDbAlignedDimension
 13
-398.3716857408419
 23
490
 33
0
 14
-363.7306695894643
 24
470
 34
0
  0
DIMENSION
  5
198
100
AcDbEntity
  8
Aux
  6
ByLayer
 62
  256
370
   -1
100
AcDbDimension
  2
*D2
 10
-372.3909236273087
 20
435
 30
0
 11
-380.1136776651531
 21
441.6237976320958
 31
0
 70
   33
 71
    5
 72
    0
  3
Standard
 53
0
210
0
220
0
230
1
100
AcDbAlignedDimension
 13
-389.7114317029975
 23
445
 33
0
 14
-372.3909236273087
 24
435
 34
0
  0
DIMENSION
  5
199
100
AcDbEntity
  8
Aux
  6
ByLayer
 62
  256
370
   -1
100
AcDbDimension
  2
*D3
 10
-342.0800344948534
 20
467.5
 30
0
 11
-375.7835506462309
 21
489.1237976320958
 31
0
 70
   33
 71
    5
 72
    0
  3
Standard
 53
0
210
0
220
0
230
1
100
AcDbAlignedDimension
 13
-415.6921938165307
 23
500
 33
0
 14
-346.4101615137756
 24
460
 34
0
  0
DIMENSION
  5
19A
100
AcDbEntity
  8
Aux
  6
ByLayer
 62
  256
370
   -1
100
AcDbDimension
  2
*D4
 10
-433.0127018922194
 20
410
 30
0
 11
-407.9694397786863
 21
426.6237976320958
 31
0
 70
   33
 71
    5
 72
    0
  3
Standard
 53
0
210
0
220
0
230
1
100
AcDbAlignedDimension
 13
-381.0511776651531
 23
440
 33
0
 14
-433.0127018922194
 24
410
 34
0
  0
DIMENSION
  5
19B
100
AcDbEntity
  8
Aux
  6
ByLayer
 62
  256
370
   -1
100
AcDbDimension
  2
*D5
 10
-420.0223208354528
 20
472.5
 30
0
 11
-423.414947854375
 21
476.6237976320958
 31
0
 70
   33
 71
    5
 72
    0
  3
Standard
 53
0
210
0
220
0
230
1
100
AcDbAlignedDimension
 13
-428.6825748732972
 23
477.5
 33
0
 14
-420.0223208354528
 24
472.5
 34
0
  0
LINE
  5
19C
100
AcDbEntity
  8
Aux
  6
ByLayer
 62
  256
370
   -1
100
AcDbLine
 10
-433.0127018922194
 20
420
 11
-467.6537180435969
 21
440
  0
LINE
  5
19D
100
AcDbEntity
  8
Aux
  6
ByLayer
 62
  256
370
   -1
100
AcDbLine
 10
-467.6537180435969
 20
440
 11
-484.9742261192857
 21
430
  0
ELLIPSE
  5
19E
100
AcDbEntity
  8
Dibujo
  6
ByLayer
 62
  256
370
   -1
100
AcDbEllipse
 10
-433.0127018922194
 20
420
 30
0
 11
-48.9897948556635
 21
-1.4210854715202e-14
 31
0
 40
0.577350269189627
 41
5.49778714621296
 42
2.356194481911294
  0
LINE
  5
19F
100
AcDbEntity
  8
Dibujo
  6
ByLayer
 62
  256
370
   -1
100
AcDbLine
 10
-398.3716860277059
 20
399.999999834379
 11
-372.3909236273087
 21
415
  0
LINE
  5
1A0
100
AcDbEntity
  8
Dibujo
  6
ByLayer
 62
  256
370
   -1
100
AcDbLine
 10
-467.6537180435969
 20
440
 11
-441.6729559300638
 21
455
  0
LINE
  5
1A1
100
AcDbEntity
  8
Aux
  6
ByLayer
 62
  256
370
   -1
100
AcDbLine
 10
-372.3909236273087
 20
415
 11
-433.0127018922194
 21
380
  0
LINE
  5
1A2
100
AcDbEntity
  8
Aux
  6
ByLayer
 62
  256
370
   -1
100
AcDbLine
 10
-441.6729559300638
 20
455
 11
-502.2947341949745
 21
420
  0
LINE
  5
1A3
100
AcDbEntity
  8
Aux
  6
ByLayer
 62
  256
370
   -1
100
AcDbLine
 10
-372.3909236273087
 20
415
 11
-372.3909236273087
 21
375
  0
LINE
  5
1A4
100
AcDbEntity
  8
Dibujo
  6
ByLayer
 62
  256
370
   -1
100
AcDbLine
 10
-332.0613828094895
 20
480
 11
-332.0613828094895
 21
410
  0
LINE
  5
1A5
100
AcDbEntity
  8
Dibujo
  6
ByLayer
 62
  256
370
   -1
100
AcDbLine
 10
-346.4101615137756
 20
390
 11
-398.3716857408419
 21
360
  0
LINE
  5
1A6
100
AcDbEntity
  8
Aux
  6
ByLayer
 62
  256
370
   -1
100
AcDbLine
 10
-450.3332099679082
 20
410
 11
-467.653718043597
 21
400
  0
LINE
  5
1A7
100
AcDbEntity
  8
Aux
  6
ByLayer
 62
  256
370
   -1
100
AcDbLine
 10
-467.653718043597
 20
400
 11
-467.6537180435969
 21
350
  0
LINE
  5
1A8
100
AcDbEntity
  8
Dibujo
  6
ByLayer
 62
  256
370
   -1
100
AcDbLine
 10
-482.0024967478829
 20
420
 11
-482.0024967478829
 21
380
  0
ELLIPSE
  5
1A9
100
AcDbEntity
  8
Dibujo
  6
ByLayer
 62
  256
370
   -1
100
AcDbEllipse
 10
-381.0511776651531
 20
410
 30
0
 11
-48.98979485566356
 21
1.77635683940025e-14
 31
0
 40
0.5773502691896258
 41
2.356194490192345
 42
3.141592653589793
  0
LINE
  5
1AA
100
AcDbEntity
  8
Cotas Solidas
  6
ByLayer
 62
  256
370
   -1
100
AcDbLine
 10
-433.0127018922194
 20
410
 11
-433.0127018922194
 21
500
  0
DIMENSION
  5
1AB
100
AcDbEntity
  8
Cotas Solidas
  6
ByLayer
 62
  256
370
   -1
100
AcDbDimension
  2
*D6
 10
-381.0511776651531
 20
530
 30
0
 11
-407.9694397786863
 21
516.6237976320958
 31
0
 70
   33
 71
    5
 72
    0
  3
Standard
 53
0
210
0
220
0
230
1
100
AcDbAlignedDimension
 13
-433.0127018922194
 23
500
 33
0
 14
-381.0511776651531
 24
530
 34
0
  0
LINE
  5
1AC
100
AcDbEntity
  8
Aux
  6
ByLayer
 62
  256
370
   -1
100
AcDbLine
 10
-467.6537180435969
 20
360
 11
-454.6633369868304
 21
352.5
  0
LINE
  5
1AD
100
AcDbEntity
  8
Aux
  6
ByLayer
 62
  256
370
   -1
100
AcDbLine
 10
-454.6633369868304
 20
352.5
 11
-446.003082948986
 21
357.5
  0
LINE
  5
1AE
100
AcDbEntity
  8
Aux
  6
ByLayer
 62
  256
370
   -1
100
AcDbLine
 10
-467.6537180435969
 20
360
 11
-480.6440991003635
 21
367.5
  0
LINE
  5
1AF
100
AcDbEntity
  8
Aux
  6
ByLayer
 62
  256
370
   -1
100
AcDbLine
 10
-480.6440991003635
 20
367.5
 11
-471.9838450625192
 21
372.5
  0
LINE
  5
1B0
100
AcDbEntity
  8
Dibujo
  6
ByLayer
 62
  256
370
   -1
100
AcDbLine
 10
-452.1354022821157
 20
353.9595037822609
 11
-452.1354022821157
 21
373.9595037822609
  0
LINE
  5
1B1
100
AcDbEntity
  8
Dibujo
  6
ByLayer
 62
  256
370
   -1
100
AcDbLine
 10
-478.1161643956488
 20
368.9595037822609
 11
-478.1161643956488
 21
388.9595037822609
  0
ELLIPSE
  5
1B2
100
AcDbEntity
  8
Dibujo
  6
ByLayer
 62
  256
370
   -1
100
AcDbEllipse
 10
-433.0127018922194
 20
400
 30
0
 11
-48.9897948556635
 21
-1.4210854715202e-14
 31
0
 40
0.577350269189627
 41
0.4010013889018076
 42
1.169794937893085
  0
LINE
  5
1B3
100
AcDbEntity
  8
Aux
  6
ByLayer
 62
  256
370
   -1
100
AcDbLine
 10
-480.6440991003635
 20
367.5
 11
-480.6440991003635
 21
387.5
  0
LINE
  5
1B4
100
AcDbEntity
  8
Aux
  6
ByLayer
 62
  256
370
   -1
100
AcDbLine
 10
-480.6440991003635
 20
387.5
 11
-471.9838450625192
 21
392.5
  0
LINE
  5
1B5
100
AcDbEntity
  8
Aux
  6
ByLayer
 62
  256
370
   -1
100
AcDbLine
 10
-471.9838450625192
 20
392.5
 11
-471.9838450625192
 21
372.5
  0
LINE
  5
1B6
100
AcDbEntity
  8
Aux
  6
ByLayer
 62
  256
370
   -1
100
AcDbLine
 10
-471.9838450625192
 20
372.5
 11
-446.003082948986
 21
357.5
  0
LINE
  5
1B7
100
AcDbEntity
  8
Aux
  6
ByLayer
 62
  256
370
   -1
100
AcDbLine
 10
-446.003082948986
 20
357.5
 11
-446.003082948986
 21
377.5
  0
LINE
  5
1B8
100
AcDbEntity
  8
Aux
  6
ByLayer
 62
  256
370
   -1
100
AcDbLine
 10
-446.003082948986
 20
377.5
 11
-471.9838450625192
 21
392.5
  0
LINE
  5
1B9
100
AcDbEntity
  8
Aux
  6
ByLayer
 62
  256
370
   -1
100
AcDbLine
 10
-446.003082948986
 20
377.5
 11
-454.6633369868304
 21
372.5
  0
LINE
  5
1BA
100
AcDbEntity
  8
Aux
  6
ByLayer
 62
  256
370
   -1
100
AcDbLine
 10
-454.6633369868304
 20
372.5
 11
-454.6633369868304
 21
352.5
  0
LINE
  5
1BB
100
AcDbEntity
  8
Aux
  6
ByLayer
 62
  256
370
   -1
100
AcDbLine
 10
-454.6633369868304
 20
372.5
 11
-480.6440991003635
 21
387.5
  0
LINE
  5
1BC
100
AcDbEntity
  8
Dibujo
  6
ByLayer
 62
  256
370
   -1
100
AcDbLine
 10
-478.1161643956488
 20
368.9595037822608
 11
-463.3235910246748
 21
377.5
  0
DIMENSION
  5
1BD
100
AcDbEntity
  8
Cotas Solidas
  6
ByLayer
 62
  256
370
   -1
100
AcDbDimension
  2
*D7
 10
-484.5412134173935
 20
357.75
 30
0
 11
-470.6133323606269
 21
351.8737976320958
 31
0
 70
   33
 71
    5
 72
    0
  3
Standard
 53
0
210
0
220
0
230
1
100
AcDbAlignedDimension
 13
-452.065260775477
 23
354
 33
0
 14
-478.0460228890102
 24
369
 34
0
  0
DIMENSION
  5
1BE
100
AcDbEntity
  8
Cotas Solidas
  6
ByLayer
 62
  256
370
   -1
100
AcDbDimension
  2
*D8
 10
-441.6729559300638
 20
373.9595037822608
 30
0
 11
-443.5479559300638
 21
363.9595037822608
 31
0
 70
   33
 71
    5
 72
    0
  3
Standard
 53
0
210
0
220
0
230
1
100
AcDbAlignedDimension
 13
-452.1354022821157
 23
353.9595037822609
 33
0
 14
-452.1354022821157
 24
373.9595037822608
 34
0
  0
DIMENSION
  5
1BF
100
AcDbEntity
  8
Cotas Solidas
  6
ByLayer
 62
  256
370
   -1
100
AcDbDimension
  2
*D9
 10
-398.3716857408419
 20
360
 30
0
 11
-400.2466861320182
 21
379.9999997374815
 31
0
 70
   33
 71
    5
 72
    0
  3
Standard
 53
0
210
0
220
0
230
1
100
AcDbAlignedDimension
 13
-398.3716865231945
 23
399.9999995483086
 33
0
 14
-398.3716857408419
 24
360
 34
0
  0
DIMENSION
  5
1C0
100
AcDbEntity
  8
Cotas Solidas
  6
ByLayer
 62
  256
370
   -1
100
AcDbDimension
  2
*D10
 10
-450.3332099679082
 20
420
 30
0
 11
-452.2082099679082
 21
425
 31
0
 70
   33
 71
    5
 72
    0
  3
Standard
 53
0
210
0
220
0
230
1
100
AcDbAlignedDimension
 13
-450.3332099679082
 23
430
 33
0
 14
-450.3332099679082
 24
420
 34
0
  0
DIMENSION
  5
1C1
100
AcDbEntity
  8
Cotas Solidas
  6
ByLayer
 62
  256
370
   -1
100
AcDbDimension
  2
*D11
 10
-420.0223208354528
 20
472.5
 30
0
 11
-423.414947854375
 21
476.6237976320958
 31
0
 70
   33
 71
    5
 72
    0
  3
Standard
 53
0
210
0
220
0
230
1
100
AcDbAlignedDimension
 13
-428.6825748732972
 23
477.5
 33
0
 14
-420.0223208354528
 24
472.5
 34
0
  0
DIMENSION
  5
1C2
100
AcDbEntity
  8
Cotas Solidas
  6
ByLayer
 62
  256
370
   -1
100
AcDbDimension
  2
*D12
 10
-381.0511776651531
 20
410
 30
0
 11
-382.9261776651531
 21
425
 31
0
 70
   33
 71
    5
 72
    0
  3
Standard
 53
0
210
0
220
0
230
1
100
AcDbAlignedDimension
 13
-381.0511776651531
 23
440
 33
0
 14
-381.0511776651531
 24
410
 34
0
  0
LINE
  5
1C3
100
AcDbEntity
  8
Cotas Dashed
  6
ByLayer
 62
  256
370
   -1
100
AcDbLine
 10
-433.0127018922194
 20
450
 11
-424.352447854375
 21
445
  0
LINE
  5
1C4
100
AcDbEntity
  8
Cotas Solidas
  6
ByLayer
 62
  256
370
   -1
100
AcDbLine
 10
-346.4101615137756
 20
460
 11
-381.0511776651531
 21
440
  0
DIMENSION
  5
1C5
100
AcDbEntity
  8
Cotas Solidas
  6
ByLayer
 62
  256
370
   -1
100
AcDbDimension
  2
*D13
 10
-402.7018127597641
 20
462.5
 30
0
 11
-416.6296938165307
 21
456.6237976320958
 31
0
 70
   33
 71
    5
 72
    0
  3
Standard
 53
0
210
0
220
0
230
1
100
AcDbAlignedDimension
 13
-428.6825748732972
 23
447.5
 33
0
 14
-402.7018127597641
 24
462.5
 34
0
  0
LEADER
  5
1C6
100
AcDbEntity
  8
Cotas Solidas
  6
ByLayer
 62
  256
370
   -1
100
AcDbLeader
  3
Standard
 71
    1
 72
    0
 73
    3
 74
    0
 75
    0
 40
1
 41
10
 76
2
 76
2
 10
-424.352447854375
 20
415
 30
0
 10
-407.0319397786863
 20
425
 30
0
  0
LEADER
  5
1C7
100
AcDbEntity
  8
Cotas Solidas
  6
ByLayer
 62
  256
370
   -1
100
AcDbLeader
  3
Standard
 71
    1
 72
    0
 73
    3
 74
    0
 75
    0
 40
1
 41
10
 76
2
 76
2
 10
-378.0807699341387
 20
446.8599484427492
 30
0
 10
-374.988999838662
 20
459.5
 30
0
  0
DIMENSION
  5
1C8
100
AcDbEntity
  8
Cotas Solidas
  6
ByLayer
 62
  256
370
   -1
100
AcDbDimension
  2
*D16
 10
-387.5601352935007
 20
493.6337015538705
 30
0
 11
-385.6851350536285
 21
473.6337017148487
 31
0
 70
   33
 71
    5
 72
    0
  3
Standard
 53
0
210
0
220
0
230
1
100
AcDbAlignedDimension
 13
-387.5601348137565
 23
453.6337018308509
 33
0
 14
-387.5601352935007
 24
493.6337015538705
 34
0
  0
LEADER
  5
1C9
100
AcDbEntity
  8
Cotas Solidas
  6
ByLayer
 62
  256
370
   -1
100
AcDbLeader
  3
Standard
 71
    1
 72
    0
 73
    3
 74
    0
 75
    0
 40
1
 41
10
 76
2
 76
2
 10
-457.5069187346323
 20
420.1054218144048
 30
0
 10
-464.1896164284592
 20
420
 30
0
  0
LEADER
  5
1CA
100
AcDbEntity
  8
Cotas Solidas
  6
ByLayer
 62
  256
370
   -1
100
AcDbLeader
  3
Standard
 71
    1
 72
    0
 73
    3
 74
    0
 75
    0
 40
1
 41
10
 76
2
 76
2
 10
-479.2609712397708
 20
429.3291225445973
 30
0
 10
-491.0364039457768
 20
432.5
 30
0
  0
LEADER
  5
1CB
100
AcDbEntity
  8
Cotas Solidas
  6
ByLayer
 62
  256
370
   -1
100
AcDbLeader
  3
Standard
 71
    1
 72
    0
 73
    3
 74
    0
 75
    0
 40
1
 41
10
 76
2
 76
2
 10
-356.6777474427902
 20
478.5933610750436
 30
0
 10
-343.8120853024222
 20
480.5
 30
0
  0
LEADER
  5
1CC
100
AcDbEntity
  8
Cotas Solidas
  6
ByLayer
 62
  256
370
   -1
100
AcDbLeader
  3
Standard
 71
    1
 72
    0
 73
    3
 74
    0
 75
    0
 40
1
 41
10
 76
2
 76
2
 10
-346.4101615137756
 20
500
 30
0
 10
-337.7499074759312
 20
505
 30
0
  0
ELLIPSE
  5
1CD
100
AcDbEntity
  8
Dibujo
  6
ByLayer
 62
  256
370
   -1
100
AcDbEllipse
 10
-433.0127018922194
 20
380
 30
0
 11
-48.9897948556635
 21
-1.4210854715202e-14
 31
0
 40
0.577350269189627
 41
0
 42
0.4010013889018098
  0
ELLIPSE
  5
1CE
100
AcDbEntity
  8
Dibujo
  6
ByLayer
 62
  256
370
   -1
100
AcDbEllipse
 10
-433.0127018922194
 20
380
 30
0
 11
-48.9897948556635
 21
-1.4210854715202e-14
 31
0
 40
0.577350269189627
 41
1.169794937893086
 42
2.356194481911294
  0
LINE
  5
1CF
100
AcDbEntity
  8
Aux
  6
ByLayer
 62
  256
370
   -1
100
AcDbLine
 10
-381.0511776651531
 20
439.9999999999999
 11
-450.3332099679083
 21
479.9999999999999
  0
LINE
  5
1D0
100
AcDbEntity
  8
Aux
  6
ByLayer
 62
  256
370
   -1
100
AcDbLine
 10
-311.7691453623981
 20
479.9999999999999
 11
-381.0511776651531
 21
439.9999999999999
  0
LINE
  5
1D1
100
AcDbEntity
  8
Aux
  6
ByLayer
 62
  256
370
   -1
100
AcDbLine
 10
-381.0511776651531
 20
520
 11
-311.7691453623981
 21
479.9999999999999
  0
LINE
  5
1D2
100
AcDbEntity
  8
Aux
  6
ByLayer
 62
  256
370
   -1
100
AcDbLine
 10
-381.0511776651533
 20
520
 11
-450.3332099679083
 21
479.9999999999999
  0
MTEXT
  5
1D3
100
AcDbEntity
  8
Cotas Solidas
  6
ByLayer
 62
  256
370
   -1
100
AcDbMText
 10
-342.9460598986378
 20
482
 30
0
 40
2.5
 41
5.277777777777779
 71
    1
 72
    1
  1
R20
  7
STANDARD
210
0
220
0
230
1
 50
0
 73
    2
 44
1
  0
MTEXT
  5
1D4
100
AcDbEntity
  8
Cotas Solidas
  6
ByLayer
 62
  256
370
   -1
100
AcDbMText
 10
-374.1229744348776
 20
462
 30
0
 40
2.5
 41
5.555555555555555
 71
    1
 72
    1
  1
%%C20
  7
STANDARD
210
0
220
0
230
1
 50
0
 73
    2
 44
1
  0
MTEXT
  5
1D5
100
AcDbEntity
  8
Cotas Solidas
  6
ByLayer
 62
  256
370
   -1
100
AcDbMText
 10
-406.1659143749018
 20
425.5
 30
0
 40
2.5
 41
5.555555555555555
 71
    1
 72
    1
  1
%%C20
  7
STANDARD
210
0
220
0
230
1
 50
0
 73
    2
 44
1
  0
MTEXT
  5
1D6
100
AcDbEntity
  8
Cotas Solidas
  6
ByLayer
 62
  256
370
   -1
100
AcDbMText
 10
-497.2128991977901
 20
435
 30
0
 40
2.5
 41
5.555555555555555
 71
    1
 72
    1
  1
R40
  7
STANDARD
210
0
220
0
230
1
 50
0
 73
    2
 44
1
  0
MTEXT
  5
1D7
100
AcDbEntity
  8
Cotas Solidas
  6
ByLayer
 62
  256
370
   -1
100
AcDbMText
 10
-471.0197434473812
 20
421
 30
0
 40
2.5
 41
5.833333333333334
 71
    1
 72
    1
  1
%%C40
  7
STANDARD
210
0
220
0
230
1
 50
0
 73
    2
 44
1
  0
MTEXT
  5
1D8
100
AcDbEntity
  8
Cotas Solidas
  6
ByLayer
 62
  256
370
   -1
100
AcDbMText
 10
-337.8642249014533
 20
508
 30
0
 40
2.5
 41
5.555555555555555
 71
    1
 72
    1
  1
R40
  7
STANDARD
210
0
220
0
230
1
 50
0
 73
    2
 44
1
  0
LINE
  5
1D9
100
AcDbEntity
  8
Dibujo
  6
ByLayer
 62
  256
370
   -1
100
AcDbLine
 10
-248.9823035880261
 20
358.75
 11
-248.9823035880261
 21
441.25
  0
LINE
  5
1DA
100
AcDbEntity
  8
Dibujo
  6
ByLayer
 62
  256
370
   -1
100
AcDbLine
 10
-248.9823035880261
 20
358.75
 11
-216.5063509461096
 21
340
  0
LINE
  5
1DB
100
AcDbEntity
  8
Dibujo
  6
ByLayer
 62
  256
370
   -1
100
AcDbLine
 10
-216.5063509461096
 20
340
 11
-216.5063509461096
 21
355
  0
LINE
  5
1DC
100
AcDbEntity
  8
Dibujo
  6
ByLayer
 62
  256
370
   -1
100
AcDbLine
 10
-216.5063509461096
 20
355
 11
-164.5448267190434
 21
325
  0
LINE
  5
1DD
100
AcDbEntity
  8
Dibujo
  6
ByLayer
 62
  256
370
   -1
100
AcDbLine
 10
-164.5448267190434
 20
325
 11
-164.5448267190434
 21
362.5
  0
LINE
  5
1DE
100
AcDbEntity
  8
Dibujo
  6
ByLayer
 62
  256
370
   -1
100
AcDbLine
 10
-164.5448267190434
 20
362.5
 11
-216.5063509461097
 21
392.5
  0
LINE
  5
1DF
100
AcDbEntity
  8
Dibujo
  6
ByLayer
 62
  256
370
   -1
100
AcDbLine
 10
-216.5063509461097
 20
392.5
 11
-216.5063509461097
 21
422.5
  0
LINE
  5
1E0
100
AcDbEntity
  8
Dibujo
  6
ByLayer
 62
  256
370
   -1
100
AcDbLine
 10
-216.5063509461097
 20
422.5
 11
-229.4967320028763
 21
430
  0
LINE
  5
1E1
100
AcDbEntity
  8
Dibujo
  6
ByLayer
 62
  256
370
   -1
100
AcDbLine
 10
-229.4967320028763
 20
430
 11
-164.5448267190434
 21
467.5
  0
LINE
  5
1E2
100
AcDbEntity
  8
Dibujo
  6
ByLayer
 62
  256
370
   -1
100
AcDbLine
 10
-164.5448267190434
 20
467.5
 11
-151.5544456622768
 21
460
  0
LINE
  5
1E3
100
AcDbEntity
  8
Dibujo
  6
ByLayer
 62
  256
370
   -1
100
AcDbLine
 10
-151.5544456622768
 20
460
 11
-151.5544456622768
 21
430
  0
LINE
  5
1E4
100
AcDbEntity
  8
Dibujo
  6
ByLayer
 62
  256
370
   -1
100
AcDbLine
 10
-151.5544456622768
 20
430
 11
-99.59292143521049
 21
399.9999999999999
  0
LINE
  5
1E5
100
AcDbEntity
  8
Dibujo
  6
ByLayer
 62
  256
370
   -1
100
AcDbLine
 10
-99.59292143521049
 20
399.9999999999999
 11
-99.59292143521049
 21
362.4999999999999
  0
LINE
  5
1E6
100
AcDbEntity
  8
Dibujo
  6
ByLayer
 62
  256
370
   -1
100
AcDbLine
 10
-216.5063509461097
 20
422.5
 11
-151.5544456622768
 21
459.9999999999999
  0
LINE
  5
1E7
100
AcDbEntity
  8
Dibujo
  6
ByLayer
 62
  256
370
   -1
100
AcDbLine
 10
-216.5063509461097
 20
340
 11
-203.5159698893431
 21
347.5
  0
LINE
  5
1E8
100
AcDbEntity
  8
Aux
  6
ByLayer
 62
  256
370
   -1
100
AcDbLine
 10
-164.5448267190434
 20
362.5
 11
-99.59292143521049
 21
399.9999999999999
  0
LINE
  5
1E9
100
AcDbEntity
  8
Aux
  6
ByLayer
 62
  256
370
   -1
100
AcDbLine
 10
-164.5448267190434
 20
325
 11
-99.59292143521049
 21
362.4999999999999
  0
LINE
  5
1EA
100
AcDbEntity
  8
Aux
  6
ByLayer
 62
  256
370
   -1
100
AcDbLine
 10
-132.0688740771269
 20
343.75
 11
-132.0688740771269
 21
381.25
  0
LINE
  5
1EB
100
AcDbEntity
  8
Aux
  6
ByLayer
 62
  256
370
   -1
100
AcDbLine
 10
-132.0688740771269
 20
381.25
 11
-184.0303983041932
 21
411.25
  0
LINE
  5
1EC
100
AcDbEntity
  8
Aux
  6
ByLayer
 62
  256
370
   -1
100
AcDbLine
 10
-184.0303983041932
 20
411.25
 11
-184.0303983041932
 21
441.25
  0
LINE
  5
1ED
100
AcDbEntity
  8
Aux
  6
ByLayer
 62
  256
370
   -1
100
AcDbLine
 10
-184.0303983041932
 20
441.25
 11
-216.5063509461097
 21
460
  0
LINE
  5
1EE
100
AcDbEntity
  8
Aux
  6
ByLayer
 62
  256
370
   -1
100
AcDbLine
 10
-132.0688740771269
 20
403.75
 11
-171.0400172474266
 21
381.25
  0
LINE
  5
1EF
100
AcDbEntity
  8
Aux
  6
ByLayer
 62
  256
370
   -1
100
AcDbLine
 10
-171.0400172474266
 20
381.25
 11
-132.0688740771269
 21
358.7499999999999
  0
LINE
  5
1F0
100
AcDbEntity
  8
Aux
  6
ByLayer
 62
  256
370
   -1
100
AcDbLine
 10
-132.0688740771269
 20
358.7499999999999
 11
-93.09773090682717
 21
381.2499999999999
  0
LINE
  5
1F1
100
AcDbEntity
  8
Aux
  6
ByLayer
 62
  256
370
   -1
100
AcDbLine
 10
-93.09773090682717
 20
381.2499999999999
 11
-132.0688740771269
 21
403.75
  0
LINE
  5
1F2
100
AcDbEntity
  8
Dibujo
  6
ByLayer
 62
  256
370
   -1
100
AcDbLine
 10
-164.5448267190434
 20
362.5
 11
-151.5544456622768
 21
369.9999999999999
  0
LINE
  5
1F3
100
AcDbEntity
  8
Dibujo
  6
ByLayer
 62
  256
370
   -1
100
AcDbLine
 10
-112.583302491977
 20
392.5
 11
-99.59292143521049
 21
399.9999999999999
  0
LINE
  5
1F4
100
AcDbEntity
  8
Aux
  6
ByLayer
 62
  256
370
   -1
100
AcDbLine
 10
-132.0688740771269
 20
306.25
 11
-132.0688740771269
 21
343.75
  0
ELLIPSE
  5
1F5
100
AcDbEntity
  8
Dibujo
  6
ByLayer
 62
  256
370
   -1
100
AcDbEllipse
 10
-132.0688740771269
 20
381.25
 30
0
 11
-27.55675960631077
 21
3.552713678800501e-15
 31
0
 40
0.5773502691896258
 41
3.926990816987241
 42
7.068583470577034
  0
LINE
  5
1F6
100
AcDbEntity
  8
Dibujo
  6
ByLayer
 62
  256
370
   -1
100
AcDbLine
 10
-151.5544456622768
 20
332.4999999999999
 11
-151.5544456622768
 21
369.9999999999999
  0
LINE
  5
1F7
100
AcDbEntity
  8
Dibujo
  6
ByLayer
 62
  256
370
   -1
100
AcDbLine
 10
-112.5833024919771
 20
392.4999999999999
 11
-112.583302491977
 21
355
  0
ELLIPSE
  5
1F8
100
AcDbEntity
  8
Dibujo
  6
ByLayer
 62
  256
370
   -1
100
AcDbEllipse
 10
-132.0688740771269
 20
343.75
 30
0
 11
-27.55675960631077
 21
3.552713678800501e-15
 31
0
 40
0.5773502691896258
 41
3.926990816987241
 42
5.497787143782141
  0
LINE
  5
1F9
100
AcDbEntity
  8
Dibujo
  6
ByLayer
 62
  256
370
   -1
100
AcDbLine
 10
-164.5448267190434
 20
325
 11
-151.5544456622768
 21
332.4999999999999
  0
LINE
  5
1FA
100
AcDbEntity
  8
Dibujo
  6
ByLayer
 62
  256
370
   -1
100
AcDbLine
 10
-112.583302491977
 20
355
 11
-99.59292143521049
 21
362.4999999999999
  0
LINE
  5
1FB
100
AcDbEntity
  8
Aux
  6
ByLayer
 62
  256
370
   -1
100
AcDbLine
 10
-229.4967320028763
 20
430
 11
-248.9823035880261
 21
441.25
  0
LINE
  5
1FC
100
AcDbEntity
  8
Aux
  6
ByLayer
 62
  256
370
   -1
100
AcDbLine
 10
-248.9823035880261
 20
441.25
 11
-184.0303983041932
 21
478.75
  0
LINE
  5
1FD
100
AcDbEntity
  8
Aux
  6
ByLayer
 62
  256
370
   -1
100
AcDbLine
 10
-184.0303983041932
 20
478.75
 11
-164.5448267190433
 21
467.5
  0
LINE
  5
1FE
100
AcDbEntity
  8
Aux
  6
ByLayer
 62
  256
370
   -1
100
AcDbLine
 10
-177.5352077758099
 20
414.9999999999999
 11
-151.5544456622767
 21
399.9999999999999
  0
LINE
  5
1FF
100
AcDbEntity
  8
Aux
  6
ByLayer
 62
  256
370
   -1
100
AcDbLine
 10
-177.53520777581
 20
415
 11
-177.53520777581
 21
445
  0
LINE
  5
200
100
AcDbEntity
  8
Aux
  6
ByLayer
 62
  256
370
   -1
100
AcDbLine
 10
-177.53520777581
 20
445
 11
-190.5255888325765
 21
437.5
  0
LINE
  5
201
100
AcDbEntity
  8
Aux
  6
ByLayer
 62
  256
370
   -1
100
AcDbLine
 10
-151.5544456622767
 20
399.9999999999999
 11
-164.5448267190433
 21
392.4999999999999
  0
LINE
  5
202
100
AcDbEntity
  8
Dibujo
  6
ByLayer
 62
  256
370
   -1
100
AcDbLine
 10
-151.5544456622767
 20
399.9999999999999
 11
-177.53520777581
 21
444.9999999999999
  0
LINE
  5
203
100
AcDbEntity
  8
Dibujo
  6
ByLayer
 62
  256
370
   -1
100
AcDbLine
 10
-151.5544456622767
 20
399.9999999999999
 11
-164.5448267190433
 21
392.4999999999999
  0
LINE
  5
204
100
AcDbEntity
  8
Dibujo
  6
ByLayer
 62
  256
370
   -1
100
AcDbLine
 10
-164.5448267190433
 20
392.4999999999999
 11
-190.5255888325765
 21
437.5
  0
LINE
  5
205
100
AcDbEntity
  8
Dibujo
  6
ByLayer
 62
  256
370
   -1
100
AcDbLine
 10
-164.5448267190433
 20
392.4999999999999
 11
-190.5255888325765
 21
407.4999999999999
  0
LINE
  5
206
100
AcDbEntity
  8
Dibujo
  6
ByLayer
 62
  256
370
   -1
100
AcDbLine
 10
-190.5255888325765
 20
407.5
 11
-190.5255888325765
 21
437.5
  0
LINE
  5
207
100
AcDbEntity
  8
Dibujo
  6
ByLayer
 62
  256
370
   -1
100
AcDbLine
 10
-164.5448267190434
 20
422.5
 11
-151.5544456622768
 21
430
  0
LINE
  5
208
100
AcDbEntity
  8
Dibujo
  6
ByLayer
 62
  256
370
   -1
100
AcDbLine
 10
-190.5255888325765
 20
407.4999999999999
 11
-216.5063509461097
 21
392.5
  0
LINE
  5
209
100
AcDbEntity
  8
Aux
  6
ByLayer
 62
  256
370
   -1
100
AcDbLine
 10
-164.5448267190434
 20
512.5
 11
-229.4967320028763
 21
474.9999999999999
  0
LINE
  5
20A
100
AcDbEntity
  8
Aux
  6
ByLayer
 62
  256
370
   -1
100
AcDbLine
 10
-248.9823035880261
 20
441.25
 11
-248.9823035880261
 21
486.25
  0
LINE
  5
20B
100
AcDbEntity
  8
Aux
  6
ByLayer
 62
  256
370
   -1
100
AcDbLine
 10
-248.9823035880261
 20
486.25
 11
-229.4967320028763
 21
474.9999999999999
  0
LINE
  5
20C
100
AcDbEntity
  8
Aux
  6
ByLayer
 62
  256
370
   -1
100
AcDbLine
 10
-184.0303983041932
 20
523.75
 11
-164.5448267190434
 21
512.5
  0
LINE
  5
20D
100
AcDbEntity
  8
Aux
  6
ByLayer
 62
  256
370
   -1
100
AcDbLine
 10
-184.0303983041932
 20
523.75
 11
-248.9823035880261
 21
486.25
  0
LINE
  5
20E
100
AcDbEntity
  8
Aux
  6
ByLayer
 62
  256
370
   -1
100
AcDbLine
 10
-184.0303983041932
 20
486.25
 11
-164.5448267190432
 21
475
  0
ELLIPSE
  5
20F
100
AcDbEntity
  8
Dibujo
  6
ByLayer
 62
  256
370
   -1
100
AcDbEllipse
 10
-197.0207793609599
 20
456.2500000000002
 30
0
 11
-22.9639663385923
 21
-39.77475644174338
 31
0
 40
0.5773502691896256
 41
2.356194490192342
 42
5.497787143782139
  0
LINE
  5
210
100
AcDbEntity
  8
Dibujo
  6
ByLayer
 62
  256
370
   -1
100
AcDbLine
 10
-248.9823035880261
 20
448.75
 11
-248.9823035880261
 21
441.25
  0
LINE
  5
211
100
AcDbEntity
  8
Dibujo
  6
ByLayer
 62
  256
370
   -1
100
AcDbLine
 10
-229.4967320028762
 20
437.500003383161
 11
-229.4967320028762
 21
430
  0
LINE
  5
212
100
AcDbEntity
  8
Dibujo
  6
ByLayer
 62
  256
370
   -1
100
AcDbLine
 10
-164.5448267190432
 20
475
 11
-164.5448267190434
 21
467.5000000000001
  0
LINE
  5
213
100
AcDbEntity
  8
Aux
  6
ByLayer
 62
  256
370
   -1
100
AcDbLine
 10
-164.5448267190432
 20
475
 11
-229.4967320028762
 21
437.5000035621285
  0
LINE
  5
214
100
AcDbEntity
  8
Aux
  6
ByLayer
 62
  256
370
   -1
100
AcDbLine
 10
-229.4967320028762
 20
437.5000035621285
 11
-248.9823035880261
 21
448.7500020358495
  0
LINE
  5
215
100
AcDbEntity
  8
Dibujo
  6
ByLayer
 62
  256
370
   -1
100
AcDbLine
 10
-174.0568130223676
 20
496.0247564417435
 11
-193.5423846075174
 21
507.2747564417434
  0
LINE
  5
216
100
AcDbEntity
  8
Aux
  6
ByLayer
 62
  256
370
   -1
100
AcDbLine
 10
-229.4967320028763
 20
474.9999999999999
 11
-229.4967320028763
 21
399.9999999999999
  0
LINE
  5
217
100
AcDbEntity
  8
Aux
  6
ByLayer
 62
  256
370
   -1
100
AcDbLine
 10
-229.4967320028763
 20
399.9999999999999
 11
-164.5448267190434
 21
437.4999999999999
  0
LINE
  5
218
100
AcDbEntity
  8
Aux
  6
ByLayer
 62
  256
370
   -1
100
AcDbLine
 10
-164.5448267190434
 20
437.4999999999999
 11
-164.5448267190434
 21
512.5
  0
LINE
  5
219
100
AcDbEntity
  8
Aux
  6
ByLayer
 62
  256
370
   -1
100
AcDbLine
 10
-184.0303983041932
 20
478.75
 11
-184.0303983041932
 21
523.75
  0
ELLIPSE
  5
21A
100
AcDbEntity
  8
Dibujo
  6
ByLayer
 62
  256
370
   -1
100
AcDbEllipse
 10
-216.5063509461096
 20
467.5000000000001
 30
0
 11
-22.9639663385923
 21
-39.77475644174338
 31
0
 40
0.5773502691896257
 41
3.141592614865841
 42
5.497787143782139
  0
ELLIPSE
  5
21B
100
AcDbEntity
  8
Dibujo
  6
ByLayer
 62
  256
370
   -1
100
AcDbEllipse
 10
-197.0207793609598
 20
456.2500017810642
 30
0
 11
-13.77837980315538
 21
-23.86485386504592
 31
0
 40
0.5773502691896268
 41
2.356194490192348
 42
5.497787143782141
  0
LINE
  5
21C
100
AcDbEntity
  8
Dibujo
  6
ByLayer
 62
  256
370
   -1
100
AcDbLine
 10
-216.5063509461097
 20
445.0000028497028
 11
-177.5352077758099
 21
467.5000017810642
  0
LINE
  5
21D
100
AcDbEntity
  8
Dibujo
  6
ByLayer
 62
  256
370
   -1
100
AcDbLine
 10
-177.5352077758099
 20
467.5000017810642
 11
-197.0207793609599
 21
478.7500017810643
  0
LINE
  5
21E
100
AcDbEntity
  8
Aux
  6
ByLayer
 62
  256
370
   -1
100
AcDbLine
 10
-216.5063509461097
 20
437.5
 11
-235.9919225312595
 21
448.75
  0
LINE
  5
21F
100
AcDbEntity
  8
Aux
  6
ByLayer
 62
  256
370
   -1
100
AcDbLine
 10
-177.5352077758099
 20
460
 11
-197.0207793609598
 21
471.25
  0
LINE
  5
220
100
AcDbEntity
  8
Aux
  6
ByLayer
 62
  256
370
   -1
100
AcDbLine
 10
-216.5063509461097
 20
437.5
 11
-216.5063509461097
 21
445.0000028497028
  0
LINE
  5
221
100
AcDbEntity
  8
Aux
  6
ByLayer
 62
  256
370
   -1
100
AcDbLine
 10
-177.53520777581
 20
459.9999999999999
 11
-177.5352068503417
 21
467.5000012467449
  0
LINE
  5
222
100
AcDbEntity
  8
Aux
  6
ByLayer
 62
  256
370
   -1
100
AcDbLine
 10
-177.5352077758099
 20
490
 11
-177.53520777581
 21
445
  0
LINE
  5
223
100
AcDbEntity
  8
Aux
  6
ByLayer
 62
  256
370
   -1
100
AcDbLine
 10
-177.53520777581
 20
445
 11
-216.5063509461097
 21
422.5
  0
LINE
  5
224
100
AcDbEntity
  8
Aux
  6
ByLayer
 62
  256
370
   -1
100
AcDbLine
 10
-216.5063509461097
 20
422.5
 11
-216.5063509461097
 21
467.5
  0
LINE
  5
225
100
AcDbEntity
  8
Aux
  6
ByLayer
 62
  256
370
   -1
100
AcDbLine
 10
-216.5063509461097
 20
467.5
 11
-177.5352077758099
 21
490
  0
DIMENSION
  5
226
100
AcDbEntity
  8
Cotas Solidas
  6
ByLayer
 62
  256
370
   -1
100
AcDbDimension
  2
*D21
 10
-99.59292143521049
 20
347.25
 30
0
 11
-133.0063740771269
 21
330.1237976320958
 31
0
 70
   33
 71
    5
 72
    0
  3
Standard
 53
0
210
0
220
0
230
1
100
AcDbAlignedDimension
 13
-164.5448267190434
 23
309.75
 33
0
 14
-99.59292143521049
 24
347.25
 34
0
  0
DIMENSION
  5
227
100
AcDbEntity
  8
Cotas Solidas
  6
ByLayer
 62
  256
370
   -1
100
AcDbDimension
  2
*D22
 10
-164.3997949643128
 20
309.75
 30
0
 11
-205.6810333988042
 21
335.7487976320959
 31
0
 70
   33
 71
    5
 72
    0
  3
Standard
 53
0
210
0
220
0
230
1
100
AcDbAlignedDimension
 13
-248.8372718332956
 23
358.5000000000001
 33
0
 14
-164.3997949643128
 24
309.75
 34
0
  0
DIMENSION
  5
228
100
AcDbEntity
  8
Cotas Solidas
  6
ByLayer
 62
  256
370
   -1
100
AcDbDimension
  2
*D23
 10
-164.3997949643128
 20
309.75
 30
0
 11
-166.2747949643128
 21
317.25
 31
0
 70
   33
 71
    5
 72
    0
  3
Standard
 53
0
210
0
220
0
230
1
100
AcDbAlignedDimension
 13
-164.3997949643128
 23
324.75
 33
0
 14
-164.3997949643128
 24
309.75
 34
0
  0
DIMENSION
  5
229
100
AcDbEntity
  8
Cotas Solidas
  6
ByLayer
 62
  256
370
   -1
100
AcDbDimension
  2
*D24
 10
-171.9060426512111
 20
388.25
 30
0
 11
-183.9589237079777
 21
397.3737976320958
 31
0
 70
   33
 71
    5
 72
    0
  3
Standard
 53
0
210
0
220
0
230
1
100
AcDbAlignedDimension
 13
-197.8868047647443
 23
403.25
 33
0
 14
-171.9060426512111
 24
388.25
 34
0
  0
DIMENSION
  5
22A
100
AcDbEntity
  8
Cotas Solidas
  6
ByLayer
 62
  256
370
   -1
100
AcDbDimension
  2
*D25
 10
-177.53520777581
 20
445
 30
0
 11
-184.9678983041932
 21
442.8737976320958
 31
0
 70
   33
 71
    5
 72
    0
  3
Standard
 53
0
210
0
220
0
230
1
100
AcDbAlignedDimension
 13
-190.5255888325765
 23
437.5
 33
0
 14
-177.53520777581
 24
445
 34
0
  0
DIMENSION
  5
22B
100
AcDbEntity
  8
Cotas Solidas
  6
ByLayer
 62
  256
370
   -1
100
AcDbDimension
  2
*D26
 10
-151.5544456622768
 20
459.9999999999999
 30
0
 11
-153.4294456622768
 21
445
 31
0
 70
   33
 71
    5
 72
    0
  3
Standard
 53
0
210
0
220
0
230
1
100
AcDbAlignedDimension
 13
-151.5544456622768
 23
430
 33
0
 14
-151.5544456622768
 24
459.9999999999999
 34
0
  0
DIMENSION
  5
22C
100
AcDbEntity
  8
Cotas Solidas
  6
ByLayer
 62
  256
370
   -1
100
AcDbDimension
  2
*D27
 10
-164.3283203680972
 20
467.875
 30
0
 11
-156.8956298397139
 21
465.7487976320958
 31
0
 70
   33
 71
    5
 72
    0
  3
Standard
 53
0
210
0
220
0
230
1
100
AcDbAlignedDimension
 13
-151.5544456622768
 23
460
 33
0
 14
-164.5448267190433
 24
467.5
 34
0
  0
DIMENSION
  5
22D
100
AcDbEntity
  8
Cotas Solidas
  6
ByLayer
 62
  256
370
   -1
100
AcDbDimension
  2
*D28
 10
-184.0303983041932
 20
523.75
 30
0
 11
-173.3501125116183
 21
519.7487976320958
 31
0
 70
   33
 71
    5
 72
    0
  3
Standard
 53
0
210
0
220
0
230
1
100
AcDbAlignedDimension
 13
-164.5448267190434
 23
512.5
 33
0
 14
-184.0303983041932
 24
523.75
 34
0
  0
DIMENSION
  5
22E
100
AcDbEntity
  8
Cotas Solidas
  6
ByLayer
 62
  256
370
   -1
100
AcDbDimension
  2
*D29
 10
-98.2938833295338
 20
399.9999999999999
 30
0
 11
-100.1688833295338
 21
381.2499999999999
 31
0
 70
   33
 71
    5
 72
    0
  3
Standard
 53
0
210
0
220
0
230
1
100
AcDbAlignedDimension
 13
-99.59292143521049
 23
362.4999999999999
 33
0
 14
-99.59292143521049
 24
399.9999999999999
 34
0
  0
DIMENSION
  5
22F
100
AcDbEntity
  8
Cotas Solidas
  6
ByLayer
 62
  256
370
   -1
100
AcDbDimension
  2
*D30
 10
-99.59292143521049
 20
399.9999999999999
 30
0
 11
-124.6361835487436
 21
416.6237976320958
 31
0
 70
   33
 71
    5
 72
    0
  3
Standard
 53
0
210
0
220
0
230
1
100
AcDbAlignedDimension
 13
-151.5544456622768
 23
430
 33
0
 14
-99.59292143521049
 24
399.9999999999999
 34
0
  0
LEADER
  5
230
100
AcDbEntity
  8
Cotas Solidas
  6
ByLayer
 62
  256
370
   -1
100
AcDbLeader
  3
Standard
 71
    1
 72
    0
 73
    3
 74
    0
 75
    0
 40
1
 41
10
 76
3
 76
3
 10
-208.2791096101575
 20
468.25
 30
0
 10
-222.1355160707085
 20
477.25
 30
0
 10
-214.3412874366486
 20
481.75
 30
0
  0
LEADER
  5
231
100
AcDbEntity
  8
Cotas Solidas
  6
ByLayer
 62
  256
370
   -1
100
AcDbLeader
  3
Standard
 71
    1
 72
    0
 73
    3
 74
    0
 75
    0
 40
1
 41
10
 76
3
 76
3
 10
-236.857947935044
 20
485.75
 30
0
 10
-246.3842273766728
 20
491.25
 30
0
 10
-237.7239733388284
 20
494.25
 30
0
  0
MTEXT
  5
232
100
AcDbEntity
  8
Cotas Solidas
  6
ByLayer
 62
  256
370
   -1
100
AcDbMText
 10
-223.3232969995676
 20
479.9211715845977
 30
0
 40
2.5
 41
8.055555555555712
 71
    1
 72
    1
  1
R22.5
  7
STANDARD
210
0
220
0
230
1
 50
29.99979999999999
 73
    2
 44
1
  0
MTEXT
  5
233
100
AcDbEntity
  8
Cotas Solidas
  6
ByLayer
 62
  256
370
   -1
100
AcDbMText
 10
-246.614568032763
 20
494.5355894345844
 30
0
 40
2.5
 41
8.055555555555868
 71
    1
 72
    1
  1
R37.5
  7
STANDARD
210
0
220
0
230
1
 50
16.1021
 73
    2
 44
1
  0
DIMENSION
  5
234
100
AcDbEntity
  8
Cotas Solidas
  6
ByLayer
 62
  256
370
   -1
100
AcDbDimension
  2
*D33
 10
-164.5448267190434
 20
467.5000000000001
 30
0
 11
-162.3797632095823
 21
489.75
 31
0
 70
   33
 71
    5
 72
    0
  3
Standard
 53
0
210
0
220
0
230
1
100
AcDbAlignedDimension
 13
-164.5448267190434
 23
512.5
 33
0
 14
-164.5448267190434
 24
467.5000000000001
 34
0
  0
LINE
  5
235
100
AcDbEntity
  8
Cotas Dots
  6
ByLayer
 62
  256
370
   -1
100
AcDbLine
 10
-184.0303983041932
 20
523.75
 11
-216.5063536996004
 21
504.9999984102714
  0
LINE
  5
236
100
AcDbEntity
  8
Cotas Dots
  6
ByLayer
 62
  256
370
   -1
100
AcDbLine
 10
-164.5448267190434
 20
512.5
 11
-197.0207835362885
 21
493.7499975893728
  0
LEADER
  5
237
100
AcDbEntity
  8
Cotas Solidas
  6
ByLayer
 62
  256
370
   -1
100
AcDbLeader
  3
Standard
 71
    1
 72
    0
 73
    3
 74
    0
 75
    0
 40
1
 41
10
 76
3
 76
3
 10
-123.8416327411747
 20
396.5
 30
0
 10
-119.5115057222525
 20
404
 30
0
 10
-128.1717597600969
 20
404
 30
0
  0
MTEXT
  5
238
100
AcDbEntity
  8
Cotas Solidas
  6
ByLayer
 62
  256
370
   -1
100
AcDbMText
 10
-128.0851572197185
 20
407.05
 30
0
 40
2.5
 41
8.055555555555712
 71
    1
 72
    1
  1
R22.5
  7
STANDARD
210
0
220
0
230
1
 50
0
 73
    2
 44
1
  0
ENDSEC
  0
SECTION
  2
OBJECTS
  0
DICTIONARY
  5
C
330
0
100
AcDbDictionary
281
    1
  3
ACAD_GROUP
350
D
  0
DICTIONARY
  5
D
330
C
100
AcDbDictionary
281
    1
  0
PLOTSETTINGS
  5
239
100
AcDbPlotSettings
  6
1x1
 40
0
 41
0
 42
0
 43
0
  0
ENDSEC
  0
EOF
